{"glyphs":{"0":{"ha":550,"x_min":0,"x_max":0,"o":"m 282 -24 b 518 426 457 -24 518 243 b 293 863 518 556 482 863 b 32 426 103 863 32 646 b 282 -24 32 207 90 -24 z m 133 711 b 103 639 117 678 108 653 b 85 633 97 626 85 621 b 142 763 85 660 125 742 b 160 768 151 775 160 772 b 133 711 160 763 150 746 z m 283 82 b 175 418 171 82 175 336 b 293 751 175 524 211 751 b 410 439 392 751 410 524 b 283 82 410 301 399 82 z "},"1":{"ha":340,"x_min":0,"x_max":0,"o":"m 221 0 b 297 67 261 0 297 33 l 297 815 b 232 856 297 851 253 856 b 43 675 189 856 76 724 b 7 618 31 657 7 626 b 51 571 7 593 25 571 b 78 578 60 571 68 572 b 154 657 107 593 143 657 b 158 625 158 657 158 642 l 158 65 b 221 0 158 24 181 0 z m 219 822 b 176 789 213 813 189 788 b 171 794 172 790 171 792 b 200 826 171 801 190 818 b 231 842 211 838 226 842 b 219 822 236 840 229 836 z m 204 63 b 189 38 204 44 200 38 b 189 121 174 38 175 121 b 197 103 197 121 197 111 b 204 63 197 83 204 76 z "},"2":{"ha":478,"x_min":0,"x_max":0,"o":"m 63 0 l 382 0 b 456 40 442 0 456 7 b 394 114 456 82 461 117 l 274 110 b 229 110 243 108 229 110 b 457 635 229 126 457 371 b 239 864 457 776 351 864 b 39 653 122 864 39 769 b 124 524 39 579 75 524 b 182 560 144 524 182 535 b 168 644 182 589 168 604 b 238 742 168 713 201 742 b 314 646 274 742 314 722 b 96 147 314 506 228 314 b 32 53 67 110 36 75 b 63 0 28 31 46 0 z m 85 678 b 69 625 82 625 78 617 b 63 646 65 628 64 636 b 76 713 61 656 61 711 b 85 678 82 714 86 700 z m 88 589 b 76 576 88 583 83 576 b 68 588 72 576 68 583 b 78 599 68 597 74 599 b 88 589 82 599 88 597 z m 86 69 b 68 44 79 54 74 44 b 63 56 64 44 63 49 b 93 96 63 75 81 96 b 86 69 94 96 93 86 z "},"3":{"ha":482,"x_min":0,"x_max":0,"o":"m 310 675 b 118 406 310 582 118 476 b 224 336 118 368 146 336 b 314 231 278 336 314 290 b 186 106 314 171 286 106 b 56 146 131 106 103 146 b 24 99 35 146 24 126 b 183 -8 24 24 125 -8 b 463 232 321 -8 463 63 b 301 442 463 406 301 421 b 458 676 301 463 458 529 b 226 864 458 774 388 864 b 13 685 121 864 13 785 b 97 561 13 601 42 561 b 142 597 118 561 142 572 b 232 750 142 706 171 750 b 310 675 283 750 310 728 z m 69 715 b 43 663 67 663 51 654 b 36 683 39 665 38 674 b 61 750 33 699 46 749 b 69 715 67 751 71 738 z m 61 626 b 50 614 61 621 57 614 b 42 625 46 614 42 621 b 51 636 42 635 47 636 b 61 626 56 636 61 635 z m 164 404 b 149 382 158 389 154 382 b 142 394 144 382 142 386 b 190 465 142 415 176 465 b 185 443 194 465 192 454 b 164 404 176 431 168 414 z m 67 111 b 53 76 67 97 57 76 b 43 86 50 76 44 79 b 54 128 42 99 44 118 b 67 111 63 136 67 131 z "},"4":{"ha":538,"x_min":0,"x_max":0,"o":"m 415 0 b 503 97 461 0 503 18 l 503 764 b 429 856 503 815 479 856 b 358 744 393 856 358 838 l 358 326 b 340 311 358 315 356 311 l 206 311 b 194 318 197 311 194 314 b 200 338 194 324 197 329 b 325 815 235 436 325 783 b 251 853 325 839 269 853 b 199 822 233 853 213 850 b 29 240 183 792 29 269 b 89 197 29 221 49 197 l 340 197 b 358 181 350 197 358 190 l 358 86 b 415 0 358 44 371 0 z m 386 751 b 378 775 379 751 378 764 b 403 831 378 792 393 831 b 413 821 407 831 413 825 b 386 751 413 803 401 751 z m 90 299 b 72 261 85 276 79 263 b 65 276 69 261 65 265 b 94 360 64 296 85 358 b 101 349 100 360 101 357 b 90 299 103 332 97 322 z m 76 235 b 65 225 76 229 68 225 b 54 235 56 225 54 235 b 65 249 54 243 57 249 b 76 235 71 249 76 244 z m 404 40 b 396 21 410 31 401 21 b 375 69 385 21 375 56 b 383 85 375 78 378 85 b 392 63 392 85 392 63 b 404 40 392 54 399 51 z "},"5":{"ha":522,"x_min":0,"x_max":0,"o":"m 122 -11 b 486 274 369 -11 486 131 b 233 528 486 451 382 533 l 200 526 b 182 554 188 526 182 525 l 182 724 b 194 743 182 732 186 743 l 428 744 b 461 815 444 744 461 782 b 431 856 461 840 444 856 l 107 856 b 43 789 72 856 43 839 l 43 508 b 83 394 43 469 46 394 b 204 421 121 394 133 421 b 344 272 294 421 344 374 b 122 119 344 167 283 119 b 36 67 82 119 36 119 b 122 -11 36 46 42 -11 z m 82 560 b 76 488 82 514 82 488 b 71 492 75 488 74 489 b 71 606 58 503 58 594 b 82 560 82 617 82 594 z m 93 453 b 82 438 93 450 92 438 b 71 447 76 438 71 443 b 86 467 71 463 78 467 b 93 453 92 467 93 460 z m 81 67 b 81 17 89 42 85 17 b 63 58 69 17 64 38 b 74 97 61 78 64 97 b 81 67 88 97 78 75 z "},"6":{"ha":565,"x_min":0,"x_max":0,"o":"m 288 -15 b 550 260 429 -15 550 108 b 331 521 550 415 472 521 b 181 438 231 521 192 438 b 175 451 176 438 175 443 b 193 535 175 472 185 513 b 379 760 225 628 282 728 b 431 824 429 776 431 797 b 368 861 431 853 385 861 b 221 815 328 861 272 853 b 21 313 76 710 21 501 b 288 -15 21 142 96 -15 z m 281 111 b 164 247 190 111 164 171 b 313 397 164 315 240 397 b 410 264 390 397 410 326 b 281 111 410 160 357 111 z m 106 149 b 114 119 108 136 114 126 b 107 113 114 115 113 113 b 67 215 99 111 63 188 b 74 226 68 222 71 226 b 86 206 81 228 83 217 b 106 149 92 185 100 168 z "},"7":{"ha":442,"x_min":0,"x_max":0,"o":"m 121 -3 b 196 15 163 -3 192 6 b 446 807 238 97 446 753 b 389 856 446 832 421 856 l 96 856 b 14 796 47 856 14 846 b 93 735 14 746 43 735 l 274 735 b 283 714 285 735 288 728 b 75 35 257 638 75 86 b 121 -3 75 17 94 -3 z m 58 825 b 38 772 58 810 50 772 b 26 800 31 772 26 783 b 51 836 26 819 42 836 b 58 825 56 836 58 833 z m 121 53 b 107 26 117 36 111 26 b 100 43 104 26 100 31 b 126 122 100 61 115 122 b 132 101 135 122 139 111 b 121 53 128 94 125 71 z "},"8":{"ha":565,"x_min":0,"x_max":0,"o":"m 271 -8 b 544 235 421 -10 544 113 b 393 472 544 397 393 439 b 517 651 393 496 517 513 b 281 868 517 790 378 868 b 33 654 151 868 33 771 b 172 451 33 511 172 479 b 21 226 172 424 21 367 b 271 -8 21 107 121 -7 z m 93 711 b 76 685 89 694 82 685 b 71 696 74 685 71 689 b 154 808 71 725 121 808 b 160 803 158 808 160 807 b 144 776 160 797 156 789 b 93 711 135 767 97 732 z m 281 515 b 171 657 210 515 171 606 b 279 771 171 726 219 771 b 379 651 338 771 379 717 b 281 515 379 586 328 515 z m 79 651 b 68 640 79 644 71 640 b 58 651 60 640 58 651 b 69 664 58 657 61 664 b 79 651 75 664 79 658 z m 274 101 b 168 226 208 101 168 168 b 285 396 168 303 228 396 b 389 235 325 396 389 304 b 274 101 389 150 363 101 z m 85 308 b 60 249 79 294 65 276 b 49 199 56 229 64 199 b 31 231 36 199 29 217 b 71 318 32 258 58 306 b 85 308 83 331 90 322 z "},"9":{"ha":558,"x_min":0,"x_max":0,"o":"m 278 865 b 17 590 107 865 17 732 b 224 343 17 439 94 343 b 379 413 335 343 368 413 b 385 399 383 413 385 407 b 367 315 385 378 375 338 b 185 106 335 222 282 138 b 125 29 135 89 125 57 b 185 -11 125 0 151 -11 b 332 47 225 -11 282 8 b 544 538 453 142 544 349 b 278 865 544 690 482 865 z m 285 743 b 396 603 375 743 396 679 b 253 471 396 535 325 471 b 156 600 192 471 156 524 b 285 743 156 690 208 743 z m 86 675 b 76 592 81 647 83 622 b 60 560 74 576 69 560 b 49 576 56 560 51 565 b 86 728 42 615 74 728 b 96 718 94 728 96 724 b 86 675 96 707 90 693 z m 81 528 b 67 510 81 524 78 510 b 54 522 60 510 54 517 b 72 544 54 540 63 544 b 81 528 78 544 81 536 z m 181 81 b 153 19 181 79 163 19 b 143 39 146 19 143 35 b 181 81 143 74 179 92 z "},"\u0000":{"ha":0,"x_min":0,"x_max":0,"o":""},"\r":{"ha":347,"x_min":0,"x_max":0,"o":""}," ":{"ha":382,"x_min":0,"x_max":0,"o":""},".":{"ha":203,"x_min":0,"x_max":0,"o":"m 92 -8 b 178 85 142 -8 178 40 b 96 168 178 139 150 168 b 8 72 44 168 8 121 b 92 -8 8 22 46 -8 z m 44 57 b 36 74 36 57 36 69 b 83 146 36 93 63 147 b 89 135 88 146 90 138 b 56 82 78 115 63 101 b 44 57 53 75 53 57 z "},"A":{"ha":626,"x_min":0,"x_max":0,"o":"m 321 863 b 149 690 233 863 194 831 b 18 67 88 499 18 163 b 68 -3 18 21 35 -3 b 158 86 108 -3 144 32 l 194 225 b 253 253 200 244 217 253 b 369 251 274 253 317 251 b 410 211 388 251 403 247 b 469 15 425 135 453 38 b 515 -4 478 3 494 -4 b 607 67 560 -4 607 29 b 435 815 607 133 467 750 b 321 863 421 842 379 863 z m 236 779 b 204 725 215 756 213 724 b 222 804 189 728 201 774 b 267 831 236 824 251 833 b 236 779 279 829 256 803 z m 258 524 b 311 711 264 553 292 711 b 357 496 332 711 350 535 b 368 385 371 421 382 385 l 246 385 b 258 524 229 385 239 419 z m 63 88 b 61 46 60 71 57 57 b 56 25 67 31 64 24 b 42 107 40 29 35 71 b 54 125 44 121 51 125 b 63 88 61 124 67 110 z m 486 89 b 501 22 497 68 513 21 b 461 108 482 24 460 92 b 468 122 463 117 464 122 b 486 89 472 122 474 114 z "},"B":{"ha":564,"x_min":0,"x_max":0,"o":"m 92 0 l 272 0 b 544 228 394 0 544 79 b 310 431 544 449 310 418 b 518 640 310 443 518 415 b 313 865 518 765 433 865 b 171 767 213 865 182 767 b 163 814 161 767 163 785 b 107 856 163 831 142 856 b 24 738 44 856 24 817 l 24 143 b 92 0 24 35 40 0 z m 74 743 b 58 721 74 731 64 721 b 43 757 49 721 43 736 b 93 838 43 803 68 838 b 107 831 103 838 107 836 b 67 767 107 822 67 801 b 74 743 67 751 74 743 z m 208 501 b 182 546 194 501 182 521 l 182 618 b 285 731 182 672 218 731 b 360 633 335 731 360 689 b 250 501 360 554 313 501 z m 221 126 b 182 176 186 126 182 132 l 182 297 b 208 353 182 332 193 353 l 243 353 b 386 243 322 353 386 325 b 260 126 386 161 326 126 z m 60 101 b 47 206 49 101 47 126 b 57 264 47 260 53 264 b 68 206 63 264 68 258 b 60 101 68 189 68 101 z m 60 82 b 69 67 69 82 69 79 b 61 49 69 57 65 49 b 49 67 56 49 49 51 b 60 82 49 75 53 82 z "},"C":{"ha":536,"x_min":0,"x_max":0,"o":"m 294 -14 b 515 175 414 -14 515 72 b 460 254 515 222 493 254 b 382 181 422 254 382 217 b 310 122 382 147 350 122 b 181 403 225 122 181 228 b 329 733 181 597 238 733 b 383 676 364 733 382 714 b 460 589 385 626 417 589 b 517 668 497 589 517 617 b 310 865 517 778 425 865 b 15 406 138 865 15 668 b 294 -14 15 157 125 -14 z m 132 713 b 126 719 131 713 126 713 b 288 844 131 761 225 850 b 303 831 297 843 304 838 b 283 821 303 825 293 819 b 132 713 226 825 144 711 z m 118 697 b 103 657 133 696 115 656 b 99 669 100 657 99 663 b 118 697 100 683 110 697 z "},"D":{"ha":568,"x_min":0,"x_max":0,"o":"m 149 0 l 225 0 b 551 453 400 0 551 181 b 244 858 551 708 403 858 l 182 858 b 22 717 96 858 22 818 l 22 122 b 149 0 22 26 82 0 z m 200 133 b 181 183 188 133 181 146 l 181 667 b 219 722 181 713 188 722 l 240 722 b 390 457 328 722 390 632 b 218 133 390 261 315 133 z m 65 115 b 53 224 51 115 53 142 b 65 300 53 279 60 300 b 74 224 71 300 74 276 b 65 115 74 206 81 115 z m 64 96 b 75 81 74 96 75 93 b 65 56 75 69 71 56 b 54 81 60 56 54 65 b 64 96 54 89 57 96 z "},"E":{"ha":503,"x_min":0,"x_max":0,"o":"m 271 -6 b 481 90 326 -6 481 15 b 444 165 481 118 469 165 b 282 124 408 165 343 124 b 190 247 188 124 190 169 l 190 339 b 228 382 190 368 199 381 l 388 388 b 432 443 425 389 432 419 b 386 515 432 481 422 515 l 221 514 b 190 556 200 514 190 528 l 190 683 b 221 717 190 701 203 717 l 417 722 b 461 793 446 724 461 761 b 411 856 461 825 444 856 b 140 856 383 856 190 856 b 32 732 93 856 32 829 l 32 164 b 271 -6 32 31 131 -6 z m 121 83 b 122 64 129 72 128 65 b 57 163 90 60 61 128 b 64 188 54 178 58 188 b 76 169 69 189 74 182 b 121 83 81 142 99 113 z "},"F":{"ha":468,"x_min":0,"x_max":0,"o":"m 118 0 b 190 67 151 0 190 7 l 190 296 b 218 324 190 311 203 324 l 365 328 b 418 383 403 329 418 347 b 369 457 418 411 397 458 l 222 453 b 190 479 204 453 190 461 l 190 686 b 226 722 190 711 201 722 l 417 721 b 450 804 438 721 450 778 b 410 856 450 831 431 856 l 174 857 b 32 754 90 857 32 826 l 32 68 b 118 0 32 13 68 0 z m 101 36 b 93 26 101 29 97 26 b 54 104 68 24 56 86 b 58 135 51 122 56 135 b 74 108 63 135 71 132 b 101 36 78 63 100 46 z "},"G":{"ha":610,"x_min":0,"x_max":0,"o":"m 335 -7 b 596 346 531 -7 596 186 b 483 453 596 414 540 453 l 333 454 b 272 397 292 454 272 426 b 308 324 272 375 286 324 l 379 324 b 447 297 421 324 446 326 b 338 114 450 238 446 114 b 183 436 203 114 183 328 b 324 760 183 633 249 760 b 421 647 378 760 421 731 b 475 579 421 593 449 579 b 556 647 499 579 556 588 b 336 868 556 810 451 868 b 19 456 100 868 19 664 b 335 -7 19 268 85 -7 z m 203 81 b 194 72 203 74 199 72 b 83 236 158 72 83 194 b 94 251 83 246 88 251 b 104 240 96 251 104 250 b 175 117 104 224 142 150 b 203 81 193 97 203 86 z m 235 63 b 225 51 235 56 229 51 b 215 61 222 51 215 53 b 225 72 215 65 218 72 b 235 63 229 72 235 68 z "},"H":{"ha":531,"x_min":0,"x_max":0,"o":"m 431 0 b 517 126 490 0 517 75 l 517 746 b 424 856 517 826 463 856 b 361 750 385 856 361 819 l 361 510 b 346 483 361 485 356 483 l 188 485 b 169 513 172 485 169 497 l 169 756 b 93 856 169 796 149 856 b 14 758 28 856 14 781 l 14 146 b 97 0 14 65 29 0 b 169 146 157 0 169 93 l 169 343 b 194 365 169 361 176 365 l 343 365 b 361 329 358 365 361 353 l 361 128 b 431 0 361 78 368 0 z m 38 771 b 35 782 33 772 35 779 b 75 839 35 793 50 833 b 79 824 81 840 81 829 b 38 771 75 811 49 769 z m 413 799 b 390 767 411 792 406 765 b 383 789 385 768 382 775 b 421 833 388 814 407 835 b 413 799 432 832 414 813 z m 72 42 b 64 38 72 38 68 38 b 36 119 42 38 36 104 b 44 143 36 125 38 143 b 54 119 53 143 54 133 b 67 54 54 99 57 64 b 72 42 71 50 72 46 z m 414 36 b 414 24 418 32 419 24 b 381 81 388 24 381 58 b 390 113 381 96 385 113 b 393 107 392 113 393 110 b 414 36 393 90 403 47 z "},"I":{"ha":322,"x_min":0,"x_max":0,"o":"m 74 1 b 185 0 92 1 143 -1 b 288 11 233 1 276 1 b 299 38 294 17 299 28 b 292 54 299 46 294 51 b 253 67 286 58 271 61 b 243 94 244 69 243 86 l 243 760 b 258 786 243 775 250 783 b 303 835 275 792 303 808 b 169 860 303 854 279 860 b 13 825 47 860 13 850 b 61 788 13 806 22 788 b 94 761 75 788 94 775 l 94 94 b 75 69 94 82 88 69 b 25 33 44 69 25 51 b 74 1 25 7 54 1 z m 142 207 b 124 138 142 139 135 126 b 129 275 113 149 117 275 b 142 207 138 275 142 246 z m 142 107 b 129 96 142 100 136 96 b 117 107 121 96 117 100 b 131 117 117 117 124 117 b 142 107 131 117 142 117 z "},"J":{"ha":496,"x_min":0,"x_max":0,"o":"m 243 -11 b 449 125 321 -11 424 33 b 465 490 468 199 463 251 b 465 811 467 626 468 801 b 293 856 457 844 404 856 b 82 804 136 856 82 858 b 219 744 82 761 121 744 l 276 744 b 308 718 292 744 308 733 l 308 572 b 307 276 308 444 307 347 b 219 113 307 146 286 113 b 142 261 146 113 142 200 b 69 333 142 322 99 333 b 11 207 40 333 11 307 b 243 -11 11 89 75 -11 z m 160 825 b 111 800 157 814 126 796 b 107 815 107 801 106 810 b 157 833 111 828 144 838 b 160 825 163 832 161 828 z m 40 200 b 29 226 35 199 31 211 b 69 315 28 238 36 313 b 78 310 72 317 78 313 b 72 297 79 304 75 300 b 53 240 60 281 56 258 b 40 200 51 233 50 201 z "},"K":{"ha":540,"x_min":0,"x_max":0,"o":"m 94 0 b 188 142 160 0 188 49 b 188 174 188 154 188 164 l 186 228 l 186 299 b 197 342 186 313 182 342 b 354 79 218 342 333 117 b 432 -1 376 40 406 -1 b 533 67 460 -1 533 19 b 318 435 533 121 318 410 b 521 788 318 451 521 742 b 436 856 521 835 471 856 b 194 510 374 856 217 510 b 189 763 182 510 189 736 b 108 856 189 818 150 856 b 26 696 35 856 26 794 b 26 558 26 650 26 604 l 28 283 b 28 146 28 238 28 192 b 94 0 28 94 18 0 z m 53 779 b 49 785 50 779 49 782 b 81 839 47 796 67 839 b 92 828 86 839 93 833 b 53 779 88 813 69 776 z m 400 775 b 390 783 394 776 392 779 b 442 833 388 793 429 838 b 447 828 443 833 447 832 b 400 775 450 814 413 774 z m 74 97 b 65 60 74 93 74 60 b 44 132 44 60 44 118 b 60 186 44 140 47 186 b 74 97 74 186 74 113 z m 436 29 b 428 21 436 25 432 21 b 392 69 411 21 392 57 b 397 82 392 74 393 82 b 436 29 410 82 436 40 z m 88 35 b 76 24 86 29 82 24 b 65 35 71 24 67 29 b 76 50 63 42 68 50 b 88 35 83 50 90 42 z "},"L":{"ha":446,"x_min":0,"x_max":0,"o":"m 83 0 b 190 0 107 0 171 0 l 306 -1 b 371 -1 325 -1 347 -1 b 425 75 396 -1 425 38 b 392 135 425 100 418 135 b 235 131 328 135 299 131 b 203 168 218 131 203 135 l 203 778 b 125 856 203 814 167 856 b 44 768 51 856 44 807 l 44 38 b 83 0 44 17 63 0 z m 69 763 b 63 771 65 763 63 767 b 97 839 60 786 78 838 b 108 832 103 839 108 836 b 69 763 107 821 81 763 z m 85 82 b 68 181 71 82 68 169 b 79 265 68 190 68 265 b 99 215 96 265 99 231 b 85 82 99 176 103 82 z m 108 42 b 96 31 108 35 101 31 b 85 42 89 31 85 35 b 99 57 85 50 89 57 b 108 42 103 57 108 50 z "},"M":{"ha":683,"x_min":0,"x_max":0,"o":"m 569 0 b 660 122 622 0 660 61 l 660 667 b 551 856 660 710 650 856 b 344 576 481 856 379 629 b 333 568 342 571 338 568 b 319 576 329 568 324 571 b 104 856 286 614 194 856 b 53 819 82 856 64 838 b 31 621 29 781 31 693 l 31 117 b 79 0 31 31 51 0 b 171 122 129 0 171 39 l 171 532 b 178 563 171 544 172 563 b 188 553 181 563 183 560 b 331 372 221 500 286 372 b 493 569 386 372 465 569 b 507 536 504 569 507 549 l 503 128 b 569 0 503 86 503 0 z m 65 714 b 53 704 65 708 58 704 b 47 739 46 706 46 725 b 94 833 49 771 72 835 b 104 824 99 833 108 829 b 65 714 82 789 68 743 z m 564 31 b 560 24 564 26 563 24 b 521 110 536 24 521 90 b 531 126 521 117 524 126 b 546 107 543 126 546 115 b 564 31 546 74 564 50 z m 83 26 b 76 17 83 22 81 17 b 50 89 50 17 42 89 b 83 26 64 89 83 39 z "},"N":{"ha":610,"x_min":0,"x_max":0,"o":"m 100 0 b 175 201 153 0 175 57 l 175 422 b 185 515 175 486 178 515 b 204 485 190 515 196 506 b 435 57 267 336 418 83 b 522 0 451 31 486 0 b 576 157 564 0 576 65 l 576 781 b 508 856 576 810 578 856 b 429 749 438 856 429 808 l 429 407 b 419 382 429 390 425 382 b 392 417 411 382 401 396 b 221 768 329 546 286 639 b 93 856 186 838 142 856 b 26 782 61 856 26 832 l 26 143 b 100 0 26 79 36 0 z m 472 760 b 460 736 467 740 461 736 b 483 838 440 739 463 840 b 490 817 489 836 500 829 b 472 760 481 804 478 775 z m 61 756 b 49 719 58 732 56 719 b 53 807 38 719 43 783 b 76 833 63 831 71 833 b 76 814 82 833 82 825 b 61 756 71 801 64 774 z m 61 681 b 51 668 61 674 57 668 b 44 681 46 668 44 674 b 54 690 44 682 47 690 b 61 681 60 690 61 683 z m 96 32 b 89 25 96 29 92 25 b 54 99 75 25 54 63 b 61 118 54 113 57 118 b 68 103 65 118 68 114 b 96 32 68 61 96 39 z "},"O":{"ha":617,"x_min":0,"x_max":0,"o":"m 321 -12 b 603 404 517 -12 603 200 b 322 868 603 650 517 868 b 22 411 107 868 22 618 b 321 -12 22 204 118 -12 z m 110 650 b 104 657 107 650 104 654 b 238 824 104 701 193 824 b 244 818 243 822 244 821 b 160 724 244 810 200 776 b 110 650 140 699 119 649 z m 321 99 b 181 411 196 99 181 321 b 322 740 181 500 206 740 b 454 415 442 740 454 547 b 321 99 454 283 431 99 z m 111 619 b 94 600 111 606 100 600 b 83 613 89 600 83 604 b 101 633 83 626 96 633 b 111 619 107 632 111 625 z "},"P":{"ha":550,"x_min":0,"x_max":0,"o":"m 99 0 b 182 90 136 0 182 25 l 182 183 b 218 207 182 200 201 207 l 258 207 b 529 551 368 207 529 332 b 249 856 529 771 363 856 l 167 856 b 24 731 92 856 24 810 l 24 96 b 99 0 24 24 61 0 z m 225 331 b 182 363 197 331 182 342 l 182 692 b 217 739 182 722 194 739 l 247 739 b 371 535 304 739 371 694 b 243 331 371 386 304 331 z m 79 49 b 86 36 83 44 86 40 b 75 28 86 32 79 28 b 42 106 57 28 42 61 b 53 146 42 128 44 146 b 63 111 58 146 63 132 b 79 49 63 85 69 58 z "},"Q":{"ha":631,"x_min":0,"x_max":0,"o":"m 608 404 b 328 868 608 589 567 868 b 28 411 113 868 28 586 b 326 -12 28 238 118 -12 b 379 -12 344 -12 361 -12 l 486 -14 b 539 -14 504 -14 521 -14 b 613 28 586 -14 613 -26 b 588 82 613 47 614 82 b 506 89 578 82 506 78 b 608 404 506 111 608 199 z m 121 671 b 115 676 117 671 115 675 b 161 763 117 690 129 721 b 261 836 189 797 236 839 b 267 829 265 836 267 833 b 175 742 265 822 217 792 b 121 671 153 717 131 669 z m 326 99 b 186 411 201 99 186 321 b 328 740 186 500 211 740 b 460 415 447 740 460 547 b 326 99 460 322 461 99 z m 119 639 b 101 622 118 626 107 621 b 92 635 96 622 90 626 b 111 654 93 649 106 654 b 119 639 115 654 119 646 z "},"R":{"ha":507,"x_min":0,"x_max":0,"o":"m 435 0 b 507 56 468 0 507 18 b 336 350 507 181 413 274 b 329 363 331 356 329 360 b 338 374 329 368 333 372 b 478 618 399 396 478 476 b 233 856 478 785 356 856 l 118 856 b 26 732 36 856 26 828 l 26 96 b 96 0 26 64 39 0 b 179 94 149 0 179 38 l 179 289 b 197 326 179 311 188 326 l 211 326 b 367 61 258 326 342 111 b 435 0 379 36 393 0 z m 240 460 l 210 460 b 185 478 193 460 185 465 l 185 699 b 211 732 185 726 188 733 l 244 731 b 340 618 317 728 340 690 b 240 460 340 528 296 460 z m 93 38 b 82 24 93 28 86 24 b 44 108 58 24 44 93 b 54 133 44 125 50 133 b 79 54 65 133 64 90 b 93 38 83 44 93 47 z m 431 28 b 418 19 431 24 425 19 b 375 83 393 18 376 58 b 383 132 374 108 376 131 b 394 100 388 132 394 115 b 411 49 396 82 407 56 b 431 28 415 42 429 33 z "},"S":{"ha":496,"x_min":0,"x_max":0,"o":"m 243 -12 b 474 210 378 -12 474 79 b 314 468 474 281 435 344 b 188 671 215 569 188 614 b 246 738 188 717 206 738 b 311 679 286 738 310 717 b 367 628 313 647 344 628 b 451 738 414 628 451 682 b 251 867 451 799 347 867 b 31 663 115 867 31 789 b 215 374 31 588 82 507 b 318 196 265 324 318 275 b 229 106 318 136 288 106 b 149 203 172 106 149 135 b 104 272 149 251 136 271 b 17 176 54 275 17 233 b 243 -12 17 79 128 -12 z m 111 754 b 88 719 100 736 97 718 b 79 728 82 719 79 722 b 161 824 82 760 138 826 b 147 799 167 824 161 808 b 111 754 133 788 118 767 z m 89 692 b 79 682 88 686 83 682 b 69 690 72 683 69 686 b 81 701 69 694 75 701 b 89 692 85 701 89 697 z m 68 179 b 58 132 58 154 68 132 b 47 146 54 132 50 139 b 88 242 33 190 57 244 b 92 235 92 242 92 239 b 68 179 90 219 78 204 z "},"T":{"ha":449,"x_min":0,"x_max":0,"o":"m 225 0 b 308 65 263 0 308 22 l 308 729 l 319 729 b 440 797 368 729 440 732 b 394 856 440 824 424 856 l 75 856 b 7 792 36 856 7 832 b 151 729 7 724 106 729 l 151 56 b 225 0 151 22 196 0 z m 39 768 b 26 790 29 768 26 783 b 56 838 26 811 39 838 b 63 831 61 838 65 835 b 46 778 51 814 46 793 b 39 768 46 772 42 768 z m 199 32 b 168 94 175 32 168 78 b 183 139 168 103 169 139 b 190 90 197 139 190 99 b 206 51 190 82 194 54 b 211 44 210 50 211 49 b 199 32 211 36 207 32 z "},"U":{"ha":588,"x_min":0,"x_max":0,"o":"m 289 -6 b 567 342 472 -6 567 132 l 567 739 b 479 858 567 822 536 858 b 410 738 421 858 410 775 l 410 394 b 294 126 410 282 417 126 b 176 317 165 126 176 226 l 176 733 b 92 856 176 833 153 856 b 18 736 31 856 18 774 l 18 307 b 289 -6 18 121 121 -6 z m 449 772 b 439 756 449 763 449 756 b 429 775 431 756 429 765 b 443 817 431 792 439 808 b 467 838 449 826 458 838 b 467 811 483 838 482 831 b 449 772 454 797 449 779 z m 76 792 b 47 743 67 765 56 743 b 65 819 36 743 38 781 b 93 838 75 833 88 838 b 97 831 96 838 97 835 b 76 792 97 818 83 808 z m 172 67 b 164 58 172 61 169 58 b 63 185 126 58 64 154 b 68 194 63 192 64 194 b 90 169 72 194 82 188 b 140 100 103 142 126 115 b 172 67 156 83 172 72 z m 204 54 b 192 42 204 47 199 42 b 181 51 183 40 182 46 b 193 64 181 56 185 63 b 204 54 199 64 204 56 z "},"V":{"ha":600,"x_min":0,"x_max":0,"o":"m 304 -7 b 385 38 346 -7 374 17 b 586 821 425 111 586 753 b 513 857 586 843 525 857 b 483 843 501 857 490 853 b 321 203 449 796 358 335 b 306 175 317 186 313 175 b 293 203 301 175 297 189 b 161 754 286 226 189 624 b 101 856 144 829 129 856 b 14 793 63 856 14 847 b 186 72 14 676 100 342 b 304 -7 197 39 219 -7 z m 499 790 b 483 756 489 764 492 758 b 475 767 481 756 476 760 b 504 835 472 786 488 832 b 499 790 514 836 507 814 z m 53 772 b 46 740 54 750 51 740 b 35 758 40 739 36 744 b 54 833 32 794 39 832 b 56 813 63 835 64 829 b 53 772 50 803 51 786 z m 242 64 b 278 18 261 38 286 19 b 226 50 274 18 242 25 b 211 119 211 75 200 119 b 242 64 222 119 224 86 z "},"W":{"ha":804,"x_min":0,"x_max":0,"o":"m 544 0 b 782 306 696 0 782 150 l 782 771 b 697 856 782 819 756 856 b 628 771 640 856 628 811 l 628 332 b 546 131 628 196 600 131 b 488 203 522 131 504 150 b 469 632 469 257 469 340 b 401 843 469 817 451 843 b 332 686 346 843 332 804 b 239 132 332 406 325 132 b 178 268 189 132 178 232 l 176 754 b 106 856 176 813 160 856 b 21 747 40 856 21 783 l 21 254 b 236 0 21 107 86 0 b 374 135 310 0 338 39 b 388 171 381 156 383 171 b 403 121 394 171 399 135 b 544 0 428 46 458 0 z m 56 738 b 46 754 47 738 46 747 b 100 838 46 783 76 838 b 110 826 106 838 110 831 b 74 764 99 804 78 789 b 56 738 72 756 68 738 z m 674 763 b 665 746 674 754 669 746 b 657 810 650 746 647 781 b 688 833 664 828 679 833 b 688 808 693 833 696 824 b 674 763 681 796 674 781 z m 369 754 b 363 739 369 742 365 739 b 365 807 349 739 344 779 b 390 822 374 819 386 822 b 379 790 396 822 392 814 b 369 754 374 779 369 756 z m 163 51 b 156 40 163 44 160 40 b 133 47 151 39 140 42 b 82 138 86 79 67 136 b 117 93 90 139 97 114 b 163 51 128 81 161 60 z m 532 31 b 517 24 531 22 524 24 b 446 96 475 26 444 88 b 450 103 446 100 449 103 b 475 79 457 101 465 94 b 518 39 486 61 508 40 b 532 31 524 39 532 38 z "},"X":{"ha":589,"x_min":0,"x_max":0,"o":"m 58 -4 b 139 47 89 -4 115 8 l 268 258 b 296 296 285 286 289 296 b 321 263 303 296 311 279 l 464 15 b 497 0 471 3 488 0 b 586 60 554 0 596 43 l 415 368 b 378 439 389 415 378 432 b 400 490 378 446 385 463 l 557 779 b 486 856 586 833 511 856 b 451 836 474 856 458 850 l 319 597 b 300 567 308 576 304 567 b 279 597 296 567 290 579 l 171 781 b 97 856 133 844 121 856 b 19 797 47 856 19 824 b 39 731 19 769 29 747 l 194 465 b 213 422 204 450 213 433 b 190 368 213 413 206 394 l 11 60 b 6 40 7 53 6 46 b 58 -4 6 19 31 -4 z m 478 800 b 469 793 478 796 474 793 b 469 821 464 793 458 801 b 500 839 478 836 492 839 b 493 824 507 839 503 833 b 478 800 483 814 478 806 z m 63 782 b 60 749 63 772 68 751 b 49 756 56 747 53 749 b 64 828 35 782 47 828 b 76 817 69 828 74 826 b 63 782 78 810 63 804 z m 507 18 b 493 14 507 13 499 14 b 450 78 471 17 449 64 b 457 86 450 83 454 86 b 492 38 464 86 479 44 b 507 18 503 31 508 21 z m 46 28 b 36 18 51 17 43 15 b 25 60 26 22 18 46 b 33 57 31 71 36 71 b 46 28 31 47 43 35 z "},"Y":{"ha":579,"x_min":0,"x_max":0,"o":"m 289 0 b 368 72 322 0 368 15 l 368 242 b 394 390 368 322 368 333 l 568 767 b 510 856 582 797 557 856 b 465 833 497 856 474 853 l 326 524 b 292 475 314 494 303 475 b 258 524 281 475 267 503 l 129 826 b 86 856 119 849 103 856 b 7 772 26 856 -6 799 l 172 408 b 215 265 206 335 215 314 l 215 72 b 289 0 215 38 240 0 z m 50 765 b 47 746 53 758 54 749 b 31 758 42 744 35 750 b 38 815 25 772 17 807 b 47 799 42 817 46 807 b 50 765 49 789 46 779 z m 267 46 b 267 29 271 38 274 29 b 236 113 250 29 233 54 b 244 135 238 129 243 135 b 251 103 247 135 250 126 b 267 46 254 71 264 53 z "},"Z":{"ha":493,"x_min":0,"x_max":0,"o":"m 108 0 l 446 0 b 483 49 461 0 483 22 b 429 119 483 90 465 119 l 224 121 b 185 139 197 121 185 125 b 219 219 185 153 197 178 l 461 678 b 482 761 475 706 482 733 b 425 856 482 804 469 856 l 83 858 b 17 790 49 858 17 844 b 58 740 17 763 35 740 l 306 738 b 321 729 317 738 319 735 b 317 713 321 725 319 718 l 28 142 b 13 76 14 114 13 94 b 108 0 13 18 67 0 z m 58 797 b 46 767 57 793 53 768 b 38 778 42 767 38 774 b 58 836 35 800 39 833 b 71 826 63 836 71 829 b 58 797 72 821 63 804 z m 49 68 b 36 99 40 68 35 83 b 78 168 38 111 60 167 b 83 163 81 168 83 164 b 49 68 82 143 63 67 z m 69 38 b 57 26 69 32 63 26 b 50 35 54 26 50 31 b 63 47 50 42 54 47 b 69 38 68 47 69 43 z "},"a":{"ha":567,"x_min":0,"x_max":0,"o":"m 219 -11 b 392 158 349 -11 375 158 b 399 122 396 158 399 146 b 474 -11 399 44 429 -11 b 540 99 513 -11 540 33 b 532 283 540 133 532 208 l 532 822 b 469 867 532 847 504 867 b 401 786 400 867 413 786 b 256 863 390 786 361 868 b 22 404 108 854 22 686 b 219 -11 22 144 96 -11 z m 433 774 b 424 799 428 774 424 785 b 453 849 424 828 443 849 b 458 842 456 849 458 847 b 446 801 458 833 451 819 b 433 774 443 789 440 774 z m 253 125 b 171 425 211 125 171 274 b 282 735 171 594 221 735 b 379 508 333 735 379 631 b 253 125 379 351 304 125 z m 153 46 b 97 124 138 46 111 86 b 94 189 85 160 86 189 b 115 135 106 189 110 150 b 164 60 124 106 161 69 b 153 46 165 54 160 46 z m 471 31 b 457 18 471 25 464 18 b 419 86 440 18 419 57 b 429 103 419 97 422 103 b 439 88 439 103 439 88 b 471 31 439 60 471 43 z m 188 24 b 176 42 182 24 176 33 b 193 58 176 51 183 58 b 188 24 215 58 200 24 z "},"b":{"ha":554,"x_min":0,"x_max":0,"o":"m 92 0 l 272 0 b 535 225 394 0 535 76 b 310 424 535 460 310 411 b 518 640 310 436 518 415 b 313 860 518 765 433 860 b 107 856 218 860 142 856 b 24 738 44 856 24 817 l 24 143 b 92 0 24 35 40 0 z m 74 743 b 58 721 74 731 64 721 b 43 757 49 721 43 736 b 111 840 43 803 75 840 b 131 831 121 840 131 836 b 114 818 131 828 125 818 b 67 767 90 819 67 790 b 74 743 67 751 74 743 z m 200 494 b 174 539 186 494 174 514 l 174 683 b 203 731 174 701 171 731 l 276 731 b 360 633 335 731 360 689 b 250 494 360 554 313 494 z m 213 126 b 174 176 178 126 174 132 l 174 290 b 200 346 174 325 185 346 l 243 346 b 376 240 322 346 376 322 b 260 126 376 158 326 126 z m 60 101 b 47 206 49 101 47 126 b 57 264 47 260 53 264 b 68 206 63 264 68 258 b 60 101 68 189 68 101 z m 60 82 b 69 67 69 82 69 79 b 61 49 69 57 65 49 b 49 67 56 49 49 51 b 60 82 49 75 53 82 z "},"c":{"ha":536,"x_min":0,"x_max":0,"o":"m 294 -14 b 518 201 424 -14 518 88 b 447 289 518 249 492 289 b 385 207 403 289 385 250 b 310 122 385 165 350 122 b 181 403 225 122 181 228 b 314 733 181 597 238 733 b 388 622 361 733 388 683 b 460 474 388 558 360 474 b 517 553 497 474 514 501 b 310 865 528 753 447 865 b 15 406 138 865 15 668 b 294 -14 15 157 125 -14 z m 110 667 b 103 672 108 665 104 665 b 239 824 100 714 176 819 b 257 813 249 825 257 819 b 239 800 258 807 249 801 b 110 667 183 794 122 667 z m 92 653 b 99 646 96 654 97 650 b 83 611 101 633 93 611 b 78 622 81 610 79 615 b 92 653 76 636 83 651 z "},"d":{"ha":569,"x_min":0,"x_max":0,"o":"m 92 0 l 213 0 b 553 417 447 0 553 156 b 311 865 553 674 450 865 b 167 767 213 865 182 767 b 163 794 161 767 163 785 b 99 856 163 833 139 856 b 24 738 46 856 24 819 l 24 143 b 92 0 24 35 40 0 z m 74 731 b 58 708 74 718 64 708 b 43 744 49 708 43 724 b 93 825 43 790 68 825 b 107 818 103 825 107 824 b 67 754 107 810 67 789 b 74 731 67 739 74 731 z m 260 126 l 221 126 b 182 176 186 126 182 132 l 182 610 b 278 731 182 683 233 731 b 393 413 350 731 393 593 b 260 126 393 236 342 126 z m 60 101 b 47 206 49 101 47 126 b 57 264 47 260 53 264 b 68 206 63 264 68 258 b 60 101 68 189 68 101 z m 60 82 b 69 67 69 82 69 79 b 61 49 69 57 65 49 b 49 67 56 49 49 51 b 60 82 49 75 53 82 z "},"e":{"ha":544,"x_min":0,"x_max":0,"o":"m 292 -14 b 518 193 415 -14 518 81 b 449 289 518 251 490 289 b 385 215 411 289 385 260 b 300 122 385 163 347 122 b 189 296 235 122 189 178 b 213 315 189 311 194 315 b 521 625 381 315 513 464 b 313 865 528 763 439 865 b 15 406 140 865 15 672 b 292 -14 15 154 126 -14 z m 111 663 b 104 668 110 661 106 661 b 240 819 101 710 178 815 b 258 808 250 821 258 815 b 240 796 260 803 250 797 b 111 663 185 790 124 663 z m 185 438 b 313 733 165 467 218 733 b 388 631 356 733 388 690 b 204 432 388 536 300 432 b 185 438 194 432 188 433 z m 93 649 b 100 642 97 650 99 646 b 85 607 103 629 94 607 b 79 618 82 606 81 611 b 93 649 78 632 85 647 z "},"f":{"ha":390,"x_min":0,"x_max":0,"o":"m 128 0 l 131 0 b 221 151 174 0 221 26 l 221 433 b 304 433 251 433 274 433 b 344 500 335 433 344 474 b 306 558 344 524 338 558 l 219 558 l 219 618 b 264 753 219 739 240 753 b 328 714 304 753 294 714 b 386 792 360 714 386 758 b 264 876 386 826 343 876 b 69 625 133 876 69 790 l 69 558 l 47 558 b 13 503 28 558 13 543 b 47 433 13 463 28 433 l 69 433 l 69 168 b 128 0 69 78 74 0 z m 107 654 b 99 682 99 654 99 674 b 185 832 99 740 144 832 b 189 821 188 832 193 824 b 118 694 154 788 125 746 b 107 654 117 689 118 654 z m 125 40 b 114 22 125 35 121 24 b 85 108 96 19 85 94 b 90 133 85 117 82 133 b 99 103 99 133 99 108 b 125 40 100 81 125 60 z "},"g":{"ha":615,"x_min":0,"x_max":0,"o":"m 307 -7 b 471 111 435 -7 458 111 b 533 0 482 111 469 0 b 597 151 576 0 599 26 b 596 344 597 233 596 279 b 492 467 596 428 540 467 l 318 468 b 257 411 276 468 257 440 b 293 338 257 389 271 338 l 379 338 b 464 311 421 338 463 340 b 338 114 467 240 421 114 b 183 436 203 114 183 328 b 360 750 183 633 263 750 b 450 667 381 750 450 750 b 504 599 450 613 478 599 b 585 667 528 599 585 607 b 351 868 585 829 450 868 b 19 456 114 868 19 664 b 307 -7 19 268 72 -7 z m 175 106 b 164 99 174 99 168 97 b 81 276 129 103 74 236 b 94 292 82 286 88 292 b 103 278 96 292 104 288 b 153 144 100 261 125 183 b 175 106 168 122 175 111 z m 540 35 b 529 19 540 29 539 19 b 499 79 511 19 499 60 b 508 104 499 88 500 104 b 517 78 517 104 517 83 b 540 35 518 56 540 49 z m 203 82 b 192 72 201 76 196 72 b 183 83 189 72 182 75 b 194 93 185 88 188 94 b 203 82 199 93 204 88 z "},"h":{"ha":544,"x_min":0,"x_max":0,"o":"m 438 0 b 524 126 499 0 524 76 l 524 746 b 431 856 524 801 492 856 b 368 750 378 856 368 790 l 368 511 b 353 485 368 499 369 489 l 194 443 b 176 471 178 439 176 458 l 176 750 b 100 850 176 796 153 850 b 21 753 49 850 21 799 l 21 146 b 104 0 21 88 26 0 b 176 146 167 0 176 100 l 176 301 b 201 324 176 319 185 319 l 350 367 b 368 331 369 372 368 344 l 368 128 b 438 0 368 81 374 0 z m 397 767 b 390 781 392 767 390 776 b 426 833 390 799 404 833 b 432 829 429 833 432 832 b 397 767 432 818 410 767 z m 79 42 l 71 38 b 43 119 49 38 43 103 b 51 143 43 125 44 143 b 61 119 61 143 61 126 b 79 42 61 69 75 65 z m 425 28 b 421 24 425 26 424 24 b 388 81 393 24 388 60 b 397 113 388 86 389 113 l 400 107 b 421 36 400 86 408 53 b 425 28 422 33 425 32 z "},"i":{"ha":217,"x_min":0,"x_max":0,"o":"m 106 776 b 193 863 154 776 193 814 b 108 940 193 908 158 940 b 25 856 58 940 25 906 b 106 776 25 808 58 776 z m 61 858 b 53 822 60 853 61 822 b 40 858 42 822 40 846 b 79 917 40 886 57 917 b 93 903 89 917 93 911 b 61 858 93 888 67 890 z m 104 -6 b 182 44 149 -6 182 15 l 182 660 b 104 746 182 696 158 746 b 35 653 50 746 35 688 l 35 44 b 104 -6 35 17 60 -6 z m 60 611 b 47 647 51 611 47 631 b 74 711 47 664 54 711 b 71 686 79 711 72 693 b 60 611 64 663 71 611 z "},"j":{"ha":217,"x_min":0,"x_max":0,"o":"m 106 776 b 193 863 154 776 193 814 b 108 940 193 908 158 940 b 25 856 58 940 25 906 b 106 776 25 808 58 776 z m 61 858 b 53 822 60 853 61 822 b 40 858 42 822 40 846 b 79 917 40 886 57 917 b 93 903 89 917 93 911 b 61 858 93 888 67 890 z m 182 114 l 182 660 b 104 746 182 696 158 746 b 35 653 50 746 35 688 l 35 114 b -10 -36 35 -1 19 -36 b -49 -29 -24 -36 -36 -29 b -82 -100 -75 -29 -82 -71 b -3 -176 -82 -151 -60 -176 b 182 114 140 -176 182 -60 z m 60 611 b 47 647 51 611 47 631 b 74 711 47 664 54 711 b 71 686 79 711 72 693 b 60 611 64 663 71 611 z m -21 -143 b -35 -154 -21 -151 -29 -154 b -65 -89 -49 -154 -65 -124 b -57 -60 -65 -75 -62 -60 b -44 -92 -50 -60 -44 -65 b -21 -143 -44 -108 -21 -121 z "},"k":{"ha":553,"x_min":0,"x_max":0,"o":"m 94 0 b 188 142 160 0 188 49 b 188 174 188 156 188 165 l 186 215 b 186 247 186 224 186 235 b 197 292 186 268 189 281 l 211 310 b 235 310 219 321 229 318 b 381 79 268 264 364 110 b 458 -1 403 40 432 -1 b 560 67 486 -1 560 19 b 325 450 560 121 325 425 b 529 788 325 467 529 742 b 444 856 529 835 479 856 b 194 497 382 856 217 497 b 189 763 182 497 189 736 b 108 856 189 818 150 856 b 26 696 35 856 26 794 b 26 558 26 650 26 604 l 28 283 b 28 146 28 238 28 192 b 94 0 28 94 18 0 z m 53 779 b 49 785 50 779 49 782 b 86 836 47 796 72 836 b 97 825 92 836 99 831 b 53 779 93 810 69 776 z m 408 775 b 399 783 403 776 400 779 b 444 835 396 793 432 839 b 450 829 446 835 450 833 b 408 775 453 815 421 774 z m 74 113 b 65 75 74 108 74 75 b 44 165 44 75 44 151 b 60 219 44 174 47 219 b 74 113 74 219 74 128 z m 463 29 b 454 21 463 25 458 21 b 418 69 438 21 418 57 b 424 82 418 74 419 82 b 463 29 436 82 463 40 z m 86 43 b 71 29 83 36 78 29 b 56 43 64 29 58 36 b 71 64 53 53 60 64 b 86 43 81 64 89 53 z "},"l":{"ha":267,"x_min":0,"x_max":0,"o":"m 125 0 l 186 0 b 247 65 224 0 247 18 b 204 131 247 100 232 131 l 189 131 b 171 190 172 131 171 153 l 171 786 b 99 858 171 811 153 858 b 25 782 44 858 25 822 l 25 157 b 125 0 25 65 31 0 z m 53 726 b 42 765 49 726 42 738 b 85 843 42 815 64 843 b 81 806 100 843 90 822 b 53 726 67 782 63 726 z "},"m":{"ha":811,"x_min":0,"x_max":0,"o":"m 93 0 b 168 63 133 0 168 28 l 168 371 b 269 725 168 439 169 725 b 336 482 343 725 336 524 l 336 53 b 397 0 336 8 353 0 b 476 43 442 0 476 17 b 481 463 476 75 469 281 b 569 724 489 617 503 724 b 640 482 647 724 640 526 l 640 36 b 699 0 640 8 663 0 b 779 38 735 0 779 13 l 779 494 b 594 861 779 703 746 861 b 446 726 476 861 458 726 b 306 861 433 726 408 861 b 164 725 185 861 172 725 b 90 856 156 725 165 856 b 31 753 31 856 31 793 l 31 90 b 93 0 31 43 36 0 z m 64 725 b 47 764 50 724 47 750 b 78 833 47 775 51 833 b 74 767 93 833 74 793 b 64 725 74 751 75 726 z m 385 32 b 372 15 385 22 379 15 b 349 69 354 15 349 47 b 356 117 349 75 347 117 b 367 71 368 117 367 78 b 385 32 367 50 385 50 z m 685 33 b 674 18 685 29 681 18 b 651 82 656 18 651 69 b 660 117 651 88 651 117 b 669 83 671 117 669 90 b 685 33 669 63 685 51 z m 90 33 b 78 19 90 25 86 19 b 51 71 60 19 51 57 b 60 107 51 83 51 107 b 71 61 72 107 65 68 b 90 33 81 49 90 53 z "},"n":{"ha":543,"x_min":0,"x_max":0,"o":"m 93 0 b 181 63 118 0 181 7 l 181 371 b 293 711 181 558 214 711 b 364 482 343 711 364 674 l 364 47 b 435 0 364 26 385 0 b 513 43 485 0 513 15 l 513 494 b 343 861 513 750 461 861 b 179 718 208 861 193 718 b 174 774 175 718 174 736 l 174 793 b 97 856 174 842 132 856 b 31 753 43 856 31 833 l 31 90 b 93 0 31 24 47 0 z m 58 715 b 47 760 51 715 47 746 b 72 838 47 772 53 838 b 76 826 75 838 76 831 b 58 715 76 824 68 715 z m 415 40 b 403 21 415 28 408 21 b 375 82 389 21 375 44 b 386 117 375 100 378 117 b 397 83 394 117 397 113 b 415 40 397 56 415 63 z m 92 36 b 81 17 92 25 85 17 b 51 71 65 17 51 43 b 60 107 51 92 56 107 b 69 78 65 107 69 96 b 92 36 69 51 92 53 z "},"o":{"ha":544,"x_min":0,"x_max":0,"o":"m 274 -10 b 524 426 468 -10 524 203 b 274 865 524 650 469 865 b 21 414 78 865 21 618 b 274 -10 21 210 79 -10 z m 118 701 b 100 671 110 681 103 671 b 93 682 94 671 93 674 b 165 801 93 717 144 801 b 172 779 169 801 183 789 b 118 701 150 761 126 722 z m 274 78 b 168 426 186 78 168 310 b 274 779 168 501 183 779 b 383 428 363 779 383 508 b 274 78 383 311 365 78 z m 99 640 b 86 618 99 625 89 618 b 72 638 81 618 72 622 b 86 661 72 649 78 661 b 99 640 94 661 99 658 z "},"p":{"ha":539,"x_min":0,"x_max":0,"o":"m 24 96 b 99 0 24 24 61 0 b 182 90 136 0 182 25 l 182 131 b 210 207 182 165 182 207 l 272 208 b 518 563 425 211 518 349 b 313 865 518 746 433 865 b 171 767 213 865 182 767 b 163 814 165 767 163 785 b 107 856 163 831 142 856 b 24 738 44 856 24 817 z m 74 743 b 58 721 74 731 64 721 b 43 757 49 721 43 736 b 93 838 43 803 68 838 b 107 831 103 838 107 836 b 67 767 107 822 67 801 b 74 743 67 751 74 743 z m 208 335 b 182 379 194 335 182 354 l 182 618 b 285 731 182 672 218 731 b 358 556 335 731 358 667 b 250 335 358 422 313 335 z m 79 49 b 86 36 83 44 86 40 b 75 28 86 32 79 28 b 42 106 57 28 42 61 b 53 146 42 128 44 146 b 63 111 58 146 63 132 b 79 49 63 85 69 58 z "},"q":{"ha":544,"x_min":0,"x_max":0,"o":"m 342 0 b 524 426 472 61 524 232 b 274 865 524 650 469 865 b 21 414 78 865 21 618 b 218 -3 21 231 72 56 b 225 -31 224 -6 225 -15 b 224 -104 225 -54 224 -78 b 282 -172 224 -137 236 -172 b 342 -115 328 -172 342 -137 b 342 0 342 -67 329 -6 z m 118 701 b 100 671 110 681 103 671 b 93 682 94 671 93 674 b 165 801 93 717 144 801 b 172 779 169 801 183 789 b 118 701 150 761 126 722 z m 274 78 b 168 426 186 78 168 310 b 274 779 168 501 183 779 b 383 428 363 779 383 508 b 274 78 383 311 365 78 z m 99 640 b 86 618 99 625 89 618 b 72 638 81 618 72 622 b 86 661 72 649 78 661 b 99 640 94 661 99 658 z m 289 -135 b 274 -151 289 -147 281 -151 b 243 -97 254 -151 243 -115 b 250 -69 243 -76 246 -69 b 263 -94 257 -69 263 -76 b 289 -135 263 -112 289 -111 z "},"r":{"ha":361,"x_min":0,"x_max":0,"o":"m 82 0 b 168 76 122 0 168 21 l 168 454 b 300 722 168 569 225 722 b 351 799 338 722 351 763 b 290 858 351 833 328 858 b 167 742 207 858 176 767 b 160 728 164 735 164 728 b 156 758 154 728 156 739 b 86 858 156 822 128 858 b 19 728 38 858 19 828 l 19 89 b 82 0 19 33 36 0 z m 57 800 b 47 763 56 793 56 763 b 38 792 43 763 38 772 b 58 836 38 811 50 836 b 57 800 72 836 60 814 z m 57 69 b 71 35 61 51 71 40 b 61 25 71 25 65 25 b 38 89 49 25 38 56 b 44 113 38 103 40 113 b 57 69 50 113 51 92 z "},"s":{"ha":500,"x_min":0,"x_max":0,"o":"m 243 -12 b 474 210 378 -12 474 79 b 314 468 474 281 435 344 b 188 671 215 569 188 614 b 246 738 188 717 206 738 b 324 579 286 738 324 688 b 379 528 324 547 357 528 b 464 638 426 528 464 582 b 251 867 464 742 376 867 b 31 663 115 867 31 789 b 215 374 31 588 82 507 b 318 196 265 324 318 275 b 229 106 318 136 288 106 b 136 288 172 106 136 219 b 92 357 136 336 124 356 b 4 261 42 360 4 318 b 243 -12 4 89 128 -12 z m 111 754 b 88 719 100 736 97 718 b 79 728 82 719 79 722 b 161 824 82 760 138 826 b 147 799 167 824 161 808 b 111 754 133 788 118 767 z m 89 692 b 79 682 88 686 83 682 b 69 690 72 683 69 686 b 81 701 69 694 75 701 b 89 692 85 701 89 697 z m 56 264 b 46 217 46 239 56 217 b 35 231 42 217 38 224 b 75 326 21 275 44 329 b 79 319 79 326 79 324 b 56 264 78 304 65 289 z "},"t":{"ha":324,"x_min":0,"x_max":0,"o":"m 203 0 b 311 64 301 0 311 36 b 260 128 311 100 299 128 l 238 124 b 226 124 233 124 231 124 b 204 264 207 124 204 163 l 204 525 l 253 525 b 293 588 282 525 293 551 b 247 631 293 614 281 631 l 204 631 l 204 763 b 128 858 204 832 169 858 b 61 767 86 858 61 836 l 61 631 l 46 631 b 3 579 13 631 3 611 b 46 525 3 547 18 525 l 61 525 l 61 286 b 203 0 61 142 61 0 z m 97 796 b 85 756 93 783 92 756 b 78 785 81 756 78 764 b 107 839 78 800 89 839 b 97 796 122 839 104 815 z m 31 589 b 29 547 31 572 38 547 b 15 578 19 547 15 565 b 32 614 15 597 22 614 b 31 589 35 614 31 599 z m 138 69 b 125 54 138 64 131 54 b 86 132 106 54 86 117 b 96 163 86 142 85 163 b 113 139 101 163 111 154 b 138 69 114 113 138 76 z "},"u":{"ha":535,"x_min":0,"x_max":0,"o":"m 433 0 b 514 104 474 0 514 15 l 514 753 b 432 857 514 832 474 857 b 367 769 389 857 367 828 l 367 326 b 235 135 367 249 301 135 b 167 242 194 135 167 179 l 167 786 b 85 857 167 826 125 857 b 18 790 47 857 18 833 l 18 228 b 213 0 18 86 93 0 b 353 90 282 0 328 57 b 375 117 365 106 369 117 b 381 82 379 117 381 106 b 433 0 381 36 394 0 z m 415 817 b 390 774 400 801 397 774 b 381 788 385 774 381 775 b 411 840 381 808 397 840 b 415 817 422 840 431 832 z m 74 829 b 40 775 74 819 51 775 b 33 789 38 775 33 781 b 68 839 33 810 58 839 b 74 829 69 839 74 838 z m 132 72 b 121 56 132 63 126 56 b 57 143 100 56 57 117 b 68 161 57 154 60 161 b 86 128 75 161 79 147 b 132 72 97 94 133 92 z m 417 72 b 426 17 418 47 435 17 b 400 76 414 17 400 53 b 410 106 400 92 403 106 b 417 72 417 106 415 90 z "},"v":{"ha":493,"x_min":0,"x_max":0,"o":"m 260 -3 b 357 56 286 -3 342 8 b 486 813 390 160 486 776 b 410 857 486 842 432 857 b 367 808 392 857 374 840 b 296 343 347 725 314 458 b 257 132 278 217 263 132 b 171 790 233 132 179 738 b 79 858 163 843 118 858 b 11 788 40 858 11 826 b 136 40 11 682 104 97 b 260 -3 153 8 196 -3 z m 404 811 b 388 763 404 803 396 763 b 382 783 383 763 382 775 b 399 829 382 803 390 829 b 404 811 401 829 404 821 z m 56 804 b 36 725 44 789 46 725 b 29 757 32 725 29 735 b 50 828 29 794 39 828 b 56 804 57 828 65 818 z m 174 56 b 168 32 182 42 176 32 b 140 99 153 32 140 88 b 146 115 140 104 140 115 b 174 56 157 115 160 78 z "},"w":{"ha":789,"x_min":0,"x_max":0,"o":"m 246 -3 b 340 56 272 -3 325 8 b 396 407 353 93 382 407 b 449 40 406 407 435 64 b 572 -3 467 8 508 -3 b 669 56 599 -3 654 8 b 788 813 703 160 788 776 b 711 857 788 842 733 857 b 668 808 693 857 675 840 b 569 122 657 758 575 122 b 494 790 546 122 503 738 b 408 858 486 843 447 858 b 342 808 371 858 351 851 b 243 126 331 758 249 126 b 163 790 219 126 171 738 b 78 858 154 843 117 858 b 10 788 39 858 10 826 b 122 40 10 682 90 97 b 246 -3 139 8 182 -3 z m 706 811 b 689 763 706 803 697 763 b 683 783 685 763 683 775 b 700 829 683 803 692 829 b 706 811 703 829 706 821 z m 379 811 b 363 763 379 803 371 763 b 357 783 358 763 357 775 b 374 829 357 803 365 829 b 379 811 376 829 379 821 z m 54 804 b 35 725 43 789 44 725 b 28 757 31 725 28 735 b 49 828 28 794 38 828 b 54 804 56 828 64 818 z m 486 56 b 481 32 494 42 489 32 b 453 99 465 32 453 88 b 458 115 453 104 453 115 b 486 56 469 115 472 78 z m 160 56 b 154 32 168 42 163 32 b 126 99 139 32 126 88 b 132 115 126 104 126 115 b 160 56 143 115 146 78 z "},"x":{"ha":578,"x_min":0,"x_max":0,"o":"m 58 -4 b 139 47 89 -4 118 8 l 263 275 b 290 313 278 303 283 313 b 315 279 297 313 306 296 l 464 15 b 497 0 471 3 488 0 b 586 60 554 0 594 43 l 406 392 b 368 463 379 439 368 456 b 390 514 368 469 374 486 l 557 779 b 486 856 590 833 511 856 b 451 836 474 856 460 850 l 310 610 b 290 579 296 589 294 579 b 269 610 286 579 281 592 l 171 781 b 97 856 133 844 121 856 b 19 797 47 856 19 824 b 39 731 19 769 29 747 l 185 489 b 203 446 194 474 203 457 b 181 392 203 436 194 418 l 11 60 b 6 40 7 53 6 46 b 58 -4 6 19 31 -4 z m 468 789 b 457 781 468 783 463 781 b 457 815 449 781 442 790 b 497 839 468 835 486 839 b 489 819 507 839 501 832 b 468 789 475 807 468 796 z m 63 782 b 60 749 63 772 68 751 b 49 756 56 747 53 749 b 64 828 35 782 47 828 b 76 817 69 828 74 826 b 63 782 78 810 63 804 z m 507 18 b 493 14 507 13 499 14 b 450 78 471 17 449 64 b 457 86 450 83 454 86 b 492 38 464 86 479 44 b 507 18 503 31 508 21 z m 69 26 b 51 17 79 14 65 14 b 31 60 33 21 18 46 b 47 57 42 71 53 71 b 69 26 43 47 64 32 z "},"y":{"ha":532,"x_min":0,"x_max":0,"o":"m 261 -8 b 511 244 415 -8 511 82 l 511 760 b 426 863 511 839 456 863 b 360 776 388 863 360 835 l 360 628 b 228 410 360 518 294 410 b 160 561 188 410 160 424 l 160 793 b 74 860 160 833 128 860 b 11 797 32 860 11 831 l 11 575 b 206 275 11 339 117 275 b 360 385 313 275 358 385 b 363 329 363 385 363 350 l 363 268 b 261 110 363 161 336 110 b 168 188 211 110 168 138 b 114 229 168 214 142 229 b 67 153 86 229 67 196 b 261 -8 67 57 153 -8 z m 65 832 b 35 775 56 824 46 775 b 28 793 32 775 28 778 b 60 849 28 803 40 849 b 65 832 67 849 72 838 z m 400 811 b 385 774 390 796 392 774 b 375 789 381 774 375 782 b 413 849 375 810 397 849 b 400 811 424 849 410 826 z m 96 376 b 110 353 101 371 110 361 b 100 339 110 343 103 339 b 53 425 88 339 53 403 b 60 451 53 440 53 451 b 71 417 63 451 64 436 b 96 376 76 403 85 388 z m 89 111 b 83 146 85 111 83 126 b 113 213 83 175 99 213 b 113 181 122 213 115 186 b 89 111 97 149 107 111 z "},"z":{"ha":501,"x_min":0,"x_max":0,"o":"m 108 0 l 446 0 b 483 49 461 0 483 22 b 429 119 483 90 465 119 l 224 121 b 185 139 197 121 185 125 b 219 219 185 153 197 178 l 296 364 l 399 364 b 439 426 428 364 439 390 b 393 469 439 453 426 469 l 351 469 l 461 678 b 482 761 475 706 482 733 b 425 856 482 804 469 856 l 83 858 b 17 790 49 858 17 844 b 58 740 17 763 35 740 l 306 738 b 321 729 317 738 319 735 b 317 713 321 725 319 718 l 193 469 l 107 469 b 64 418 74 469 64 450 b 107 364 64 386 79 364 l 140 364 l 28 142 b 13 76 14 114 13 94 b 108 0 13 18 67 0 z m 58 797 b 46 767 57 793 53 768 b 38 778 42 767 38 774 b 58 836 35 800 39 833 b 71 826 63 836 71 829 b 58 797 72 821 63 804 z m 96 425 b 90 386 96 408 99 386 b 76 417 81 386 76 404 b 97 453 76 436 88 453 b 96 425 106 453 96 435 z m 49 68 b 36 99 40 68 35 83 b 78 168 38 111 60 167 b 83 163 81 168 83 164 b 49 68 82 143 63 67 z m 69 38 b 57 26 69 32 63 26 b 50 35 54 26 50 31 b 63 47 50 42 54 47 b 69 38 68 47 69 43 z "},"%":{"ha":669,"x_min":0,"x_max":0,"o":"m 146 -8 b 203 31 163 -8 183 0 b 547 708 219 56 471 546 b 532 860 569 756 596 860 b 436 772 508 860 475 846 b 239 389 397 700 339 578 b 86 32 110 146 86 57 b 146 -8 86 8 129 -8 z m 154 546 b 276 718 219 546 276 619 b 151 858 276 817 228 858 b 24 708 72 858 24 778 b 154 546 24 621 69 546 z m 154 639 b 117 711 131 639 117 679 b 154 775 117 743 133 775 b 190 718 176 775 190 750 b 154 639 190 686 179 639 z m 60 711 b 60 667 60 682 67 667 b 42 714 42 667 42 704 b 56 754 42 721 44 754 b 60 711 61 754 60 740 z m 94 629 b 85 619 94 625 89 619 b 74 633 79 619 74 629 b 82 644 74 640 76 644 b 94 629 92 644 94 642 z m 528 -8 b 650 164 593 -8 650 65 b 525 304 650 263 601 304 b 397 154 446 304 397 224 b 528 -8 397 67 443 -8 z m 528 85 b 490 157 504 85 490 125 b 528 221 490 189 507 221 b 564 164 550 221 564 196 b 528 85 564 132 553 85 z m 433 157 b 433 113 433 128 440 113 b 415 160 415 113 415 150 b 429 200 415 167 418 200 b 433 157 435 200 433 186 z m 143 114 b 125 56 147 110 133 78 b 104 47 113 25 106 28 b 117 96 104 56 111 82 b 143 114 122 110 135 122 z m 468 75 b 458 65 468 71 463 65 b 447 79 453 65 447 75 b 456 90 447 86 450 90 b 468 75 465 90 468 88 z "},"€":{"ha":631,"x_min":0,"x_max":0,"o":"m 497 -18 b 593 29 531 -18 593 -17 b 518 74 593 61 554 74 b 275 264 406 74 306 142 l 439 265 b 503 313 478 265 503 269 b 449 343 503 347 475 343 l 267 340 b 267 350 267 344 267 347 l 265 371 b 274 465 265 403 268 433 l 461 465 b 531 503 490 465 531 465 b 474 536 531 532 497 536 l 294 536 b 533 747 340 646 413 726 b 592 794 568 753 592 754 b 510 836 592 824 533 836 b 151 536 325 836 203 693 b 54 496 121 536 54 538 b 133 465 54 460 108 465 b 128 339 126 424 125 381 b 42 297 92 339 42 346 b 140 263 42 257 114 263 b 497 -18 182 79 275 -18 z m 269 682 b 261 686 267 682 261 682 b 393 797 261 711 368 797 b 397 794 394 797 397 797 b 269 682 397 785 276 682 z m 250 643 b 236 631 250 638 242 631 b 225 646 229 633 225 639 b 238 660 225 653 231 660 b 250 643 244 660 250 650 z "},"$":{"ha":492,"x_min":0,"x_max":0,"o":"m 240 -57 b 276 51 282 -57 276 17 l 276 135 b 451 319 379 144 451 213 b 271 499 451 439 378 483 b 193 561 246 503 193 513 b 285 644 193 611 215 644 b 397 674 353 644 397 626 b 299 753 397 721 343 753 b 276 794 276 753 276 758 b 242 936 276 883 265 936 b 201 815 192 936 201 840 l 201 753 b 53 557 114 738 53 665 b 232 378 53 436 121 378 b 326 313 288 378 326 356 b 235 247 326 269 268 247 b 101 269 179 247 142 269 b 57 226 81 269 57 260 b 201 132 57 174 121 132 l 201 51 b 240 -57 201 15 199 -57 z m 140 661 b 108 619 131 646 121 619 b 103 629 104 619 103 622 b 164 707 103 658 133 707 b 174 699 168 707 174 704 b 140 661 174 685 151 678 z m 115 590 b 104 574 115 582 113 574 b 94 582 101 574 96 578 b 103 603 90 593 94 603 b 115 590 111 603 115 599 z "},"£":{"ha":539,"x_min":0,"x_max":0,"o":"m 44 39 b 128 0 44 14 79 0 b 425 1 232 0 329 6 b 499 60 476 -1 499 13 b 393 108 499 96 469 108 l 314 108 b 221 103 254 108 244 107 b 199 110 203 100 192 94 b 235 258 210 133 235 172 l 235 349 l 349 349 b 425 389 419 349 425 367 b 329 447 425 421 417 447 l 235 447 l 235 526 b 339 753 235 661 251 753 b 421 686 372 753 401 721 b 468 644 436 658 453 644 b 500 706 489 644 500 667 b 332 861 500 803 415 861 b 106 538 153 861 106 707 l 106 444 l 71 444 b 28 390 38 444 28 411 b 81 349 28 368 46 349 l 108 349 l 108 303 b 78 133 108 224 99 188 b 44 39 56 78 44 64 z m 154 639 b 147 651 150 639 147 644 b 194 778 147 683 164 747 b 253 813 221 804 239 813 b 235 781 258 813 258 803 b 154 639 181 732 163 639 z m 154 600 b 142 582 154 588 150 582 b 128 594 131 582 128 586 b 142 611 128 594 131 611 b 154 600 147 611 154 607 z "},"¥":{"ha":599,"x_min":0,"x_max":0,"o":"m 299 0 b 379 72 332 0 379 15 l 379 211 l 454 211 b 538 268 494 211 538 233 b 481 319 538 301 515 319 l 379 319 b 381 350 379 332 379 342 l 454 350 b 538 414 503 350 538 367 b 481 463 538 440 515 463 l 415 463 l 565 767 b 532 856 581 797 579 856 b 482 833 519 856 492 853 l 347 565 b 314 517 333 536 325 517 b 281 565 303 517 290 544 l 156 826 b 93 856 144 849 110 856 b 42 772 47 856 29 799 l 190 463 l 138 463 b 69 411 86 463 69 435 b 138 350 69 381 104 350 l 239 350 b 246 319 242 340 244 331 l 138 319 b 71 263 86 319 71 286 b 138 211 71 240 104 211 l 246 211 l 246 72 b 299 0 246 38 250 0 z m 67 793 b 61 782 67 789 65 782 b 54 793 57 782 54 788 b 74 826 54 803 60 826 b 75 814 76 826 76 819 b 67 793 74 808 67 803 z m 283 43 b 283 33 288 39 288 33 b 268 88 274 33 268 53 b 274 101 271 97 272 101 b 278 82 275 101 275 96 b 283 43 278 63 283 49 z "},"¤":{"ha":658,"x_min":0,"x_max":0,"o":"m 131 181 b 57 53 119 164 57 72 b 100 0 57 31 76 0 b 210 119 160 0 185 119 b 324 100 246 119 285 100 b 449 129 367 100 410 108 b 574 0 463 114 549 0 b 617 53 597 0 617 31 b 532 199 617 72 540 185 b 613 454 590 269 613 364 b 557 669 613 528 590 604 b 617 807 583 708 617 758 b 585 844 617 824 604 844 b 472 738 547 844 490 761 b 329 788 429 768 382 788 b 194 743 281 788 233 771 b 89 844 175 769 128 844 b 57 807 69 844 57 824 b 119 667 57 754 90 708 b 51 457 79 606 51 531 b 131 181 51 326 67 292 z m 104 529 b 93 544 94 529 93 536 b 218 714 93 589 171 714 b 221 711 219 714 221 713 b 132 582 221 689 146 615 b 104 529 128 574 114 529 z m 324 217 b 178 450 214 217 178 361 b 336 667 178 550 219 667 b 489 443 458 667 489 546 b 324 217 489 338 446 217 z m 110 494 b 99 485 110 488 104 485 b 89 494 93 485 89 490 b 97 507 89 500 92 507 b 110 494 104 507 110 501 z "},"(":{"ha":417,"x_min":0,"x_max":0,"o":"m 286 -100 b 314 -106 296 -104 304 -106 b 374 -60 346 -106 374 -83 b 326 -10 374 -33 358 -26 b 160 378 201 61 160 236 b 303 808 160 519 190 689 b 369 883 344 853 369 868 b 324 933 369 906 351 933 b 189 846 288 933 239 896 b 19 374 83 739 19 544 b 286 -100 19 194 88 -21 z m 267 861 b 224 815 243 840 231 828 b 200 790 218 806 210 790 b 194 797 196 790 194 793 b 281 883 194 819 251 883 b 267 861 293 883 275 869 z m 186 760 b 172 747 186 749 176 747 b 161 760 169 747 161 749 b 178 771 161 765 167 771 b 186 760 182 771 186 765 z "},")":{"ha":417,"x_min":0,"x_max":0,"o":"m 111 -129 b 221 -61 142 -129 178 -114 b 381 419 314 54 381 142 b 104 933 381 733 242 933 b 39 886 65 933 39 914 b 94 825 39 853 72 838 b 242 424 183 776 242 599 b 57 -92 242 85 57 -43 b 111 -129 57 -110 86 -129 z m 67 863 b 57 881 61 863 57 871 b 72 913 57 896 65 913 b 82 894 78 913 82 906 b 67 863 82 879 74 863 z m 104 -83 b 83 -101 96 -101 89 -103 b 78 -89 79 -100 78 -94 b 107 -40 78 -76 100 -39 b 104 -83 114 -42 113 -65 z "},"}":{"ha":435,"x_min":0,"x_max":0,"o":"m 104 -103 b 321 175 313 -103 314 32 b 385 357 325 254 311 300 b 410 390 396 365 410 375 b 364 438 410 410 381 431 b 288 697 285 475 294 588 b 113 921 281 789 246 906 b 4 876 51 929 4 917 b 79 832 4 844 26 828 b 129 828 96 833 113 832 b 156 701 161 821 153 736 b 231 411 160 644 169 449 b 268 389 238 406 268 400 b 243 367 268 382 247 372 b 178 111 193 317 183 174 b 92 -29 171 42 190 -29 b 29 -58 69 -29 29 -28 b 104 -103 29 -92 79 -103 z m 39 856 b 26 868 33 856 29 858 b 54 911 24 876 32 911 b 64 901 60 911 64 907 b 39 856 64 894 51 856 z "},"{":{"ha":447,"x_min":0,"x_max":0,"o":"m 335 -107 b 410 -65 364 -107 410 -100 b 338 -25 410 -25 368 -25 b 265 13 307 -25 282 -8 b 258 199 247 36 258 169 b 161 385 258 297 161 367 b 274 525 161 403 261 472 b 278 794 297 629 249 756 b 426 864 321 851 426 806 b 356 917 426 882 413 917 b 153 647 157 917 160 793 b 31 383 144 454 31 479 b 119 154 31 288 111 322 b 335 -107 126 14 139 -107 z m 222 811 b 201 792 217 804 211 792 b 194 797 200 792 194 794 b 282 889 194 831 254 889 b 289 883 286 889 289 886 b 222 811 290 865 249 849 z "},"|":{"ha":249,"x_min":0,"x_max":0,"o":"m 135 -137 b 199 -53 185 -137 199 -93 l 199 933 b 124 981 196 967 168 981 b 67 925 88 981 67 954 l 65 -60 b 135 -137 65 -93 85 -137 z m 104 907 b 100 850 103 890 110 850 b 83 897 89 850 83 874 b 108 961 83 914 88 961 b 104 907 126 961 106 947 z "},"[":{"ha":361,"x_min":0,"x_max":0,"o":"m 61 -97 b 182 -115 74 -115 82 -115 b 313 -78 292 -115 313 -115 b 213 -28 313 -39 292 -28 l 188 -28 l 188 774 b 236 836 188 825 183 836 b 324 856 292 836 314 844 b 236 922 358 893 313 922 b 74 901 161 922 89 919 b 50 369 47 869 50 818 b 61 -97 50 -51 50 -86 z m 113 856 b 94 831 108 842 101 831 b 89 847 92 831 89 836 b 149 894 89 874 121 894 b 161 893 160 894 161 894 b 149 883 161 888 157 883 b 113 856 138 883 117 869 z "},"]":{"ha":332,"x_min":0,"x_max":0,"o":"m 69 -111 b 249 -106 78 -111 182 -112 b 314 29 285 -101 313 -74 b 310 410 315 104 313 222 b 301 899 304 797 311 881 b 106 919 290 919 199 919 b 19 879 51 919 19 901 b 65 828 19 838 39 828 b 129 833 85 828 108 833 b 178 765 150 833 178 818 l 178 29 b 85 -24 178 -10 174 -24 b 19 -76 47 -24 19 -36 b 69 -111 19 -92 42 -111 z m 63 894 b 49 875 69 885 50 882 b 43 865 49 868 46 865 b 38 879 40 865 38 868 b 63 894 38 894 56 903 z "},"/":{"ha":554,"x_min":0,"x_max":0,"o":"m 114 -107 b 429 621 154 -107 399 553 b 525 879 450 668 525 849 b 457 925 525 904 482 925 b 396 883 431 925 408 904 b 18 -57 351 807 18 -33 b 114 -107 18 -90 97 -107 z m 79 -51 b 56 -43 76 -61 56 -56 b 108 92 56 -21 100 76 b 129 97 114 101 125 99 b 79 -51 147 93 94 -7 z "},"\\":{"ha":533,"x_min":0,"x_max":0,"o":"m 114 925 b 18 875 97 925 18 908 b 396 -65 18 851 351 11 b 457 -107 408 -86 431 -107 b 525 -61 482 -107 525 -86 b 429 197 525 -31 450 150 b 114 925 399 265 154 925 z m 79 869 b 129 721 94 825 147 725 b 108 726 125 719 114 717 b 56 861 100 742 56 839 b 79 869 56 874 76 879 z "},"?":{"ha":417,"x_min":0,"x_max":0,"o":"m 136 144 b 199 239 192 144 197 197 b 278 381 201 333 222 326 b 401 624 343 444 401 525 b 147 868 401 797 278 881 b 28 793 72 861 28 842 b 115 728 28 747 61 714 b 151 733 128 731 140 733 b 247 615 221 733 247 668 b 168 444 247 554 232 497 b 78 240 115 401 78 336 b 136 144 78 206 92 144 z m 71 810 b 57 778 63 794 64 778 b 47 794 50 778 47 785 b 90 836 47 811 71 844 b 71 810 96 833 79 824 z m 138 196 b 138 174 143 185 140 174 b 107 254 111 174 107 229 b 125 300 107 268 111 300 b 131 289 129 300 131 297 l 129 285 b 129 282 129 283 129 283 l 126 263 b 126 261 126 263 126 261 l 125 257 b 138 196 125 236 128 214 z m 136 -12 b 194 47 174 -12 194 14 b 140 100 194 71 167 100 b 83 38 107 100 83 69 b 136 -12 83 4 103 -12 z m 124 79 b 124 47 135 79 124 68 b 111 25 124 32 117 25 b 107 38 108 25 107 31 b 124 79 107 53 114 79 z "},"!":{"ha":232,"x_min":0,"x_max":0,"o":"m 113 156 b 189 540 178 156 189 282 b 136 856 189 824 179 856 b 50 483 51 856 50 842 b 113 156 50 229 53 156 z m 94 824 b 99 757 110 824 100 789 b 86 703 97 735 108 703 b 72 756 74 703 72 732 b 94 824 72 801 88 824 z m 114 -11 b 179 53 151 -11 179 10 b 114 125 179 92 156 125 b 56 53 74 125 56 88 b 114 -11 56 14 79 -11 z m 89 61 b 79 32 88 50 86 32 b 72 46 75 32 72 39 b 94 101 72 67 82 101 b 89 61 104 101 90 82 z "},"'":{"ha":146,"x_min":0,"x_max":0,"o":"m 72 733 b 131 828 110 733 125 799 b 72 957 138 867 133 957 b 14 828 14 957 8 863 b 72 733 18 797 35 733 z m 65 903 b 46 864 58 875 54 864 b 36 885 42 864 36 871 b 58 933 36 896 49 933 b 65 903 69 933 71 922 z "},"\"":{"ha":272,"x_min":0,"x_max":0,"o":"m 72 733 b 131 828 110 733 125 799 b 72 957 138 867 133 957 b 14 828 14 957 8 863 b 72 733 18 797 35 733 z m 204 733 b 263 828 242 733 257 799 b 204 957 269 867 265 957 b 146 828 146 957 140 863 b 204 733 150 797 167 733 z m 65 903 b 46 864 58 875 54 864 b 36 885 42 864 36 871 b 58 933 36 896 49 933 b 65 903 69 933 71 922 z m 197 903 b 178 864 190 875 186 864 b 168 885 174 864 168 871 b 190 933 168 896 181 933 b 197 903 201 933 203 922 z "},"‘":{"ha":147,"x_min":0,"x_max":0,"o":"m 72 731 b 140 803 118 731 140 761 b 92 864 140 838 117 864 b 65 849 69 864 67 849 b 65 858 64 849 65 854 b 111 918 69 886 88 906 b 131 935 117 921 131 928 b 104 958 131 949 119 958 b 7 825 40 958 7 872 b 72 731 7 771 26 731 z m 56 756 b 53 751 56 754 56 751 b 29 815 36 751 18 815 b 43 789 36 815 39 803 b 56 756 49 775 56 763 z "},"’":{"ha":157,"x_min":0,"x_max":0,"o":"m 78 958 b 10 886 32 958 10 928 b 58 825 10 851 33 825 b 85 840 81 825 83 840 b 85 831 86 840 85 835 b 39 771 81 803 63 783 b 19 754 33 768 19 761 b 46 731 19 740 31 731 b 143 864 110 731 143 817 b 78 958 143 918 124 958 z m 39 900 b 25 874 35 886 32 874 b 49 938 14 874 32 938 b 51 933 51 938 51 935 b 39 900 51 926 44 914 z "},"“":{"ha":290,"x_min":0,"x_max":0,"o":"m 72 731 b 140 803 118 731 140 761 b 92 864 140 838 117 864 b 65 849 69 864 67 849 b 65 858 64 849 65 854 b 111 918 69 886 88 906 b 131 935 117 921 131 928 b 104 958 131 949 119 958 b 7 825 40 958 7 872 b 72 731 7 771 26 731 z m 210 731 b 278 803 256 731 278 761 b 229 864 278 838 254 864 b 203 849 207 864 204 849 b 203 858 201 849 203 854 b 249 918 207 886 225 906 b 268 935 254 921 268 928 b 242 958 268 949 257 958 b 144 825 178 958 144 872 b 210 731 144 771 164 731 z m 56 756 b 53 751 56 754 56 751 b 29 815 36 751 18 815 b 43 789 36 815 39 803 b 56 756 49 775 56 763 z m 193 756 b 190 751 193 754 193 751 b 167 815 174 751 156 815 b 181 789 174 815 176 803 b 193 756 186 775 193 763 z "},"”":{"ha":293,"x_min":0,"x_max":0,"o":"m 78 958 b 10 886 32 958 10 928 b 58 825 10 851 33 825 b 85 840 81 825 83 840 b 85 831 86 840 85 835 b 39 771 81 803 63 783 b 19 754 33 768 19 761 b 46 731 19 740 31 731 b 143 864 110 731 143 817 b 78 958 143 918 124 958 z m 217 958 b 149 886 171 958 149 928 b 197 825 149 851 172 825 b 224 840 219 825 222 840 b 224 831 225 840 224 835 b 178 771 219 803 201 783 b 158 754 172 768 158 761 b 185 731 158 740 169 731 b 282 864 249 731 282 817 b 217 958 282 918 263 958 z m 39 900 b 25 874 35 886 32 874 b 49 938 14 874 32 938 b 51 933 51 938 51 935 b 39 900 51 926 44 914 z m 178 900 b 164 874 174 886 171 874 b 188 938 153 874 171 938 b 190 933 190 938 190 935 b 178 900 190 926 183 914 z "},"‚":{"ha":156,"x_min":0,"x_max":0,"o":"m 83 139 b 15 67 38 139 15 108 b 64 6 15 32 39 6 b 90 21 86 6 89 21 b 90 11 92 21 90 15 b 44 -49 86 -17 68 -36 b 25 -65 39 -51 25 -58 b 51 -89 25 -79 36 -89 b 149 44 115 -89 149 -3 b 83 139 149 99 129 139 z m 44 81 b 31 54 40 67 38 54 b 54 118 19 54 38 118 b 57 114 57 118 57 115 b 44 81 57 107 50 94 z "},"„":{"ha":297,"x_min":0,"x_max":0,"o":"m 83 139 b 15 67 38 139 15 108 b 64 6 15 32 39 6 b 90 21 86 6 89 21 b 90 11 92 21 90 15 b 44 -49 86 -17 68 -36 b 25 -65 39 -51 25 -58 b 51 -89 25 -79 36 -89 b 149 44 115 -89 149 -3 b 83 139 149 99 129 139 z m 222 139 b 154 67 176 139 154 108 b 203 6 154 32 178 6 b 229 21 225 6 228 21 b 229 11 231 21 229 15 b 183 -49 225 -17 207 -36 b 164 -65 178 -51 164 -58 b 190 -89 164 -79 175 -89 b 288 44 254 -89 288 -3 b 222 139 288 99 268 139 z m 44 81 b 31 54 40 67 38 54 b 54 118 19 54 38 118 b 57 114 57 118 57 115 b 44 81 57 107 50 94 z m 183 81 b 169 54 179 67 176 54 b 193 118 158 54 176 118 b 196 114 196 118 196 115 b 183 81 196 107 189 94 z "},"•":{"ha":274,"x_min":0,"x_max":0,"o":"m 143 339 b 257 463 214 339 257 392 b 138 576 257 549 197 576 b 29 446 64 576 29 500 b 143 339 29 382 79 339 z m 76 400 b 57 442 63 400 57 431 b 110 547 57 496 85 547 b 121 539 118 547 121 543 b 83 450 121 522 83 496 b 76 400 83 440 89 400 z "},"-":{"ha":499,"x_min":0,"x_max":0,"o":"m 400 457 b 336 508 400 497 368 508 b 160 506 276 508 218 507 b 71 443 119 504 71 493 b 144 382 71 400 104 382 b 308 385 200 382 254 383 b 400 457 353 386 400 400 z m 96 417 b 86 435 93 417 86 421 b 122 486 86 453 99 486 b 131 471 131 486 131 478 b 96 417 131 464 110 417 z "},"–":{"ha":564,"x_min":0,"x_max":0,"o":"m 483 457 b 419 508 483 497 451 508 b 160 506 360 508 218 507 b 71 443 119 504 71 493 b 144 382 71 400 104 382 b 392 385 200 382 338 383 b 483 457 436 386 483 400 z m 96 417 b 86 435 93 417 86 421 b 122 486 86 453 99 486 b 131 471 131 486 131 478 b 96 417 131 464 110 417 z "},"—":{"ha":651,"x_min":0,"x_max":0,"o":"m 567 457 b 503 508 567 497 535 508 b 160 506 443 508 218 507 b 71 443 119 504 71 493 b 144 382 71 400 104 382 b 475 385 200 382 421 383 b 567 457 519 386 567 400 z m 96 417 b 86 435 93 417 86 421 b 122 486 86 453 99 486 b 131 471 131 486 131 478 b 96 417 131 464 110 417 z "},"‹":{"ha":343,"x_min":0,"x_max":0,"o":"m 240 258 b 288 304 260 250 288 282 b 154 432 288 339 188 407 b 285 590 167 446 285 563 b 250 625 285 607 267 625 b 29 429 210 625 29 461 b 240 258 29 397 194 279 z m 104 482 b 75 444 104 467 86 454 b 58 439 69 440 63 433 b 100 489 53 449 90 489 b 104 482 103 489 104 486 z "},"¢":{"ha":446,"x_min":0,"x_max":0,"o":"m 213 739 b 31 415 106 711 31 615 b 214 131 31 254 108 149 l 214 78 b 258 -43 214 53 208 -43 b 297 99 282 -43 297 10 b 299 132 297 115 296 125 b 417 249 368 146 417 194 b 385 292 417 275 404 292 b 272 242 346 292 343 242 b 158 417 199 242 158 297 b 258 632 158 544 197 632 b 314 576 290 632 314 611 b 361 518 314 539 335 518 b 408 600 392 518 408 546 b 300 742 408 679 368 731 b 297 776 297 749 297 758 b 258 918 297 865 282 918 b 213 797 208 918 213 822 z m 93 608 b 90 613 92 608 90 611 b 168 704 90 635 144 704 b 172 701 171 704 172 703 b 150 674 172 693 157 681 b 93 608 129 653 110 608 z m 92 581 b 81 569 92 575 85 569 b 74 579 78 569 74 572 b 85 590 74 586 79 590 b 92 581 89 590 92 585 z "},"›":{"ha":349,"x_min":0,"x_max":0,"o":"m 92 250 b 306 438 124 250 306 386 b 94 628 306 481 143 628 b 57 599 75 628 57 622 b 189 438 57 553 160 468 b 46 297 156 406 46 347 b 92 250 46 275 69 250 z m 101 607 b 94 583 110 607 97 592 b 88 574 93 579 90 574 b 81 592 83 574 81 588 b 94 607 81 597 86 607 z m 96 306 b 88 281 96 299 96 281 b 76 301 82 281 76 296 b 88 328 76 308 82 328 b 96 306 94 328 96 315 z "},"«":{"ha":556,"x_min":0,"x_max":0,"o":"m 282 251 b 324 286 300 251 324 268 b 156 443 324 321 185 414 b 299 601 165 453 299 574 b 268 631 299 615 282 631 b 47 439 224 631 47 483 b 282 251 47 406 246 251 z m 471 264 b 504 294 486 264 504 278 b 369 447 504 326 388 429 b 513 599 403 482 513 547 b 481 628 513 617 499 628 b 272 444 438 628 272 481 b 471 264 272 414 436 264 z m 92 425 b 83 436 85 425 83 432 b 113 492 83 458 100 492 b 114 475 119 492 118 481 b 92 425 104 464 103 439 z m 317 433 b 310 446 310 433 310 442 b 336 489 310 461 318 489 b 317 433 342 489 322 433 z m 332 418 b 325 410 332 411 332 410 b 317 418 321 410 317 414 b 325 425 317 422 321 425 b 332 418 329 425 332 422 z "},"»":{"ha":536,"x_min":0,"x_max":0,"o":"m 282 253 b 469 400 333 253 439 364 b 497 451 488 421 497 436 b 364 586 497 485 389 564 b 272 632 317 626 296 632 b 229 590 251 632 229 611 b 274 538 229 575 243 558 b 396 435 289 526 383 449 l 361 406 b 253 283 340 389 253 307 b 282 253 253 269 268 253 z m 72 251 b 278 439 104 251 278 406 b 78 619 278 472 113 619 b 43 589 61 619 43 606 b 133 479 43 567 68 533 l 186 435 l 149 406 b 43 285 78 350 43 313 b 72 251 43 269 56 251 z m 274 589 b 265 581 274 583 269 581 b 258 589 261 581 258 583 b 279 618 258 604 274 618 b 279 610 279 618 283 617 b 274 589 276 606 274 596 z m 83 589 b 75 575 82 581 75 575 b 63 588 69 575 63 581 b 83 604 63 597 68 604 b 83 589 85 604 88 603 z m 75 304 b 69 289 72 297 75 289 b 64 294 65 289 64 290 b 69 313 64 299 65 304 b 75 304 76 326 81 319 z m 288 297 b 279 283 288 289 288 283 b 275 292 276 283 275 288 b 285 308 275 296 279 308 b 288 297 288 308 288 303 z "},"ª":{"ha":306,"x_min":0,"x_max":0,"o":"m 149 664 b 263 801 219 664 263 700 b 126 974 263 894 224 975 b 44 932 78 974 44 956 b 83 901 44 919 57 893 b 161 869 133 917 161 882 b 138 861 161 857 158 857 b 39 769 85 872 39 819 b 149 664 39 708 88 664 z m 83 789 b 72 774 81 776 79 774 b 63 782 67 774 63 776 b 97 828 63 799 82 828 b 83 789 110 828 86 801 z m 178 760 b 153 729 178 739 165 729 b 124 758 126 729 124 746 b 151 785 124 775 138 785 b 178 760 165 785 178 776 z m 101 561 l 204 564 b 267 614 242 565 267 574 b 203 647 267 653 229 647 l 101 649 b 40 603 53 649 40 631 b 101 561 40 564 79 561 z m 76 619 b 56 589 67 600 63 589 b 51 596 53 589 51 593 b 76 636 51 606 60 636 b 82 632 79 636 81 635 b 76 619 83 628 79 624 z "},"º":{"ha":306,"x_min":0,"x_max":0,"o":"m 153 686 b 272 819 222 686 272 742 b 150 964 272 903 219 964 b 22 815 79 964 22 900 b 153 686 22 754 56 686 z m 85 894 b 56 850 76 878 71 850 b 51 857 51 850 51 856 b 101 922 51 874 72 922 b 85 894 114 922 89 901 z m 149 765 b 100 817 115 765 100 786 b 153 878 100 853 122 878 b 200 819 181 878 200 854 b 149 765 200 786 185 765 z m 97 564 l 200 567 b 267 614 238 568 267 574 b 204 654 267 653 231 656 l 103 651 b 40 603 54 650 40 631 b 97 564 40 564 75 564 z m 74 615 b 54 592 65 599 60 592 b 51 596 53 592 51 593 b 74 631 51 604 61 631 b 79 626 76 631 78 629 b 74 615 81 622 76 619 z "},"¹":{"ha":181,"x_min":0,"x_max":0,"o":"m 88 693 b 110 686 94 689 101 686 b 154 704 121 686 147 692 b 164 828 161 717 164 728 b 108 956 164 925 143 956 b 15 871 82 956 15 908 b 40 835 15 847 25 835 b 71 856 57 835 63 854 b 76 825 76 856 76 847 b 88 693 76 738 75 703 z m 56 890 b 29 864 42 871 35 863 b 29 879 26 865 26 871 b 57 914 31 888 50 917 b 56 890 63 913 68 910 z "},"²":{"ha":221,"x_min":0,"x_max":0,"o":"m 72 694 l 168 694 b 203 725 189 694 203 708 b 167 757 203 749 188 757 l 118 757 b 185 882 153 794 185 828 b 106 964 185 931 156 964 b 15 903 54 964 15 940 b 40 869 15 886 22 869 b 83 892 65 869 69 892 b 101 874 97 892 101 886 b 19 722 101 799 19 758 b 72 694 19 697 54 694 z m 54 747 b 47 725 54 747 56 733 b 36 718 42 719 39 718 b 32 725 35 718 32 721 b 54 747 32 738 54 760 z "},"³":{"ha":232,"x_min":0,"x_max":0,"o":"m 86 692 b 199 769 144 692 199 713 b 142 828 199 822 142 822 b 186 890 142 833 186 843 b 104 961 186 933 158 961 b 15 915 38 961 15 933 b 39 882 15 897 24 882 b 90 908 64 882 67 908 b 114 888 111 908 114 903 b 81 849 114 867 101 849 b 47 821 60 849 47 839 b 99 800 47 797 68 796 b 126 772 111 801 126 788 b 69 747 126 757 104 736 b 22 726 39 757 22 739 b 86 692 22 700 65 692 z m 74 826 b 60 813 69 817 67 813 b 67 838 53 813 57 831 b 74 826 74 842 78 836 z "},"¡":{"ha":208,"x_min":0,"x_max":0,"o":"m 114 856 b 56 792 79 856 56 831 b 114 719 56 757 74 719 b 179 792 156 719 179 753 b 114 856 179 835 151 856 z m 94 772 b 110 742 100 753 119 744 b 75 783 94 736 79 763 b 79 799 74 790 75 797 b 94 772 85 800 90 783 z m 113 689 b 50 361 53 689 50 615 b 136 -11 50 3 51 -11 b 189 304 179 -11 189 21 b 113 689 189 563 178 689 z m 99 522 b 76 590 92 522 76 544 b 90 643 76 614 78 643 b 103 589 113 643 101 611 b 99 522 104 557 114 522 z "},"¿":{"ha":414,"x_min":0,"x_max":0,"o":"m 293 839 b 235 779 256 839 235 813 b 289 726 235 756 256 726 b 346 789 322 726 346 757 b 293 839 346 822 326 839 z m 267 818 b 267 786 278 818 267 807 b 258 763 267 771 264 763 b 250 779 253 763 250 769 b 267 818 250 792 254 818 z m 293 682 b 231 588 238 682 232 629 b 151 446 228 493 207 500 b 28 203 86 382 28 301 b 282 -42 28 29 151 -54 b 401 33 357 -35 401 -15 b 314 99 401 79 368 113 b 278 93 301 96 289 93 b 182 211 208 93 182 158 b 261 382 182 272 197 329 b 351 586 314 425 351 490 b 293 682 351 621 338 682 z m 281 556 b 278 533 285 544 285 533 b 254 617 253 533 250 593 b 282 657 256 631 268 660 b 286 646 286 657 286 653 b 285 638 286 643 286 640 l 279 618 b 278 610 278 615 278 613 b 281 556 275 586 274 572 z "},"ß":{"ha":551,"x_min":0,"x_max":0,"o":"m 96 -18 b 172 40 136 -18 172 15 b 171 374 172 150 171 250 b 269 742 171 450 154 742 b 368 610 313 742 368 689 b 197 388 368 454 197 461 b 401 203 197 297 406 353 b 317 121 399 119 354 121 b 193 53 228 121 193 100 b 257 -11 193 13 218 -11 b 540 194 401 -11 540 24 b 392 408 540 390 393 388 b 515 610 390 426 515 475 b 243 863 515 771 422 863 b 28 167 15 863 19 621 b 96 -18 29 113 38 -18 z m 97 701 b 88 694 96 697 92 694 b 82 706 85 694 82 697 b 153 822 82 722 115 804 b 174 826 167 829 174 831 b 97 701 174 814 124 768 z m 86 665 b 75 656 86 660 81 656 b 64 664 65 656 64 660 b 75 675 64 668 65 675 b 86 665 85 675 86 671 z "},",":{"ha":213,"x_min":0,"x_max":0,"o":"m 194 81 b 125 160 194 119 171 160 b 43 72 72 160 43 115 b 82 17 43 44 60 17 b 67 -18 99 17 94 -12 b 32 -37 47 -21 32 -28 b 60 -64 32 -57 44 -64 b 194 81 132 -64 194 11 z m 82 89 b 68 63 78 72 74 63 b 64 81 65 63 64 69 b 99 133 64 99 82 133 b 97 117 99 133 104 129 b 82 89 94 111 83 99 z "},"˘":{"ha":364,"x_min":0,"x_max":0,"o":"m 65 1014 b 186 889 65 961 99 889 b 303 1022 274 889 303 971 b 260 1061 303 1046 282 1061 b 185 974 222 1061 225 975 b 110 1063 144 972 150 1063 b 65 1014 83 1063 65 1053 z "},";":{"ha":244,"x_min":0,"x_max":0,"o":"m 110 711 b 182 790 151 711 182 753 b 113 860 182 836 158 860 b 39 779 69 860 39 821 b 110 711 39 738 71 711 z m 69 767 b 63 781 63 767 63 776 b 103 842 63 797 85 843 b 107 832 106 842 108 835 b 79 788 97 815 85 804 b 69 767 76 782 76 767 z m 174 64 b 111 135 174 99 153 135 b 38 56 64 135 38 94 b 72 6 38 31 53 6 b 60 -25 88 6 85 -21 b 28 -43 42 -28 28 -35 b 53 -67 28 -61 39 -67 b 174 64 118 -67 174 1 z m 72 71 b 60 47 69 56 65 47 b 57 64 58 47 57 53 b 88 111 57 79 72 111 b 86 96 88 111 92 107 b 72 71 83 90 74 79 z "},"¶":{"ha":646,"x_min":0,"x_max":0,"o":"m 374 -87 b 432 8 411 -87 432 -64 l 432 674 b 447 732 432 713 439 732 b 463 672 454 732 463 713 l 463 3 b 521 -87 463 -62 483 -87 b 594 8 558 -87 594 -64 l 593 801 b 508 856 593 847 556 856 l 265 856 b 36 551 151 856 36 771 b 228 290 36 385 146 290 l 268 290 b 304 267 285 290 304 283 l 304 3 b 374 -87 304 -62 336 -87 z m 169 769 b 131 713 156 758 143 736 b 111 686 121 696 117 686 b 107 696 108 686 107 689 b 186 800 107 719 161 800 b 193 794 192 800 193 797 b 169 769 193 792 186 783 z m 114 646 b 101 639 114 643 108 639 b 89 646 94 639 89 643 b 103 660 89 653 96 660 b 114 646 110 660 114 653 z m 349 -50 b 353 -58 351 -53 353 -56 b 346 -64 353 -61 349 -64 b 324 -12 333 -64 324 -42 b 331 14 324 3 325 14 b 338 -8 335 14 338 6 b 349 -50 338 -26 342 -43 z m 507 -50 b 511 -58 510 -53 511 -56 b 504 -64 511 -61 507 -64 b 482 -12 492 -64 482 -42 b 489 14 482 3 483 14 b 496 -8 493 14 496 6 b 507 -50 496 -26 500 -43 z "},"&":{"ha":744,"x_min":0,"x_max":0,"o":"m 322 -8 b 525 93 397 -8 467 33 b 629 -17 572 31 613 -17 b 706 32 660 -17 706 -6 b 610 203 706 61 665 125 b 675 361 632 238 675 318 b 629 415 675 397 653 415 b 571 368 606 415 581 399 b 542 297 563 343 553 319 b 315 668 435 443 315 603 b 376 746 315 722 342 746 b 468 706 411 746 425 706 b 519 788 511 706 529 768 b 361 864 501 824 439 864 b 167 688 246 864 167 793 b 210 546 167 622 210 561 b 43 268 210 528 43 493 b 322 -8 43 94 143 -8 z m 214 693 b 208 704 210 693 208 701 b 292 819 208 732 253 819 b 293 817 293 819 293 818 b 272 792 293 813 274 794 b 236 729 256 774 244 751 b 214 693 233 721 226 693 z m 228 656 b 218 644 228 653 225 644 b 208 656 213 644 208 650 b 219 667 208 660 213 667 b 228 656 228 667 228 660 z m 457 186 b 328 126 414 147 368 126 b 172 283 233 126 172 204 b 265 432 172 350 215 432 b 457 186 283 432 371 306 z m 104 175 b 93 181 100 172 94 178 b 94 331 68 214 63 307 b 99 303 97 333 107 329 b 101 217 88 267 94 240 b 104 175 104 208 114 182 z "},"@":{"ha":799,"x_min":0,"x_max":0,"o":"m 363 1 b 668 136 508 1 668 72 b 629 165 668 156 654 165 b 371 107 568 165 468 107 b 126 388 233 107 126 224 b 418 707 126 569 247 707 b 650 421 589 707 650 597 b 606 299 650 347 628 299 b 557 406 581 299 557 357 b 507 617 557 450 583 617 b 453 578 471 617 465 578 b 386 608 440 578 435 608 b 199 365 290 608 199 490 b 335 192 199 267 257 192 b 478 265 411 192 463 265 b 582 193 493 265 503 193 b 765 451 683 193 765 308 b 406 815 765 651 632 815 b 10 371 179 815 10 621 b 363 1 10 147 154 1 z m 249 439 b 242 449 246 439 242 446 b 324 546 242 475 296 546 b 325 539 328 546 329 543 b 269 471 306 519 285 497 b 249 439 267 467 256 439 z m 368 306 b 307 386 326 306 307 340 b 407 503 307 444 357 503 b 451 444 436 503 451 483 b 368 306 451 378 406 306 z m 246 404 b 236 389 246 399 242 389 b 225 404 231 389 225 397 b 239 417 225 410 233 418 b 246 404 243 415 246 408 z "},":":{"ha":243,"x_min":0,"x_max":0,"o":"m 110 711 b 182 790 151 711 182 753 b 113 860 182 836 158 860 b 39 779 69 860 39 821 b 110 711 39 738 71 711 z m 69 767 b 63 781 63 767 63 776 b 103 842 63 797 85 843 b 107 832 106 842 108 835 b 79 788 97 815 85 804 b 69 767 76 782 76 767 z m 113 -8 b 185 71 154 -8 185 33 b 115 140 185 117 161 140 b 42 60 72 140 42 101 b 113 -8 42 18 74 -8 z m 72 47 b 65 61 65 47 65 57 b 106 122 65 78 88 124 b 110 113 108 122 111 115 b 82 68 100 96 88 85 b 72 47 79 63 79 47 z "},"·":{"ha":214,"x_min":0,"x_max":0,"o":"m 106 371 b 192 464 156 371 192 419 b 110 547 192 518 164 547 b 22 451 58 547 22 500 b 106 371 22 401 60 371 z m 58 436 b 50 453 50 436 50 449 b 97 525 50 472 76 526 b 103 514 101 525 104 517 b 69 461 92 494 76 481 b 58 436 67 454 67 436 z "},"®":{"ha":599,"x_min":0,"x_max":0,"o":"m 292 486 b 572 781 451 486 572 628 b 304 1053 572 939 460 1053 b 38 768 142 1053 38 926 b 292 486 38 624 142 486 z m 301 565 b 121 768 185 565 121 657 b 306 981 121 885 181 981 b 486 781 424 981 486 893 b 301 565 486 663 422 565 z m 372 621 b 408 663 397 621 408 640 b 332 785 408 711 372 763 b 401 864 363 792 401 818 b 314 943 401 910 356 943 b 196 731 200 943 196 817 b 231 621 196 690 193 621 b 281 693 258 621 278 646 b 289 731 281 699 279 731 b 372 621 314 731 324 621 z m 229 839 b 222 863 222 839 222 853 b 247 901 224 872 235 903 b 236 867 250 901 242 885 b 229 839 232 854 235 839 z m 281 826 b 278 832 279 826 278 829 b 310 882 278 860 294 882 b 319 869 317 882 319 875 b 281 826 319 853 299 826 z m 232 825 b 219 817 232 819 225 815 b 213 826 217 818 213 822 b 221 832 214 829 217 832 b 232 825 226 833 233 829 z "},"©":{"ha":875,"x_min":0,"x_max":0,"o":"m 433 -14 b 835 421 665 -14 835 183 b 442 832 835 656 672 832 b 39 408 192 832 39 654 b 433 -14 39 208 167 -14 z m 436 93 b 158 425 258 93 158 257 b 442 732 158 590 276 732 b 719 421 615 732 719 583 b 436 93 719 219 622 93 z m 454 163 b 586 253 504 163 586 185 b 536 308 586 282 561 308 b 447 288 504 308 481 288 b 372 400 400 288 372 356 b 476 539 372 468 400 539 b 539 514 511 539 508 514 b 583 563 561 514 583 538 b 453 654 583 621 514 654 b 236 407 322 654 236 531 b 454 163 236 267 328 163 z m 306 500 b 297 514 297 500 297 511 b 389 606 297 542 364 606 b 393 600 392 606 393 604 b 349 551 393 592 369 574 b 306 500 328 528 310 500 z "},"_":{"ha":433,"x_min":0,"x_max":0,"o":"m 403 -53 b 339 -1 403 -12 371 -1 b 107 -4 279 -1 165 -3 b 18 -67 67 -6 18 -17 b 92 -128 18 -110 51 -128 b 311 -125 147 -128 257 -126 b 403 -53 356 -124 403 -110 z m 43 -93 b 33 -75 40 -93 33 -89 b 69 -24 33 -57 46 -24 b 78 -39 78 -24 78 -32 b 43 -93 78 -46 57 -93 z "},"#":{"ha":638,"x_min":0,"x_max":0,"o":"m 333 150 b 428 300 410 150 415 257 b 435 300 431 300 432 300 l 450 299 b 457 299 453 299 454 299 b 547 368 497 299 550 315 b 451 415 544 426 492 415 b 483 514 464 451 471 479 b 601 572 518 514 604 521 b 510 626 599 636 511 600 b 518 671 510 643 518 656 b 464 732 517 693 501 732 b 374 624 410 732 411 624 b 325 642 363 624 325 624 b 333 693 324 660 333 675 b 283 742 332 714 321 742 b 210 656 229 742 219 681 b 164 624 200 626 193 624 b 72 568 94 624 71 615 b 171 517 74 524 140 517 b 113 419 163 485 158 419 b 26 367 76 419 25 413 b 115 297 31 286 115 325 b 106 222 117 268 104 253 b 147 175 107 196 118 175 b 238 300 194 175 225 267 l 281 300 b 304 293 285 300 304 299 b 289 204 306 269 288 235 b 333 150 290 176 300 150 z m 239 635 b 231 647 236 635 231 642 b 265 706 229 663 251 708 b 272 699 269 706 272 703 b 239 635 272 686 249 635 z m 97 561 b 89 578 93 561 89 568 b 107 603 88 589 97 606 b 111 597 110 603 111 600 b 97 561 113 590 106 561 z m 301 414 b 268 421 290 414 278 415 l 268 422 b 282 475 267 433 278 464 b 350 521 297 514 308 521 b 358 508 357 521 358 514 b 301 414 360 476 342 414 z m 72 388 b 50 347 74 379 57 346 b 44 356 46 349 46 351 b 63 396 42 364 46 396 b 72 388 67 396 72 392 z "},"°":{"ha":379,"x_min":0,"x_max":0,"o":"m 174 619 b 324 774 256 619 324 675 b 197 921 324 851 272 921 b 39 758 106 921 39 847 b 174 619 39 678 100 619 z m 122 860 b 85 797 108 846 90 822 b 71 767 79 776 74 767 b 63 786 65 767 63 782 b 133 883 63 822 104 883 b 122 860 136 883 135 872 z m 179 699 b 126 768 150 699 126 724 b 189 839 126 813 157 839 b 242 774 219 839 242 811 b 179 699 242 725 201 699 z "},"+":{"ha":554,"x_min":0,"x_max":0,"o":"m 281 161 b 349 340 346 161 349 282 b 493 413 392 340 493 349 b 349 468 493 469 421 476 b 275 664 346 519 358 664 b 207 468 206 664 208 515 b 58 401 160 463 58 469 b 131 339 58 354 96 339 b 208 344 160 339 179 343 b 281 161 213 283 213 161 z m 249 550 b 242 565 243 550 242 561 b 275 636 242 583 251 636 b 285 626 282 636 285 628 b 281 617 285 625 285 621 b 249 550 269 606 268 550 z m 260 521 b 249 500 260 514 254 500 b 238 510 246 500 238 501 b 251 529 238 518 242 529 b 260 521 257 529 260 524 z "},"*":{"ha":393,"x_min":0,"x_max":0,"o":"m 108 638 b 93 558 93 613 68 581 b 114 550 100 553 107 550 b 156 589 128 550 142 563 b 197 521 160 564 167 521 b 235 586 222 521 232 567 b 272 554 242 574 257 554 b 283 558 276 554 279 556 b 275 638 311 582 293 611 b 349 681 313 640 349 642 b 271 713 349 715 300 713 b 292 797 294 747 313 778 b 275 803 286 801 281 803 b 222 775 257 803 236 786 b 185 832 218 808 208 832 b 153 778 158 832 156 799 b 103 803 140 788 119 803 b 83 794 96 803 89 800 b 113 714 63 769 81 738 b 38 668 65 715 38 696 b 108 638 38 638 74 638 z m 82 679 b 61 653 71 658 69 653 b 53 667 56 653 53 657 b 82 699 53 676 64 699 b 94 693 88 699 94 697 b 82 679 94 685 85 683 z "},"μ":{"ha":581,"x_min":0,"x_max":0,"o":"m 125 -275 b 204 -179 185 -275 204 -225 b 204 8 204 -107 204 -64 b 213 36 204 14 204 36 b 296 0 231 36 236 0 b 407 71 382 0 389 71 b 413 24 414 71 413 31 b 461 -33 413 -1 433 -33 b 535 131 519 -33 535 42 l 535 682 b 472 726 535 714 503 726 b 406 492 415 726 406 676 b 299 139 406 328 401 139 b 206 610 169 139 206 528 b 140 725 206 653 182 725 b 81 688 96 725 89 710 b 69 432 69 658 69 476 l 69 238 b 125 -275 69 142 53 -275 z m 433 604 b 429 614 429 604 429 611 b 453 696 429 631 432 696 l 457 686 b 433 604 457 675 446 604 z m 100 564 b 94 578 94 564 94 574 b 121 692 94 599 93 694 b 125 685 124 692 125 688 b 100 564 126 668 114 564 z m 114 539 b 101 522 114 532 108 522 b 89 539 93 522 89 532 b 100 553 89 546 92 553 b 114 539 106 553 114 544 z "},"‰":{"ha":978,"x_min":0,"x_max":0,"o":"m 146 -8 b 203 31 163 -8 183 0 b 547 708 219 56 471 546 b 532 860 569 756 596 860 b 436 772 508 860 475 846 b 86 32 376 661 86 104 b 146 -8 86 8 129 -8 z m 154 546 b 276 718 219 546 276 619 b 151 858 276 817 228 858 b 24 708 72 858 24 778 b 154 546 24 621 69 546 z m 154 639 b 117 711 131 639 117 679 b 154 775 117 743 133 775 b 190 718 176 775 190 750 b 154 639 190 686 179 639 z m 60 711 b 60 667 60 682 67 667 b 42 714 42 667 42 704 b 56 754 42 721 44 754 b 60 711 61 754 60 740 z m 94 629 b 85 619 94 625 89 619 b 74 633 79 619 74 629 b 82 644 74 640 76 644 b 94 629 92 644 94 642 z m 528 -8 b 650 164 593 -8 650 65 b 525 304 650 263 601 304 b 397 154 446 304 397 224 b 528 -8 397 67 443 -8 z m 806 -8 b 928 164 871 -8 928 65 b 803 304 928 263 879 304 b 675 154 724 304 675 224 b 806 -8 675 67 721 -8 z m 528 85 b 490 157 504 85 490 125 b 528 221 490 189 507 221 b 564 164 550 221 564 196 b 528 85 564 132 553 85 z m 806 85 b 768 157 782 85 768 125 b 806 221 768 189 785 221 b 842 164 828 221 842 196 b 806 85 842 132 831 85 z m 433 157 b 433 113 433 128 440 113 b 415 160 415 113 415 150 b 429 200 415 167 418 200 b 433 157 435 200 433 186 z m 711 157 b 711 113 711 128 718 113 b 693 160 693 113 693 150 b 707 200 693 167 696 200 b 711 157 713 200 711 186 z m 143 114 b 125 56 147 110 133 78 b 104 47 113 25 106 28 b 117 96 104 56 111 82 b 143 114 122 110 135 122 z m 468 75 b 458 65 468 71 463 65 b 447 79 453 65 447 75 b 456 90 447 86 450 90 b 468 75 465 90 468 88 z m 746 75 b 736 65 746 71 740 65 b 725 79 731 65 725 75 b 733 90 725 86 728 90 b 746 75 743 90 746 88 z "},"§":{"ha":513,"x_min":0,"x_max":0,"o":"m 265 -94 b 458 89 375 -94 458 -24 b 414 222 458 171 414 201 b 447 343 414 238 447 253 b 183 639 447 508 183 596 b 276 735 183 694 231 735 b 332 635 324 735 332 681 b 374 590 332 610 347 590 b 450 718 426 590 450 678 b 271 868 450 814 365 868 b 42 639 129 868 42 743 b 125 506 42 551 101 536 b 58 369 96 478 58 439 b 332 90 58 214 332 207 b 258 25 332 49 300 25 b 185 99 213 25 185 50 b 133 160 185 129 167 160 b 65 75 90 160 65 113 b 265 -94 65 -28 172 -94 z m 154 769 b 115 713 140 758 128 736 b 96 686 106 696 101 686 b 92 696 93 686 92 689 b 157 793 92 724 129 771 b 178 794 172 806 178 799 b 154 769 178 792 171 783 z m 99 646 b 86 639 99 643 93 639 b 74 646 79 639 74 643 b 88 660 74 653 81 660 b 99 646 94 660 99 653 z m 335 319 b 326 293 335 306 331 293 b 194 389 299 293 194 368 b 214 436 194 411 199 431 b 335 319 243 449 335 356 z "},"×":{"ha":508,"x_min":0,"x_max":0,"o":"m 381 178 b 436 240 404 178 436 215 b 321 399 436 275 319 371 b 424 575 322 426 424 525 b 379 621 424 594 399 621 b 242 494 317 621 265 494 b 103 617 226 494 146 617 b 51 556 71 617 51 572 b 165 401 51 513 165 417 b 51 232 165 374 51 282 b 103 182 51 201 74 182 b 242 311 165 182 226 311 b 381 178 264 311 319 178 z m 103 585 b 81 544 103 575 90 544 b 71 557 75 544 71 551 b 96 594 71 576 88 596 b 103 585 100 593 103 589 z m 104 199 b 82 207 99 194 93 196 b 69 246 72 218 63 239 b 90 239 75 250 88 242 b 104 199 99 231 111 204 z "},"=":{"ha":535,"x_min":0,"x_max":0,"o":"m 131 465 b 268 458 140 463 200 458 b 442 514 408 458 442 471 b 268 578 442 569 431 578 b 106 563 157 578 124 574 b 131 465 68 538 81 482 z m 142 550 b 129 522 142 550 133 536 b 118 504 126 510 122 504 b 115 514 117 504 115 508 b 129 553 115 526 119 547 b 142 550 136 558 142 554 z m 135 303 b 276 290 150 300 208 290 b 464 354 425 290 464 306 b 285 401 464 393 431 401 b 92 367 143 401 108 400 b 135 303 79 342 100 308 z m 139 371 b 129 342 139 363 136 349 b 118 350 121 332 118 333 b 129 374 118 363 126 372 b 135 375 131 375 133 375 b 139 371 138 375 139 372 z "},"†":{"ha":524,"x_min":0,"x_max":0,"o":"m 249 -104 b 308 -78 276 -104 297 -94 b 319 592 325 -53 319 539 b 479 640 358 594 479 567 b 325 703 479 722 372 700 l 325 790 b 256 926 325 849 318 926 b 190 706 186 926 194 747 b 31 642 136 706 31 725 b 193 592 31 572 156 592 l 189 257 b 197 -74 189 229 192 -62 b 249 -104 208 -92 221 -104 z m 221 825 b 218 832 219 825 218 828 b 251 904 218 854 225 904 b 258 903 251 904 260 904 b 233 856 251 889 233 872 b 221 825 233 850 228 825 z m 228 803 b 219 792 228 799 225 792 b 213 801 213 792 213 796 b 222 815 213 808 213 815 b 228 803 228 815 228 807 z "},"‡":{"ha":514,"x_min":0,"x_max":0,"o":"m 193 592 l 189 257 b 189 201 189 250 189 231 b 128 201 169 201 149 201 b 31 136 82 201 31 194 b 192 86 31 68 153 86 b 197 -74 193 8 196 -67 b 257 -104 203 -93 231 -104 b 313 -76 278 -104 297 -101 b 324 86 328 -51 321 -3 l 326 86 b 497 135 365 89 497 61 b 396 199 497 193 439 199 b 378 199 389 199 383 199 l 343 197 b 325 197 338 197 332 197 b 326 592 328 368 326 563 b 497 640 365 594 497 567 b 396 704 497 697 439 704 b 332 703 374 704 353 703 l 332 790 b 258 926 332 849 318 926 b 190 706 186 926 194 747 b 128 707 169 707 149 707 b 31 642 82 707 31 699 b 193 592 31 572 156 592 z m 221 825 b 218 832 219 825 218 828 b 251 904 218 854 225 904 b 258 903 251 904 260 904 b 233 856 251 889 233 872 b 221 825 233 850 228 825 z m 228 803 b 219 792 228 799 225 792 b 213 801 213 792 213 796 b 222 815 213 808 213 815 b 228 803 228 815 228 807 z "},"÷":{"ha":528,"x_min":0,"x_max":0,"o":"m 265 506 b 340 600 317 506 340 556 b 272 671 340 644 308 671 b 199 582 225 671 199 633 b 265 506 199 540 229 506 z m 229 574 b 219 579 225 572 219 574 b 260 653 215 604 233 651 b 256 643 260 650 260 647 b 229 574 243 626 243 581 z m 374 335 b 479 392 400 335 479 340 b 419 453 479 418 457 447 b 199 458 358 463 263 458 b 64 404 168 458 64 463 b 131 339 64 360 103 340 b 374 335 211 338 292 335 z m 265 138 b 338 221 310 138 338 185 b 267 294 338 263 307 294 b 206 214 226 294 206 249 b 265 138 206 165 221 138 z m 232 197 b 224 225 224 197 224 217 b 257 271 224 238 242 271 b 258 268 258 271 258 268 b 258 264 258 267 258 264 b 242 222 247 251 243 238 b 232 197 242 218 238 197 z "},"<":{"ha":354,"x_min":0,"x_max":0,"o":"m 278 233 b 332 296 297 225 332 274 b 164 432 332 331 197 407 b 324 586 176 446 324 558 b 290 640 324 603 307 640 b 29 429 250 640 29 481 b 278 233 29 386 232 254 z m 110 481 b 76 439 104 467 88 449 b 58 439 71 435 63 433 b 101 492 53 449 92 492 b 110 481 108 492 111 485 z "},">":{"ha":375,"x_min":0,"x_max":0,"o":"m 74 238 b 315 438 106 238 315 386 b 74 636 315 481 122 636 b 28 593 54 636 28 617 b 189 438 28 547 160 468 b 24 296 156 406 24 346 b 74 238 24 274 51 238 z m 79 618 b 74 592 88 615 76 600 b 65 575 72 588 68 575 b 56 597 57 575 54 589 b 79 618 57 610 68 622 z m 78 293 b 69 268 78 286 78 268 b 54 290 64 268 54 276 b 68 325 54 304 63 325 b 78 293 75 325 78 303 z "},"^":{"ha":329,"x_min":0,"x_max":0,"o":"m 25 646 b 71 599 22 625 49 599 b 172 736 106 599 158 736 b 263 599 190 736 235 599 b 297 633 279 599 297 617 b 172 894 297 674 204 894 b 25 646 140 894 32 700 z m 131 810 b 124 818 126 810 124 814 b 164 874 124 829 153 874 b 164 856 171 874 168 861 b 131 810 154 844 142 810 z "},"˜":{"ha":443,"x_min":0,"x_max":0,"o":"m 264 883 b 376 1014 325 883 376 954 b 343 1054 376 1029 364 1054 b 269 976 301 1054 308 976 b 136 1051 231 976 193 1051 b 29 935 86 1051 29 986 b 65 897 29 918 47 897 b 103 924 88 897 93 903 b 142 958 108 935 128 958 b 264 883 172 958 203 883 z "},"¯":{"ha":372,"x_min":0,"x_max":0,"o":"m 207 894 b 328 939 268 894 328 897 b 289 986 328 964 318 986 b 213 988 260 986 251 988 b 97 990 174 988 154 990 b 49 936 69 990 49 965 b 103 896 49 918 64 896 b 207 894 133 896 146 894 z "},"−":{"ha":543,"x_min":0,"x_max":0,"o":"m 407 343 b 479 397 436 343 479 358 b 442 460 479 428 461 456 b 150 467 375 474 225 467 b 64 407 100 467 64 451 b 138 344 64 360 104 346 b 407 343 226 342 317 343 z m 97 372 b 83 399 89 372 83 383 b 115 447 83 410 94 447 b 108 411 126 447 114 429 b 97 372 103 392 114 372 z "},"±":{"ha":576,"x_min":0,"x_max":0,"o":"m 296 250 b 364 429 361 250 364 371 b 508 501 407 429 508 438 b 364 557 508 558 436 565 b 290 753 361 608 374 753 b 222 557 221 753 224 604 b 74 490 175 551 74 558 b 146 428 74 443 111 428 b 224 433 175 428 194 432 b 296 250 228 372 228 250 z m 264 639 b 257 654 258 639 257 650 b 290 725 257 672 267 725 b 300 715 297 725 300 717 b 296 706 300 714 300 710 b 264 639 285 694 283 639 z m 275 610 b 264 589 275 603 269 589 b 253 599 261 589 253 590 b 267 618 253 607 257 618 b 275 610 272 618 275 613 z m 435 107 b 507 161 464 107 507 122 b 469 224 507 192 489 219 b 178 231 403 238 253 231 b 92 171 128 231 92 215 b 165 108 92 124 132 110 b 435 107 254 106 344 107 z m 125 136 b 111 163 117 136 111 147 b 143 211 111 174 122 211 b 136 175 154 211 142 193 b 125 136 131 156 142 136 z "},"¦":{"ha":247,"x_min":0,"x_max":0,"o":"m 199 561 l 199 933 b 131 985 199 967 169 985 b 67 925 94 985 67 954 l 67 561 b 131 514 67 529 99 514 b 199 561 164 514 199 531 z m 104 901 b 94 844 103 882 106 844 b 83 874 83 844 83 872 b 114 963 83 890 86 963 b 104 901 133 963 107 944 z m 69 307 l 65 -53 b 126 -131 65 -86 76 -131 b 199 -46 176 -131 199 -86 l 201 307 b 138 356 201 340 169 356 b 69 307 104 356 71 339 z m 124 -97 b 115 -107 124 -100 119 -107 b 82 -64 96 -107 82 -83 b 92 -42 82 -50 88 -42 b 104 -57 99 -42 104 -47 b 111 -85 104 -67 103 -81 b 124 -97 118 -87 124 -90 z "},"¬":{"ha":575,"x_min":0,"x_max":0,"o":"m 160 479 l 401 482 l 401 426 b 453 344 401 369 417 344 b 511 408 489 344 511 368 l 511 540 b 417 594 511 593 456 594 l 160 592 b 71 535 89 590 71 574 b 160 479 71 475 128 479 z m 119 543 b 90 513 107 521 99 513 b 86 518 88 513 86 514 b 119 564 86 529 101 564 b 126 558 122 564 125 561 b 119 543 129 551 122 549 z m 456 382 b 449 372 456 378 453 372 b 422 411 433 372 422 393 b 431 431 422 422 426 431 b 440 417 436 431 440 425 b 446 392 440 407 439 396 b 456 382 451 389 456 388 z "},"~":{"ha":618,"x_min":0,"x_max":0,"o":"m 393 299 b 536 463 475 299 536 381 b 503 517 536 482 531 517 b 403 429 446 517 456 429 b 196 522 350 429 274 522 b 61 374 138 522 61 432 b 99 322 61 351 74 322 b 150 358 129 322 136 331 b 203 394 157 374 183 394 b 393 299 243 394 310 299 z m 111 410 b 88 363 104 379 97 367 b 79 368 83 361 81 363 b 103 432 75 379 76 426 b 114 429 104 432 111 432 b 111 410 122 421 113 415 z "},"ƒ":{"ha":401,"x_min":0,"x_max":0,"o":"m -62 -112 b 31 -164 -61 -154 -26 -172 b 210 61 129 -150 201 -75 l 238 517 l 271 517 b 332 519 290 517 317 519 b 371 571 360 519 371 543 b 331 621 371 600 358 621 l 243 621 l 247 658 b 339 764 258 757 276 775 b 399 819 360 760 399 767 b 318 879 399 854 371 879 b 119 664 194 879 133 813 l 115 621 l 86 621 b 54 572 67 621 54 597 b 86 517 54 546 67 517 l 108 517 l 81 71 b 10 -40 76 -1 47 -32 b -62 -112 -14 -46 -64 -60 z m 168 731 b 157 710 168 718 164 710 b 149 724 153 710 149 717 b 210 825 149 749 179 825 b 201 801 217 825 217 815 b 168 731 186 788 168 750 z m -32 -117 b -44 -107 -36 -117 -44 -112 b 14 -56 -44 -85 -4 -56 b 22 -60 18 -56 22 -56 b -1 -76 22 -74 8 -74 b -32 -117 -26 -82 -24 -117 z "},"⁄":{"ha":554,"x_min":0,"x_max":0,"o":"m 104 -8 b 161 31 121 -8 142 0 b 506 708 178 56 429 546 b 490 860 528 756 554 860 b 394 772 467 860 433 846 b 44 32 335 661 44 104 b 104 -8 44 8 88 -8 z m 101 114 b 83 56 106 110 92 78 b 63 47 71 25 64 28 b 75 96 63 56 69 82 b 101 114 81 110 93 122 z "},"¼":{"ha":817,"x_min":0,"x_max":0,"o":"m 167 357 b 225 396 189 357 225 375 l 225 844 b 171 869 225 867 183 869 b 58 761 146 869 78 790 b 36 726 50 750 38 732 b 79 688 29 703 56 675 b 125 735 96 696 118 735 b 126 715 126 735 126 725 l 126 394 b 167 357 126 369 151 357 z m 203 -8 b 260 31 219 -8 240 0 b 604 708 276 56 528 546 b 589 860 626 756 653 860 b 493 772 565 860 532 846 b 143 32 433 661 143 104 b 203 -8 143 8 186 -8 z m 163 838 b 129 811 156 829 143 808 b 125 815 128 811 125 814 b 143 842 125 822 133 833 b 174 857 154 853 169 857 b 163 838 178 854 171 850 z m 694 0 b 754 57 718 0 754 10 l 754 457 b 703 514 754 497 719 514 b 654 447 672 514 654 503 l 654 203 b 643 194 654 197 653 194 l 574 194 b 567 199 569 194 567 196 b 571 210 567 201 569 206 b 649 489 592 269 649 469 b 607 511 649 503 618 511 b 575 493 596 511 583 510 b 457 161 567 475 457 178 b 493 125 457 142 465 125 l 643 125 b 654 115 650 125 654 121 l 654 51 b 694 0 654 26 668 0 z m 675 464 b 671 472 672 464 671 465 b 683 497 671 482 676 497 b 688 493 685 497 688 496 b 675 464 688 488 681 464 z m 158 397 b 149 378 158 383 156 378 b 149 440 136 378 138 440 b 158 397 154 440 158 404 z m 493 196 b 481 174 488 182 485 174 b 476 183 479 174 476 176 b 497 232 476 194 492 232 b 501 225 501 232 501 231 b 493 196 501 215 497 210 z m 493 156 b 486 150 493 153 488 150 b 479 156 481 150 479 156 b 486 164 479 161 481 164 b 493 156 489 164 493 161 z m 200 114 b 182 56 204 110 190 78 b 161 47 169 25 163 28 b 174 96 161 56 168 82 b 200 114 179 110 192 122 z m 689 35 b 681 18 693 26 688 18 b 667 54 672 18 667 43 b 672 69 667 63 668 69 b 681 58 681 69 681 58 b 689 35 681 53 685 44 z "},"½":{"ha":792,"x_min":0,"x_max":0,"o":"m 167 357 b 225 396 189 357 225 375 l 225 844 b 171 869 225 867 183 869 b 58 761 146 869 78 790 b 36 726 50 750 38 732 b 79 688 29 703 56 675 b 125 735 96 696 118 735 b 126 715 126 735 126 725 l 126 394 b 167 357 126 369 151 357 z m 203 -8 b 260 31 219 -8 240 0 b 604 708 276 56 528 546 b 589 860 626 756 653 860 b 493 772 565 860 532 846 b 143 32 433 661 143 104 b 203 -8 143 8 186 -8 z m 163 838 b 129 811 156 829 143 808 b 125 815 128 811 125 814 b 143 842 125 822 133 833 b 174 857 154 853 169 857 b 163 838 178 854 171 850 z m 517 0 l 710 0 b 764 44 746 0 764 14 b 724 79 764 67 750 81 l 647 76 b 621 76 629 76 621 76 b 757 376 621 88 757 218 b 622 518 757 461 707 518 b 503 392 553 518 503 461 b 554 314 503 347 525 314 b 590 338 567 314 590 322 b 581 388 590 354 581 364 b 621 440 581 425 597 440 b 657 379 644 440 657 425 b 538 104 657 294 615 206 b 499 32 510 68 501 44 b 517 0 496 18 507 0 z m 542 419 b 522 383 533 382 531 376 b 518 399 521 385 518 390 b 540 447 518 406 525 447 b 542 419 544 447 544 436 z m 158 397 b 149 378 158 383 156 378 b 149 440 136 378 138 440 b 158 397 154 440 158 404 z m 540 354 b 529 346 540 351 535 346 b 522 354 525 346 522 351 b 531 363 522 361 526 363 b 540 354 535 363 540 361 z m 200 114 b 182 56 204 110 190 78 b 161 47 169 25 163 28 b 174 96 161 56 168 82 b 200 114 179 110 192 122 z m 535 42 b 525 15 532 26 529 17 b 517 25 521 15 518 18 b 536 67 514 42 526 64 b 535 42 538 67 538 58 z "},"¾":{"ha":794,"x_min":0,"x_max":0,"o":"m 154 344 b 311 507 244 344 311 406 b 178 656 311 608 250 644 b 185 696 154 658 157 665 b 279 833 201 714 279 810 b 257 863 279 843 276 863 l 81 863 b 47 831 64 863 47 863 b 81 790 47 804 61 790 l 132 789 b 149 783 143 789 149 789 b 101 717 149 779 131 750 b 56 631 64 675 56 650 b 119 600 56 608 74 600 b 214 507 185 600 214 574 b 154 428 214 451 199 428 b 56 457 106 428 83 457 b 36 428 43 457 36 444 b 154 344 36 383 81 344 z m 214 -8 b 271 31 231 -8 251 0 b 618 726 288 56 535 557 b 600 860 642 774 664 860 b 504 772 576 860 543 846 b 154 32 444 661 154 104 b 214 -8 154 8 197 -8 z m 74 840 b 68 815 71 832 71 815 b 60 831 63 815 60 822 b 74 856 60 839 63 856 b 74 840 78 856 76 850 z m 85 642 b 75 625 82 631 78 625 b 69 633 71 625 69 629 b 104 685 69 649 94 685 b 100 668 108 685 104 676 b 85 642 94 660 88 649 z m 706 0 b 765 57 729 0 765 10 l 765 457 b 714 514 765 497 731 514 b 665 447 683 514 665 503 l 665 203 b 654 194 665 197 664 194 l 585 194 b 578 199 581 194 578 196 b 582 210 578 201 581 206 b 660 489 603 269 660 469 b 618 511 660 503 629 511 b 586 493 607 511 594 510 b 468 161 578 475 468 178 b 504 125 468 142 476 125 l 654 125 b 665 115 661 125 665 121 l 665 51 b 706 0 665 26 679 0 z m 686 464 b 682 472 683 464 682 465 b 694 497 682 482 688 497 b 699 493 696 497 699 496 b 686 464 699 488 692 464 z m 65 425 b 58 407 65 413 61 407 b 49 415 54 407 49 410 b 54 439 47 425 51 433 b 65 425 61 449 65 443 z m 504 196 b 492 174 499 182 496 174 b 488 183 490 174 488 176 b 508 232 488 194 503 232 b 513 225 513 232 513 231 b 504 196 513 215 508 210 z m 504 156 b 497 150 504 153 499 150 b 490 156 492 150 490 156 b 497 164 490 161 492 164 b 504 156 500 164 504 161 z m 211 114 b 193 56 215 110 201 78 b 172 47 181 25 174 28 b 185 96 172 56 179 82 b 211 114 190 110 203 122 z m 700 35 b 692 18 704 26 699 18 b 678 54 683 18 678 43 b 683 69 678 63 679 69 b 692 58 692 69 692 58 b 700 35 692 53 696 44 z "},"˙":{"ha":254,"x_min":0,"x_max":0,"o":"m 125 894 b 189 957 156 894 189 917 b 125 1021 189 997 156 1021 b 60 957 94 1021 60 997 b 125 894 60 917 94 894 z "},"˚":{"ha":265,"x_min":0,"x_max":0,"o":"m 133 867 b 226 960 183 867 226 911 b 131 1054 226 1014 181 1054 b 43 951 85 1054 43 1014 b 133 867 43 896 86 867 z m 131 929 b 106 954 119 929 106 940 b 133 988 106 976 114 988 b 160 964 149 988 160 971 b 131 929 160 950 147 929 z "},"˝":{"ha":379,"x_min":0,"x_max":0,"o":"m 65 889 b 90 879 74 883 81 879 b 200 1019 131 879 193 982 b 160 1069 201 1039 174 1069 b 76 986 144 1069 118 1044 b 65 889 47 946 44 904 z m 233 878 b 344 1031 260 878 350 992 b 300 1067 343 1044 313 1067 b 183 913 268 1067 176 956 b 233 878 188 888 200 878 z "},"˛":{"ha":283,"x_min":0,"x_max":0,"o":"m 176 -229 b 269 -158 214 -229 269 -200 b 243 -129 269 -136 258 -129 b 176 -139 224 -129 197 -139 b 139 -92 154 -139 139 -118 b 197 14 139 -25 197 -19 b 161 50 197 29 186 50 b 33 -106 101 50 33 -21 b 176 -229 33 -167 85 -229 z "},"ˇ":{"ha":367,"x_min":0,"x_max":0,"o":"m 53 1046 b 181 886 53 1006 139 886 b 303 1044 221 886 303 1008 b 254 1083 303 1068 276 1083 b 182 1004 217 1083 204 1035 b 99 1086 154 1035 139 1086 b 53 1046 81 1086 53 1064 z "},"`":{"ha":296,"x_min":0,"x_max":0,"o":"m 190 886 b 188 989 213 908 217 949 b 104 1072 146 1047 119 1072 b 64 1019 81 1072 63 1039 b 169 875 71 986 136 875 b 190 886 176 875 183 879 z "},"ˆ":{"ha":351,"x_min":0,"x_max":0,"o":"m 53 926 b 99 886 53 908 81 886 b 182 968 139 886 154 938 b 254 889 204 938 217 889 b 303 928 276 889 303 904 b 181 1086 303 964 221 1086 b 53 926 139 1086 53 967 z "},"¨":{"ha":399,"x_min":0,"x_max":0,"o":"m 125 894 b 189 957 156 894 189 917 b 125 1021 189 997 156 1021 b 60 957 94 1021 60 997 b 125 894 60 917 94 894 z m 278 894 b 342 957 308 894 342 917 b 278 1021 342 997 308 1021 b 213 957 247 1021 213 997 b 278 894 213 917 247 894 z "},"´":{"ha":269,"x_min":0,"x_max":0,"o":"m 65 889 b 90 879 74 883 81 879 b 200 1019 131 879 193 982 b 160 1069 201 1039 174 1069 b 76 986 144 1069 118 1044 b 65 889 47 946 44 904 z "},"¸":{"ha":311,"x_min":0,"x_max":0,"o":"m 135 -235 b 276 -129 217 -235 276 -190 b 200 -35 276 -103 274 -35 b 221 26 189 -35 217 8 b 174 57 226 51 192 57 b 93 -35 149 57 93 1 b 179 -118 93 -99 179 -92 b 140 -144 179 -140 156 -144 b 58 -124 117 -144 81 -124 b 36 -153 44 -124 36 -131 b 135 -235 36 -214 97 -235 z "},"Þ":{"ha":492,"x_min":0,"x_max":0,"o":"m 101 0 b 181 163 179 0 181 101 l 181 164 b 478 442 397 157 478 278 b 221 697 478 606 421 697 b 181 696 203 697 190 697 l 181 775 b 101 858 181 846 143 858 b 42 753 60 858 42 832 l 42 143 b 101 0 42 35 57 0 z m 83 782 b 74 767 83 772 78 767 b 63 792 67 767 63 776 b 96 840 63 819 79 840 b 104 836 101 840 104 839 b 79 797 104 831 79 819 b 83 782 79 788 83 782 z m 181 279 l 181 579 b 269 583 213 586 254 583 b 340 444 332 583 340 497 b 243 279 340 306 310 279 z m 71 106 b 61 192 63 106 61 126 b 69 240 61 236 65 240 b 78 192 74 240 78 235 b 71 106 78 178 78 106 z m 71 90 b 79 78 79 90 79 88 b 72 63 79 69 76 63 b 63 78 68 63 63 65 b 71 90 63 85 65 90 z "},"þ":{"ha":543,"x_min":0,"x_max":0,"o":"m 96 -24 b 175 47 147 -24 175 7 l 175 151 b 182 167 175 161 178 167 b 308 100 196 167 215 100 b 529 439 444 100 529 231 b 324 769 529 639 431 769 b 171 658 219 769 189 658 b 165 792 165 658 165 767 b 90 858 165 833 135 858 b 31 769 57 858 31 826 l 31 65 b 96 -24 31 8 44 -24 z m 67 749 b 51 719 65 731 56 719 b 43 753 47 719 43 732 b 69 828 43 792 56 828 b 78 801 79 828 85 815 b 67 749 68 785 68 765 z m 293 225 b 181 378 229 225 181 301 b 310 631 181 454 247 631 b 393 447 356 631 393 557 b 293 225 393 319 365 225 z m 97 25 b 88 11 97 18 93 11 b 51 64 67 11 51 39 b 63 90 51 79 57 90 b 76 71 71 90 76 83 b 83 38 76 58 74 43 b 97 25 92 33 97 32 z "},"ð":{"ha":550,"x_min":0,"x_max":0,"o":"m 269 -15 b 533 313 469 -15 533 124 b 407 744 533 468 490 638 b 428 847 443 782 464 811 b 397 863 417 858 407 863 b 332 815 371 863 350 835 b 176 861 286 846 213 861 b 126 831 160 861 126 853 b 176 769 126 821 126 786 b 233 739 197 763 215 751 l 204 708 b 179 606 154 657 153 632 b 211 590 190 594 200 590 b 276 635 236 590 261 618 l 303 663 b 382 451 335 614 382 511 b 376 438 382 443 381 438 b 240 493 365 438 326 493 b 15 244 110 493 15 375 b 269 -15 15 92 136 -15 z m 272 103 b 157 251 196 103 157 164 b 253 375 157 314 190 375 b 393 247 325 375 393 315 b 272 103 393 171 363 103 z m 94 165 b 103 131 97 150 103 139 b 94 122 103 125 101 122 b 53 249 85 122 46 215 b 63 263 54 257 60 263 b 76 236 71 263 74 249 b 94 165 82 211 89 189 z "},"™":{"ha":803,"x_min":0,"x_max":0,"o":"m 197 510 b 251 549 219 510 251 524 l 251 943 l 258 943 b 325 983 286 943 325 944 b 299 1018 325 999 315 1018 l 108 1018 b 68 981 85 1018 68 1004 b 154 943 68 940 126 943 l 154 543 b 197 510 154 524 181 510 z m 667 510 b 722 582 701 510 722 546 l 722 906 b 658 1018 722 932 717 1018 b 535 867 604 1018 554 897 b 528 861 532 863 531 861 b 519 867 526 861 522 863 b 392 1018 500 889 456 1018 b 361 997 379 1018 368 1007 b 349 913 351 979 349 946 l 349 579 b 383 510 349 528 361 510 b 438 582 413 510 438 533 l 438 826 b 442 844 438 833 438 844 b 447 839 443 844 444 843 b 526 731 467 807 500 731 b 615 849 560 731 599 849 b 624 828 621 849 624 836 l 621 586 b 667 510 621 561 621 510 z m 88 967 b 79 979 82 967 79 975 b 97 1007 79 992 88 1007 b 101 1003 100 1007 103 1006 b 92 972 94 993 92 981 b 88 967 92 968 89 967 z m 369 933 b 361 928 369 931 365 928 b 358 949 357 929 357 940 b 386 1004 360 968 374 1006 b 392 999 389 1004 394 1003 b 369 933 379 978 371 951 z m 182 529 b 164 567 168 529 164 556 b 172 593 164 571 164 593 b 176 564 181 593 176 568 b 186 540 176 558 179 542 b 189 536 189 540 189 539 b 182 529 189 532 188 529 z m 657 528 b 654 524 657 525 656 524 b 632 575 640 524 632 564 b 638 585 632 579 633 585 b 646 574 644 585 646 578 b 657 528 646 554 657 540 z m 379 525 b 376 519 379 524 378 519 b 360 563 360 519 356 563 b 379 525 368 563 379 533 z "},"…":{"ha":608,"x_min":0,"x_max":0,"o":"m 92 -8 b 178 85 142 -8 178 40 b 96 168 178 139 150 168 b 8 72 44 168 8 121 b 92 -8 8 22 46 -8 z m 294 -8 b 381 85 344 -8 381 40 b 299 168 381 139 353 168 b 211 72 247 168 211 121 b 294 -8 211 22 249 -8 z m 497 -8 b 583 85 547 -8 583 40 b 501 168 583 139 556 168 b 414 72 450 168 414 121 b 497 -8 414 22 451 -8 z m 44 57 b 36 74 36 57 36 69 b 83 146 36 93 63 147 b 89 135 88 146 90 138 b 56 82 78 115 63 101 b 44 57 53 75 53 57 z m 247 57 b 239 74 239 57 239 69 b 286 146 239 93 265 147 b 292 135 290 146 293 138 b 258 82 281 115 265 101 b 247 57 256 75 256 57 z m 450 57 b 442 74 442 57 442 69 b 489 146 442 93 468 147 b 494 135 493 146 496 138 b 461 82 483 115 468 101 b 450 57 458 75 458 57 z "},"À":{"ha":626,"x_min":0,"x_max":0,"o":"m 368 886 b 365 989 390 908 394 949 b 282 1072 324 1047 297 1072 b 242 1019 258 1072 240 1039 b 347 875 249 986 314 875 b 368 886 354 875 361 879 z m 321 863 b 149 690 233 863 194 831 b 18 67 88 499 18 163 b 68 -3 18 21 35 -3 b 158 86 108 -3 144 32 l 194 225 b 253 253 200 244 217 253 b 369 251 274 253 317 251 b 410 211 388 251 403 247 b 469 15 425 135 453 38 b 515 -4 478 3 494 -4 b 607 67 560 -4 607 29 b 435 815 607 133 467 750 b 321 863 421 842 379 863 z m 236 779 b 204 725 215 756 213 724 b 222 804 189 728 201 774 b 267 831 236 824 251 833 b 236 779 279 829 256 803 z m 258 524 b 311 711 264 553 292 711 b 357 496 332 711 350 535 b 368 385 371 421 382 385 l 246 385 b 258 524 229 385 239 419 z m 63 88 b 61 46 60 71 57 57 b 56 25 67 31 64 24 b 42 107 40 29 35 71 b 54 125 44 121 51 125 b 63 88 61 124 67 110 z m 486 89 b 501 22 497 68 513 21 b 461 108 482 24 460 92 b 468 122 463 117 464 122 b 486 89 472 122 474 114 z "},"Á":{"ha":626,"x_min":0,"x_max":0,"o":"m 253 889 b 278 879 261 883 268 879 b 388 1019 318 879 381 982 b 347 1069 389 1039 361 1069 b 264 986 332 1069 306 1044 b 253 889 235 946 232 904 z m 321 863 b 149 690 233 863 194 831 b 18 67 88 499 18 163 b 68 -3 18 21 35 -3 b 158 86 108 -3 144 32 l 194 225 b 253 253 200 244 217 253 b 369 251 274 253 317 251 b 410 211 388 251 403 247 b 469 15 425 135 453 38 b 515 -4 478 3 494 -4 b 607 67 560 -4 607 29 b 435 815 607 133 467 750 b 321 863 421 842 379 863 z m 236 779 b 204 725 215 756 213 724 b 222 804 189 728 201 774 b 267 831 236 824 251 833 b 236 779 279 829 256 803 z m 258 524 b 311 711 264 553 292 711 b 357 496 332 711 350 535 b 368 385 371 421 382 385 l 246 385 b 258 524 229 385 239 419 z m 63 88 b 61 46 60 71 57 57 b 56 25 67 31 64 24 b 42 107 40 29 35 71 b 54 125 44 121 51 125 b 63 88 61 124 67 110 z m 486 89 b 501 22 497 68 513 21 b 461 108 482 24 460 92 b 468 122 463 117 464 122 b 486 89 472 122 474 114 z "},"Â":{"ha":626,"x_min":0,"x_max":0,"o":"m 189 926 b 235 886 189 908 217 886 b 318 968 275 886 290 938 b 390 889 340 938 353 889 b 439 928 413 889 439 904 b 317 1086 439 964 357 1086 b 189 926 275 1086 189 967 z m 321 863 b 149 690 233 863 194 831 b 18 67 88 499 18 163 b 68 -3 18 21 35 -3 b 158 86 108 -3 144 32 l 194 225 b 253 253 200 244 217 253 b 369 251 274 253 317 251 b 410 211 388 251 403 247 b 469 15 425 135 453 38 b 515 -4 478 3 494 -4 b 607 67 560 -4 607 29 b 435 815 607 133 467 750 b 321 863 421 842 379 863 z m 236 779 b 204 725 215 756 213 724 b 222 804 189 728 201 774 b 267 831 236 824 251 833 b 236 779 279 829 256 803 z m 258 524 b 311 711 264 553 292 711 b 357 496 332 711 350 535 b 368 385 371 421 382 385 l 246 385 b 258 524 229 385 239 419 z m 63 88 b 61 46 60 71 57 57 b 56 25 67 31 64 24 b 42 107 40 29 35 71 b 54 125 44 121 51 125 b 63 88 61 124 67 110 z m 486 89 b 501 22 497 68 513 21 b 461 108 482 24 460 92 b 468 122 463 117 464 122 b 486 89 472 122 474 114 z "},"Ã":{"ha":626,"x_min":0,"x_max":0,"o":"m 375 883 b 488 1014 436 883 488 954 b 454 1054 488 1029 475 1054 b 381 976 413 1054 419 976 b 247 1051 342 976 304 1051 b 140 935 197 1051 140 986 b 176 897 140 918 158 897 b 214 924 199 897 204 903 b 253 958 219 935 239 958 b 375 883 283 958 314 883 z m 321 863 b 149 690 233 863 194 831 b 18 67 88 499 18 163 b 68 -3 18 21 35 -3 b 158 86 108 -3 144 32 l 194 225 b 253 253 200 244 217 253 b 369 251 274 253 317 251 b 410 211 388 251 403 247 b 469 15 425 135 453 38 b 515 -4 478 3 494 -4 b 607 67 560 -4 607 29 b 435 815 607 133 467 750 b 321 863 421 842 379 863 z m 236 779 b 204 725 215 756 213 724 b 222 804 189 728 201 774 b 267 831 236 824 251 833 b 236 779 279 829 256 803 z m 258 524 b 311 711 264 553 292 711 b 357 496 332 711 350 535 b 368 385 371 421 382 385 l 246 385 b 258 524 229 385 239 419 z m 63 88 b 61 46 60 71 57 57 b 56 25 67 31 64 24 b 42 107 40 29 35 71 b 54 125 44 121 51 125 b 63 88 61 124 67 110 z m 486 89 b 501 22 497 68 513 21 b 461 108 482 24 460 92 b 468 122 463 117 464 122 b 486 89 472 122 474 114 z "},"Ä":{"ha":626,"x_min":0,"x_max":0,"o":"m 238 894 b 301 957 268 894 301 917 b 238 1021 301 997 268 1021 b 172 957 207 1021 172 997 b 238 894 172 917 207 894 z m 390 894 b 454 957 421 894 454 917 b 390 1021 454 997 421 1021 b 325 957 360 1021 325 997 b 390 894 325 917 360 894 z m 321 863 b 149 690 233 863 194 831 b 18 67 88 499 18 163 b 68 -3 18 21 35 -3 b 158 86 108 -3 144 32 l 194 225 b 253 253 200 244 217 253 b 369 251 274 253 317 251 b 410 211 388 251 403 247 b 469 15 425 135 453 38 b 515 -4 478 3 494 -4 b 607 67 560 -4 607 29 b 435 815 607 133 467 750 b 321 863 421 842 379 863 z m 236 779 b 204 725 215 756 213 724 b 222 804 189 728 201 774 b 267 831 236 824 251 833 b 236 779 279 829 256 803 z m 258 524 b 311 711 264 553 292 711 b 357 496 332 711 350 535 b 368 385 371 421 382 385 l 246 385 b 258 524 229 385 239 419 z m 63 88 b 61 46 60 71 57 57 b 56 25 67 31 64 24 b 42 107 40 29 35 71 b 54 125 44 121 51 125 b 63 88 61 124 67 110 z m 486 89 b 501 22 497 68 513 21 b 461 108 482 24 460 92 b 468 122 463 117 464 122 b 486 89 472 122 474 114 z "},"Å":{"ha":626,"x_min":0,"x_max":0,"o":"m 313 867 b 406 960 363 867 406 911 b 310 1054 406 1014 360 1054 b 222 951 264 1054 222 1014 b 313 867 222 896 265 867 z m 310 929 b 285 954 299 929 285 940 b 313 988 285 976 293 988 b 339 964 328 988 339 971 b 310 929 339 950 326 929 z m 321 863 b 149 690 233 863 194 831 b 18 67 88 499 18 163 b 68 -3 18 21 35 -3 b 158 86 108 -3 144 32 l 194 225 b 253 253 200 244 217 253 b 369 251 274 253 317 251 b 410 211 388 251 403 247 b 469 15 425 135 453 38 b 515 -4 478 3 494 -4 b 607 67 560 -4 607 29 b 435 815 607 133 467 750 b 321 863 421 842 379 863 z m 236 779 b 204 725 215 756 213 724 b 222 804 189 728 201 774 b 267 831 236 824 251 833 b 236 779 279 829 256 803 z m 258 524 b 311 711 264 553 292 711 b 357 496 332 711 350 535 b 368 385 371 421 382 385 l 246 385 b 258 524 229 385 239 419 z m 63 88 b 61 46 60 71 57 57 b 56 25 67 31 64 24 b 42 107 40 29 35 71 b 54 125 44 121 51 125 b 63 88 61 124 67 110 z m 486 89 b 501 22 497 68 513 21 b 461 108 482 24 460 92 b 468 122 463 117 464 122 b 486 89 472 122 474 114 z "},"Æ":{"ha":921,"x_min":0,"x_max":0,"o":"m 321 863 b 149 690 233 863 194 831 b 18 67 88 499 18 163 b 68 -3 18 21 35 -3 b 158 86 108 -3 144 32 l 194 225 b 253 253 200 244 217 253 b 369 251 274 253 317 251 b 410 211 388 251 403 247 b 469 15 425 135 453 38 b 515 -4 478 3 494 -4 b 689 -6 536 -12 631 -6 b 899 90 744 -6 899 15 b 863 165 899 118 888 165 b 700 124 826 165 761 124 b 608 247 606 124 608 169 l 608 339 b 646 382 608 368 617 381 l 806 388 b 850 443 843 389 850 419 b 804 515 850 481 840 515 l 639 514 b 608 556 618 514 608 528 l 608 683 b 639 717 608 701 621 717 l 835 722 b 879 793 864 724 879 761 b 829 856 879 825 863 856 b 558 856 801 856 608 856 b 453 764 517 856 464 836 b 435 815 446 789 439 807 b 321 863 421 842 379 863 z m 236 779 b 204 725 215 756 213 724 b 222 804 189 728 201 774 b 267 831 236 824 251 833 b 236 779 279 829 256 803 z m 258 524 b 311 711 264 553 292 711 b 357 496 332 711 350 535 b 368 385 371 421 382 385 l 246 385 b 258 524 229 385 239 419 z m 481 93 b 496 26 492 72 507 25 b 456 113 476 28 454 96 b 463 126 457 121 458 126 b 481 93 467 126 468 118 z m 63 88 b 61 46 60 71 57 57 b 56 25 67 31 64 24 b 42 107 40 29 35 71 b 54 125 44 121 51 125 b 63 88 61 124 67 110 z "},"Ç":{"ha":536,"x_min":0,"x_max":0,"o":"m 247 -235 b 389 -129 329 -235 389 -190 b 313 -35 389 -103 386 -35 b 317 -12 307 -35 311 -25 b 515 175 426 -3 515 79 b 460 254 515 222 493 254 b 382 181 422 254 382 217 b 310 122 382 147 350 122 b 181 403 225 122 181 228 b 329 733 181 597 238 733 b 383 676 364 733 382 714 b 460 589 385 626 417 589 b 517 668 497 589 517 617 b 310 865 517 778 425 865 b 15 406 138 865 15 668 b 217 -1 15 197 92 43 b 206 -35 210 -12 206 -25 b 292 -118 206 -99 292 -92 b 253 -144 292 -140 268 -144 b 171 -124 229 -144 193 -124 b 149 -153 157 -124 149 -131 b 247 -235 149 -214 210 -235 z m 132 713 b 126 719 131 713 126 713 b 288 844 131 761 225 850 b 303 831 297 843 304 838 b 283 821 303 825 293 819 b 132 713 226 825 144 711 z m 118 697 b 103 657 133 696 115 656 b 99 669 100 657 99 663 b 118 697 100 683 110 697 z "},"Ð":{"ha":568,"x_min":0,"x_max":0,"o":"m 149 0 l 225 0 b 551 453 400 0 551 181 b 244 858 551 708 403 858 l 182 858 b 22 717 96 858 22 818 l 22 574 b -47 513 -12 569 -47 554 b 22 451 -47 471 -17 453 l 22 122 b 149 0 22 26 82 0 z m 200 133 b 181 183 188 133 181 146 l 181 454 b 282 526 231 454 282 467 b 218 578 282 567 250 578 b 181 578 206 578 193 578 l 181 667 b 219 722 181 713 188 722 l 240 722 b 390 457 328 722 390 632 b 218 133 390 261 315 133 z m -22 486 b -32 504 -25 486 -32 490 b 4 556 -32 522 -19 556 b 13 540 13 556 13 547 b -22 486 13 533 -8 486 z m 65 115 b 53 224 51 115 53 142 b 65 300 53 279 60 300 b 74 224 71 300 74 276 b 65 115 74 206 81 115 z m 64 96 b 75 81 74 96 75 93 b 65 56 75 69 71 56 b 54 81 60 56 54 65 b 64 96 54 89 57 96 z "},"Đ":{"ha":568,"x_min":0,"x_max":0,"o":"m 149 0 l 225 0 b 551 453 400 0 551 181 b 244 858 551 708 403 858 l 182 858 b 22 717 96 858 22 818 l 22 574 b -47 513 -12 569 -47 554 b 22 451 -47 471 -17 453 l 22 122 b 149 0 22 26 82 0 z m 200 133 b 181 183 188 133 181 146 l 181 454 b 282 526 231 454 282 467 b 218 578 282 567 250 578 b 181 578 206 578 193 578 l 181 667 b 219 722 181 713 188 722 l 240 722 b 390 457 328 722 390 632 b 218 133 390 261 315 133 z m -22 486 b -32 504 -25 486 -32 490 b 4 556 -32 522 -19 556 b 13 540 13 556 13 547 b -22 486 13 533 -8 486 z m 65 115 b 53 224 51 115 53 142 b 65 300 53 279 60 300 b 74 224 71 300 74 276 b 65 115 74 206 81 115 z m 64 96 b 75 81 74 96 75 93 b 65 56 75 69 71 56 b 54 81 60 56 54 65 b 64 96 54 89 57 96 z "},"È":{"ha":503,"x_min":0,"x_max":0,"o":"m 306 886 b 303 989 328 908 332 949 b 219 1072 261 1047 235 1072 b 179 1019 196 1072 178 1039 b 285 875 186 986 251 875 b 306 886 292 875 299 879 z m 271 -6 b 481 90 326 -6 481 15 b 444 165 481 118 469 165 b 282 124 408 165 343 124 b 190 247 188 124 190 169 l 190 339 b 228 382 190 368 199 381 l 388 388 b 432 443 425 389 432 419 b 386 515 432 481 422 515 l 221 514 b 190 556 200 514 190 528 l 190 683 b 221 717 190 701 203 717 l 417 722 b 461 793 446 724 461 761 b 411 856 461 825 444 856 b 140 856 383 856 190 856 b 32 732 93 856 32 829 l 32 164 b 271 -6 32 31 131 -6 z m 121 83 b 122 64 129 72 128 65 b 57 163 90 60 61 128 b 64 188 54 178 58 188 b 76 169 69 189 74 182 b 121 83 81 142 99 113 z "},"É":{"ha":503,"x_min":0,"x_max":0,"o":"m 190 889 b 215 879 199 883 206 879 b 325 1019 256 879 318 982 b 285 1069 326 1039 299 1069 b 201 986 269 1069 243 1044 b 190 889 172 946 169 904 z m 271 -6 b 481 90 326 -6 481 15 b 444 165 481 118 469 165 b 282 124 408 165 343 124 b 190 247 188 124 190 169 l 190 339 b 228 382 190 368 199 381 l 388 388 b 432 443 425 389 432 419 b 386 515 432 481 422 515 l 221 514 b 190 556 200 514 190 528 l 190 683 b 221 717 190 701 203 717 l 417 722 b 461 793 446 724 461 761 b 411 856 461 825 444 856 b 140 856 383 856 190 856 b 32 732 93 856 32 829 l 32 164 b 271 -6 32 31 131 -6 z m 121 83 b 122 64 129 72 128 65 b 57 163 90 60 61 128 b 64 188 54 178 58 188 b 76 169 69 189 74 182 b 121 83 81 142 99 113 z "},"Ê":{"ha":503,"x_min":0,"x_max":0,"o":"m 126 926 b 172 886 126 908 154 886 b 256 968 213 886 228 938 b 328 889 278 938 290 889 b 376 928 350 889 376 904 b 254 1086 376 964 294 1086 b 126 926 213 1086 126 967 z m 271 -6 b 481 90 326 -6 481 15 b 444 165 481 118 469 165 b 282 124 408 165 343 124 b 190 247 188 124 190 169 l 190 339 b 228 382 190 368 199 381 l 388 388 b 432 443 425 389 432 419 b 386 515 432 481 422 515 l 221 514 b 190 556 200 514 190 528 l 190 683 b 221 717 190 701 203 717 l 417 722 b 461 793 446 724 461 761 b 411 856 461 825 444 856 b 140 856 383 856 190 856 b 32 732 93 856 32 829 l 32 164 b 271 -6 32 31 131 -6 z m 121 83 b 122 64 129 72 128 65 b 57 163 90 60 61 128 b 64 188 54 178 58 188 b 76 169 69 189 74 182 b 121 83 81 142 99 113 z "},"Ë":{"ha":503,"x_min":0,"x_max":0,"o":"m 176 894 b 240 957 207 894 240 917 b 176 1021 240 997 207 1021 b 111 957 146 1021 111 997 b 176 894 111 917 146 894 z m 329 894 b 393 957 360 894 393 917 b 329 1021 393 997 360 1021 b 264 957 299 1021 264 997 b 329 894 264 917 299 894 z m 271 -6 b 481 90 326 -6 481 15 b 444 165 481 118 469 165 b 282 124 408 165 343 124 b 190 247 188 124 190 169 l 190 339 b 228 382 190 368 199 381 l 388 388 b 432 443 425 389 432 419 b 386 515 432 481 422 515 l 221 514 b 190 556 200 514 190 528 l 190 683 b 221 717 190 701 203 717 l 417 722 b 461 793 446 724 461 761 b 411 856 461 825 444 856 b 140 856 383 856 190 856 b 32 732 93 856 32 829 l 32 164 b 271 -6 32 31 131 -6 z m 121 83 b 122 64 129 72 128 65 b 57 163 90 60 61 128 b 64 188 54 178 58 188 b 76 169 69 189 74 182 b 121 83 81 142 99 113 z "},"Ì":{"ha":322,"x_min":0,"x_max":0,"o":"m 215 886 b 213 989 238 908 242 949 b 129 1072 171 1047 144 1072 b 89 1019 106 1072 88 1039 b 194 875 96 986 161 875 b 215 886 201 875 208 879 z m 74 1 b 185 0 92 1 143 -1 b 288 11 233 1 276 1 b 299 38 294 17 299 28 b 292 54 299 46 294 51 b 253 67 286 58 271 61 b 243 94 244 69 243 86 l 243 760 b 258 786 243 775 250 783 b 303 835 275 792 303 808 b 169 860 303 854 279 860 b 13 825 47 860 13 850 b 61 788 13 806 22 788 b 94 761 75 788 94 775 l 94 94 b 75 69 94 82 88 69 b 25 33 44 69 25 51 b 74 1 25 7 54 1 z m 142 207 b 124 138 142 139 135 126 b 129 275 113 149 117 275 b 142 207 138 275 142 246 z m 142 107 b 129 96 142 100 136 96 b 117 107 121 96 117 100 b 131 117 117 117 124 117 b 142 107 131 117 142 117 z "},"Í":{"ha":322,"x_min":0,"x_max":0,"o":"m 100 889 b 125 879 108 883 115 879 b 235 1019 165 879 228 982 b 194 1069 236 1039 208 1069 b 111 986 179 1069 153 1044 b 100 889 82 946 79 904 z m 74 1 b 185 0 92 1 143 -1 b 288 11 233 1 276 1 b 299 38 294 17 299 28 b 292 54 299 46 294 51 b 253 67 286 58 271 61 b 243 94 244 69 243 86 l 243 760 b 258 786 243 775 250 783 b 303 835 275 792 303 808 b 169 860 303 854 279 860 b 13 825 47 860 13 850 b 61 788 13 806 22 788 b 94 761 75 788 94 775 l 94 94 b 75 69 94 82 88 69 b 25 33 44 69 25 51 b 74 1 25 7 54 1 z m 142 207 b 124 138 142 139 135 126 b 129 275 113 149 117 275 b 142 207 138 275 142 246 z m 142 107 b 129 96 142 100 136 96 b 117 107 121 96 117 100 b 131 117 117 117 124 117 b 142 107 131 117 142 117 z "},"Î":{"ha":322,"x_min":0,"x_max":0,"o":"m 36 926 b 82 886 36 908 64 886 b 165 968 122 886 138 938 b 238 889 188 938 200 889 b 286 928 260 889 286 904 b 164 1086 286 964 204 1086 b 36 926 122 1086 36 967 z m 74 1 b 185 0 92 1 143 -1 b 288 11 233 1 276 1 b 299 38 294 17 299 28 b 292 54 299 46 294 51 b 253 67 286 58 271 61 b 243 94 244 69 243 86 l 243 760 b 258 786 243 775 250 783 b 303 835 275 792 303 808 b 169 860 303 854 279 860 b 13 825 47 860 13 850 b 61 788 13 806 22 788 b 94 761 75 788 94 775 l 94 94 b 75 69 94 82 88 69 b 25 33 44 69 25 51 b 74 1 25 7 54 1 z m 142 207 b 124 138 142 139 135 126 b 129 275 113 149 117 275 b 142 207 138 275 142 246 z m 142 107 b 129 96 142 100 136 96 b 117 107 121 96 117 100 b 131 117 117 117 124 117 b 142 107 131 117 142 117 z "},"Ï":{"ha":322,"x_min":0,"x_max":0,"o":"m 85 894 b 149 957 115 894 149 917 b 85 1021 149 997 115 1021 b 19 957 54 1021 19 997 b 85 894 19 917 54 894 z m 238 894 b 301 957 268 894 301 917 b 238 1021 301 997 268 1021 b 172 957 207 1021 172 997 b 238 894 172 917 207 894 z m 74 1 b 185 0 92 1 143 -1 b 288 11 233 1 276 1 b 299 38 294 17 299 28 b 292 54 299 46 294 51 b 253 67 286 58 271 61 b 243 94 244 69 243 86 l 243 760 b 258 786 243 775 250 783 b 303 835 275 792 303 808 b 169 860 303 854 279 860 b 13 825 47 860 13 850 b 61 788 13 806 22 788 b 94 761 75 788 94 775 l 94 94 b 75 69 94 82 88 69 b 25 33 44 69 25 51 b 74 1 25 7 54 1 z m 142 207 b 124 138 142 139 135 126 b 129 275 113 149 117 275 b 142 207 138 275 142 246 z m 142 107 b 129 96 142 100 136 96 b 117 107 121 96 117 100 b 131 117 117 117 124 117 b 142 107 131 117 142 117 z "},"Ł":{"ha":446,"x_min":0,"x_max":0,"o":"m 83 0 b 190 0 107 0 171 0 l 306 -1 b 371 -1 325 -1 347 -1 b 425 75 396 -1 425 38 b 392 135 425 100 418 135 b 235 131 328 135 299 131 b 203 168 218 131 203 135 l 203 376 b 222 381 211 378 218 379 b 278 449 256 389 288 407 b 222 476 271 478 246 481 b 203 471 217 475 210 472 l 203 778 b 125 856 203 814 167 856 b 44 768 51 856 44 807 l 44 433 b 32 431 39 432 36 432 b -22 371 3 424 -31 407 b 42 338 -15 339 13 331 l 43 338 l 44 38 b 83 0 44 17 63 0 z m 69 763 b 63 771 65 763 63 767 b 97 839 60 786 78 838 b 108 832 103 839 108 836 b 69 763 107 821 81 763 z m 0 356 b -10 367 -1 354 -8 357 b 8 410 -12 381 -10 407 b 17 400 14 411 15 406 b 0 356 18 396 10 357 z m 85 82 b 68 181 71 82 68 169 b 79 265 68 190 68 265 b 99 215 96 265 99 231 b 85 82 99 176 103 82 z m 108 42 b 96 31 108 35 101 31 b 85 42 89 31 85 35 b 99 57 85 50 89 57 b 108 42 103 57 108 50 z "},"Ñ":{"ha":610,"x_min":0,"x_max":0,"o":"m 367 883 b 479 1014 428 883 479 954 b 446 1054 479 1029 467 1054 b 372 976 404 1054 411 976 b 239 1051 333 976 296 1051 b 132 935 189 1051 132 986 b 168 897 132 918 150 897 b 206 924 190 897 196 903 b 244 958 211 935 231 958 b 367 883 275 958 306 883 z m 100 0 b 175 201 153 0 175 57 l 175 422 b 185 515 175 486 178 515 b 204 485 190 515 196 506 b 435 57 267 336 418 83 b 522 0 451 31 486 0 b 576 157 564 0 576 65 l 576 781 b 508 856 576 810 578 856 b 429 749 438 856 429 808 l 429 407 b 419 382 429 390 425 382 b 392 417 411 382 401 396 b 221 768 329 546 286 639 b 93 856 186 838 142 856 b 26 782 61 856 26 832 l 26 143 b 100 0 26 79 36 0 z m 472 760 b 460 736 467 740 461 736 b 483 838 440 739 463 840 b 490 817 489 836 500 829 b 472 760 481 804 478 775 z m 61 756 b 49 719 58 732 56 719 b 53 807 38 719 43 783 b 76 833 63 831 71 833 b 76 814 82 833 82 825 b 61 756 71 801 64 774 z m 61 681 b 51 668 61 674 57 668 b 44 681 46 668 44 674 b 54 690 44 682 47 690 b 61 681 60 690 61 683 z m 96 32 b 89 25 96 29 92 25 b 54 99 75 25 54 63 b 61 118 54 113 57 118 b 68 103 65 118 68 114 b 96 32 68 61 96 39 z "},"Ò":{"ha":617,"x_min":0,"x_max":0,"o":"m 363 886 b 360 989 385 908 389 949 b 276 1072 318 1047 292 1072 b 236 1019 253 1072 235 1039 b 342 875 243 986 308 875 b 363 886 349 875 356 879 z m 321 -12 b 603 404 517 -12 603 200 b 322 868 603 650 517 868 b 22 411 107 868 22 618 b 321 -12 22 204 118 -12 z m 110 650 b 104 657 107 650 104 654 b 238 824 104 701 193 824 b 244 818 243 822 244 821 b 160 724 244 810 200 776 b 110 650 140 699 119 649 z m 321 99 b 181 411 196 99 181 321 b 322 740 181 500 206 740 b 454 415 442 740 454 547 b 321 99 454 283 431 99 z m 111 619 b 94 600 111 606 100 600 b 83 613 89 600 83 604 b 101 633 83 626 96 633 b 111 619 107 632 111 625 z "},"Ó":{"ha":617,"x_min":0,"x_max":0,"o":"m 247 889 b 272 879 256 883 263 879 b 382 1019 313 879 375 982 b 342 1069 383 1039 356 1069 b 258 986 326 1069 300 1044 b 247 889 229 946 226 904 z m 321 -12 b 603 404 517 -12 603 200 b 322 868 603 650 517 868 b 22 411 107 868 22 618 b 321 -12 22 204 118 -12 z m 110 650 b 104 657 107 650 104 654 b 238 824 104 701 193 824 b 244 818 243 822 244 821 b 160 724 244 810 200 776 b 110 650 140 699 119 649 z m 321 99 b 181 411 196 99 181 321 b 322 740 181 500 206 740 b 454 415 442 740 454 547 b 321 99 454 283 431 99 z m 111 619 b 94 600 111 606 100 600 b 83 613 89 600 83 604 b 101 633 83 626 96 633 b 111 619 107 632 111 625 z "},"Ô":{"ha":617,"x_min":0,"x_max":0,"o":"m 183 926 b 229 886 183 908 211 886 b 313 968 269 886 285 938 b 385 889 335 938 347 889 b 433 928 407 889 433 904 b 311 1086 433 964 351 1086 b 183 926 269 1086 183 967 z m 321 -12 b 603 404 517 -12 603 200 b 322 868 603 650 517 868 b 22 411 107 868 22 618 b 321 -12 22 204 118 -12 z m 110 650 b 104 657 107 650 104 654 b 238 824 104 701 193 824 b 244 818 243 822 244 821 b 160 724 244 810 200 776 b 110 650 140 699 119 649 z m 321 99 b 181 411 196 99 181 321 b 322 740 181 500 206 740 b 454 415 442 740 454 547 b 321 99 454 283 431 99 z m 111 619 b 94 600 111 606 100 600 b 83 613 89 600 83 604 b 101 633 83 626 96 633 b 111 619 107 632 111 625 z "},"Õ":{"ha":617,"x_min":0,"x_max":0,"o":"m 369 883 b 482 1014 431 883 482 954 b 449 1054 482 1029 469 1054 b 375 976 407 1054 414 976 b 242 1051 336 976 299 1051 b 135 935 192 1051 135 986 b 171 897 135 918 153 897 b 208 924 193 897 199 903 b 247 958 214 935 233 958 b 369 883 278 958 308 883 z m 321 -12 b 603 404 517 -12 603 200 b 322 868 603 650 517 868 b 22 411 107 868 22 618 b 321 -12 22 204 118 -12 z m 110 650 b 104 657 107 650 104 654 b 238 824 104 701 193 824 b 244 818 243 822 244 821 b 160 724 244 810 200 776 b 110 650 140 699 119 649 z m 321 99 b 181 411 196 99 181 321 b 322 740 181 500 206 740 b 454 415 442 740 454 547 b 321 99 454 283 431 99 z m 111 619 b 94 600 111 606 100 600 b 83 613 89 600 83 604 b 101 633 83 626 96 633 b 111 619 107 632 111 625 z "},"Ö":{"ha":617,"x_min":0,"x_max":0,"o":"m 233 894 b 297 957 264 894 297 917 b 233 1021 297 997 264 1021 b 168 957 203 1021 168 997 b 233 894 168 917 203 894 z m 386 894 b 450 957 417 894 450 917 b 386 1021 450 997 417 1021 b 321 957 356 1021 321 997 b 386 894 321 917 356 894 z m 321 -12 b 603 404 517 -12 603 200 b 322 868 603 650 517 868 b 22 411 107 868 22 618 b 321 -12 22 204 118 -12 z m 110 650 b 104 657 107 650 104 654 b 238 824 104 701 193 824 b 244 818 243 822 244 821 b 160 724 244 810 200 776 b 110 650 140 699 119 649 z m 321 99 b 181 411 196 99 181 321 b 322 740 181 500 206 740 b 454 415 442 740 454 547 b 321 99 454 283 431 99 z m 111 619 b 94 600 111 606 100 600 b 83 613 89 600 83 604 b 101 633 83 626 96 633 b 111 619 107 632 111 625 z "},"Ø":{"ha":617,"x_min":0,"x_max":0,"o":"m 321 -12 b 603 404 517 -12 603 200 b 521 753 603 539 576 667 b 563 879 543 808 563 864 b 494 925 563 904 519 925 b 417 849 453 925 431 882 b 322 868 389 861 357 868 b 22 411 107 868 22 618 b 111 97 22 297 51 179 b 56 -57 78 10 56 -51 b 151 -107 56 -90 135 -107 b 218 8 163 -107 186 -61 b 321 -12 249 -6 283 -12 z m 110 650 b 104 657 107 650 104 654 b 238 824 104 701 193 824 b 244 818 243 822 244 821 b 160 724 244 810 200 776 b 110 650 140 699 119 649 z m 189 294 b 181 411 183 339 181 382 b 322 740 181 500 206 740 b 365 731 339 740 353 738 b 189 294 315 613 249 444 z m 111 619 b 94 600 111 606 100 600 b 83 613 89 600 83 604 b 101 633 83 626 96 633 b 111 619 107 632 111 625 z m 321 99 b 265 117 299 99 281 106 b 446 568 331 274 408 471 b 454 415 453 517 454 463 b 321 99 454 283 431 99 z m 119 -44 b 96 -36 117 -54 96 -49 b 126 57 96 -14 118 42 b 147 63 132 67 143 64 b 119 -44 165 58 135 0 z "},"Œ":{"ha":939,"x_min":0,"x_max":0,"o":"m 321 -12 b 496 65 394 -12 451 18 b 707 -6 535 11 611 -6 b 917 90 763 -6 917 15 b 881 165 917 118 906 165 b 718 124 844 165 779 124 b 626 247 624 124 626 169 l 626 339 b 664 382 626 368 635 381 l 824 388 b 868 443 861 389 868 419 b 822 515 868 481 858 515 l 657 514 b 626 556 636 514 626 528 l 626 683 b 657 717 626 701 639 717 l 853 722 b 897 793 882 724 897 761 b 847 856 897 825 881 856 b 576 856 819 856 626 856 b 482 801 543 856 503 843 b 322 868 440 843 388 868 b 22 411 107 868 22 618 b 321 -12 22 204 118 -12 z m 110 650 b 104 657 107 650 104 654 b 238 824 104 701 193 824 b 244 818 243 822 244 821 b 160 724 244 810 200 776 b 110 650 140 699 119 649 z m 321 99 b 181 411 196 99 181 321 b 322 740 181 500 206 740 b 454 415 442 740 454 547 b 321 99 454 283 431 99 z m 111 619 b 94 600 111 606 100 600 b 83 613 89 600 83 604 b 101 633 83 626 96 633 b 111 619 107 632 111 625 z m 619 49 b 631 32 633 43 635 36 b 614 26 626 28 621 26 b 524 82 585 26 542 60 b 517 107 514 93 513 104 b 538 99 521 111 529 108 b 619 49 557 78 586 61 z "},"Š":{"ha":496,"x_min":0,"x_max":0,"o":"m 124 1046 b 251 886 124 1006 210 886 b 374 1044 292 886 374 1008 b 325 1083 374 1068 347 1083 b 253 1004 288 1083 275 1035 b 169 1086 225 1035 210 1086 b 124 1046 151 1086 124 1064 z m 243 -12 b 474 210 378 -12 474 79 b 314 468 474 281 435 344 b 188 671 215 569 188 614 b 246 738 188 717 206 738 b 311 679 286 738 310 717 b 367 628 313 647 344 628 b 451 738 414 628 451 682 b 251 867 451 799 347 867 b 31 663 115 867 31 789 b 215 374 31 588 82 507 b 318 196 265 324 318 275 b 229 106 318 136 288 106 b 149 203 172 106 149 135 b 104 272 149 251 136 271 b 17 176 54 275 17 233 b 243 -12 17 79 128 -12 z m 111 754 b 88 719 100 736 97 718 b 79 728 82 719 79 722 b 161 824 82 760 138 826 b 147 799 167 824 161 808 b 111 754 133 788 118 767 z m 89 692 b 79 682 88 686 83 682 b 69 690 72 683 69 686 b 81 701 69 694 75 701 b 89 692 85 701 89 697 z m 68 179 b 58 132 58 154 68 132 b 47 146 54 132 50 139 b 88 242 33 190 57 244 b 92 235 92 242 92 239 b 68 179 90 219 78 204 z "},"Ù":{"ha":588,"x_min":0,"x_max":0,"o":"m 349 886 b 346 989 371 908 375 949 b 263 1072 304 1047 278 1072 b 222 1019 239 1072 221 1039 b 328 875 229 986 294 875 b 349 886 335 875 342 879 z m 289 -6 b 567 342 472 -6 567 132 l 567 739 b 479 858 567 822 536 858 b 410 738 421 858 410 775 l 410 394 b 294 126 410 282 417 126 b 176 317 165 126 176 226 l 176 733 b 92 856 176 833 153 856 b 18 736 31 856 18 774 l 18 307 b 289 -6 18 121 121 -6 z m 449 772 b 439 756 449 763 449 756 b 429 775 431 756 429 765 b 443 817 431 792 439 808 b 467 838 449 826 458 838 b 467 811 483 838 482 831 b 449 772 454 797 449 779 z m 76 792 b 47 743 67 765 56 743 b 65 819 36 743 38 781 b 93 838 75 833 88 838 b 97 831 96 838 97 835 b 76 792 97 818 83 808 z m 172 67 b 164 58 172 61 169 58 b 63 185 126 58 64 154 b 68 194 63 192 64 194 b 90 169 72 194 82 188 b 140 100 103 142 126 115 b 172 67 156 83 172 72 z m 204 54 b 192 42 204 47 199 42 b 181 51 183 40 182 46 b 193 64 181 56 185 63 b 204 54 199 64 204 56 z "},"Ú":{"ha":588,"x_min":0,"x_max":0,"o":"m 233 889 b 258 879 242 883 249 879 b 368 1019 299 879 361 982 b 328 1069 369 1039 342 1069 b 244 986 313 1069 286 1044 b 233 889 215 946 213 904 z m 289 -6 b 567 342 472 -6 567 132 l 567 739 b 479 858 567 822 536 858 b 410 738 421 858 410 775 l 410 394 b 294 126 410 282 417 126 b 176 317 165 126 176 226 l 176 733 b 92 856 176 833 153 856 b 18 736 31 856 18 774 l 18 307 b 289 -6 18 121 121 -6 z m 449 772 b 439 756 449 763 449 756 b 429 775 431 756 429 765 b 443 817 431 792 439 808 b 467 838 449 826 458 838 b 467 811 483 838 482 831 b 449 772 454 797 449 779 z m 76 792 b 47 743 67 765 56 743 b 65 819 36 743 38 781 b 93 838 75 833 88 838 b 97 831 96 838 97 835 b 76 792 97 818 83 808 z m 172 67 b 164 58 172 61 169 58 b 63 185 126 58 64 154 b 68 194 63 192 64 194 b 90 169 72 194 82 188 b 140 100 103 142 126 115 b 172 67 156 83 172 72 z m 204 54 b 192 42 204 47 199 42 b 181 51 183 40 182 46 b 193 64 181 56 185 63 b 204 54 199 64 204 56 z "},"Û":{"ha":588,"x_min":0,"x_max":0,"o":"m 169 926 b 215 886 169 908 197 886 b 299 968 256 886 271 938 b 371 889 321 938 333 889 b 419 928 393 889 419 904 b 297 1086 419 964 338 1086 b 169 926 256 1086 169 967 z m 289 -6 b 567 342 472 -6 567 132 l 567 739 b 479 858 567 822 536 858 b 410 738 421 858 410 775 l 410 394 b 294 126 410 282 417 126 b 176 317 165 126 176 226 l 176 733 b 92 856 176 833 153 856 b 18 736 31 856 18 774 l 18 307 b 289 -6 18 121 121 -6 z m 449 772 b 439 756 449 763 449 756 b 429 775 431 756 429 765 b 443 817 431 792 439 808 b 467 838 449 826 458 838 b 467 811 483 838 482 831 b 449 772 454 797 449 779 z m 76 792 b 47 743 67 765 56 743 b 65 819 36 743 38 781 b 93 838 75 833 88 838 b 97 831 96 838 97 835 b 76 792 97 818 83 808 z m 172 67 b 164 58 172 61 169 58 b 63 185 126 58 64 154 b 68 194 63 192 64 194 b 90 169 72 194 82 188 b 140 100 103 142 126 115 b 172 67 156 83 172 72 z m 204 54 b 192 42 204 47 199 42 b 181 51 183 40 182 46 b 193 64 181 56 185 63 b 204 54 199 64 204 56 z "},"Ü":{"ha":588,"x_min":0,"x_max":0,"o":"m 218 894 b 282 957 249 894 282 917 b 218 1021 282 997 249 1021 b 153 957 188 1021 153 997 b 218 894 153 917 188 894 z m 371 894 b 435 957 401 894 435 917 b 371 1021 435 997 401 1021 b 306 957 340 1021 306 997 b 371 894 306 917 340 894 z m 289 -6 b 567 342 472 -6 567 132 l 567 739 b 479 858 567 822 536 858 b 410 738 421 858 410 775 l 410 394 b 294 126 410 282 417 126 b 176 317 165 126 176 226 l 176 733 b 92 856 176 833 153 856 b 18 736 31 856 18 774 l 18 307 b 289 -6 18 121 121 -6 z m 449 772 b 439 756 449 763 449 756 b 429 775 431 756 429 765 b 443 817 431 792 439 808 b 467 838 449 826 458 838 b 467 811 483 838 482 831 b 449 772 454 797 449 779 z m 76 792 b 47 743 67 765 56 743 b 65 819 36 743 38 781 b 93 838 75 833 88 838 b 97 831 96 838 97 835 b 76 792 97 818 83 808 z m 172 67 b 164 58 172 61 169 58 b 63 185 126 58 64 154 b 68 194 63 192 64 194 b 90 169 72 194 82 188 b 140 100 103 142 126 115 b 172 67 156 83 172 72 z m 204 54 b 192 42 204 47 199 42 b 181 51 183 40 182 46 b 193 64 181 56 185 63 b 204 54 199 64 204 56 z "},"Ÿ":{"ha":579,"x_min":0,"x_max":0,"o":"m 214 894 b 278 957 244 894 278 917 b 214 1021 278 997 244 1021 b 149 957 183 1021 149 997 b 214 894 149 917 183 894 z m 367 894 b 431 957 397 894 431 917 b 367 1021 431 997 397 1021 b 301 957 336 1021 301 997 b 367 894 301 917 336 894 z m 289 0 b 368 72 322 0 368 15 l 368 242 b 394 390 368 322 368 333 l 568 767 b 510 856 582 797 557 856 b 465 833 497 856 474 853 l 326 524 b 292 475 314 494 303 475 b 258 524 281 475 267 503 l 129 826 b 86 856 119 849 103 856 b 7 772 26 856 -6 799 l 172 408 b 215 265 206 335 215 314 l 215 72 b 289 0 215 38 240 0 z m 50 765 b 47 746 53 758 54 749 b 31 758 42 744 35 750 b 38 815 25 772 17 807 b 47 799 42 817 46 807 b 50 765 49 789 46 779 z m 267 46 b 267 29 271 38 274 29 b 236 113 250 29 233 54 b 244 135 238 129 243 135 b 251 103 247 135 250 126 b 267 46 254 71 264 53 z "},"Ý":{"ha":579,"x_min":0,"x_max":0,"o":"m 229 889 b 254 879 238 883 244 879 b 364 1019 294 879 357 982 b 324 1069 365 1039 338 1069 b 240 986 308 1069 282 1044 b 229 889 211 946 208 904 z m 289 0 b 368 72 322 0 368 15 l 368 242 b 394 390 368 322 368 333 l 568 767 b 510 856 582 797 557 856 b 465 833 497 856 474 853 l 326 524 b 292 475 314 494 303 475 b 258 524 281 475 267 503 l 129 826 b 86 856 119 849 103 856 b 7 772 26 856 -6 799 l 172 408 b 215 265 206 335 215 314 l 215 72 b 289 0 215 38 240 0 z m 50 765 b 47 746 53 758 54 749 b 31 758 42 744 35 750 b 38 815 25 772 17 807 b 47 799 42 817 46 807 b 50 765 49 789 46 779 z m 267 46 b 267 29 271 38 274 29 b 236 113 250 29 233 54 b 244 135 238 129 243 135 b 251 103 247 135 250 126 b 267 46 254 71 264 53 z "},"Ž":{"ha":493,"x_min":0,"x_max":0,"o":"m 122 1046 b 250 886 122 1006 208 886 b 372 1044 290 886 372 1008 b 324 1083 372 1068 346 1083 b 251 1004 286 1083 274 1035 b 168 1086 224 1035 208 1086 b 122 1046 150 1086 122 1064 z m 108 0 l 446 0 b 483 49 461 0 483 22 b 429 119 483 90 465 119 l 224 121 b 185 139 197 121 185 125 b 219 219 185 153 197 178 l 461 678 b 482 761 475 706 482 733 b 425 856 482 804 469 856 l 83 858 b 17 790 49 858 17 844 b 58 740 17 763 35 740 l 306 738 b 321 729 317 738 319 735 b 317 713 321 725 319 718 l 28 142 b 13 76 14 114 13 94 b 108 0 13 18 67 0 z m 58 797 b 46 767 57 793 53 768 b 38 778 42 767 38 774 b 58 836 35 800 39 833 b 71 826 63 836 71 829 b 58 797 72 821 63 804 z m 49 68 b 36 99 40 68 35 83 b 78 168 38 111 60 167 b 83 163 81 168 83 164 b 49 68 82 143 63 67 z m 69 38 b 57 26 69 32 63 26 b 50 35 54 26 50 31 b 63 47 50 42 54 47 b 69 38 68 47 69 43 z "},"à":{"ha":567,"x_min":0,"x_max":0,"o":"m 338 886 b 335 989 360 908 364 949 b 251 1072 293 1047 267 1072 b 211 1019 228 1072 210 1039 b 317 875 218 986 283 875 b 338 886 324 875 331 879 z m 219 -11 b 392 158 349 -11 375 158 b 399 122 396 158 399 146 b 474 -11 399 44 429 -11 b 540 99 513 -11 540 33 b 532 283 540 133 532 208 l 532 822 b 469 867 532 847 504 867 b 401 786 400 867 413 786 b 256 863 390 786 361 868 b 22 404 108 854 22 686 b 219 -11 22 144 96 -11 z m 433 774 b 424 799 428 774 424 785 b 453 849 424 828 443 849 b 458 842 456 849 458 847 b 446 801 458 833 451 819 b 433 774 443 789 440 774 z m 253 125 b 171 425 211 125 171 274 b 282 735 171 594 221 735 b 379 508 333 735 379 631 b 253 125 379 351 304 125 z m 153 46 b 97 124 138 46 111 86 b 94 189 85 160 86 189 b 115 135 106 189 110 150 b 164 60 124 106 161 69 b 153 46 165 54 160 46 z m 471 31 b 457 18 471 25 464 18 b 419 86 440 18 419 57 b 429 103 419 97 422 103 b 439 88 439 103 439 88 b 471 31 439 60 471 43 z m 188 24 b 176 42 182 24 176 33 b 193 58 176 51 183 58 b 188 24 215 58 200 24 z "},"á":{"ha":567,"x_min":0,"x_max":0,"o":"m 222 889 b 247 879 231 883 238 879 b 357 1019 288 879 350 982 b 317 1069 358 1039 331 1069 b 233 986 301 1069 275 1044 b 222 889 204 946 201 904 z m 219 -11 b 392 158 349 -11 375 158 b 399 122 396 158 399 146 b 474 -11 399 44 429 -11 b 540 99 513 -11 540 33 b 532 283 540 133 532 208 l 532 822 b 469 867 532 847 504 867 b 401 786 400 867 413 786 b 256 863 390 786 361 868 b 22 404 108 854 22 686 b 219 -11 22 144 96 -11 z m 433 774 b 424 799 428 774 424 785 b 453 849 424 828 443 849 b 458 842 456 849 458 847 b 446 801 458 833 451 819 b 433 774 443 789 440 774 z m 253 125 b 171 425 211 125 171 274 b 282 735 171 594 221 735 b 379 508 333 735 379 631 b 253 125 379 351 304 125 z m 153 46 b 97 124 138 46 111 86 b 94 189 85 160 86 189 b 115 135 106 189 110 150 b 164 60 124 106 161 69 b 153 46 165 54 160 46 z m 471 31 b 457 18 471 25 464 18 b 419 86 440 18 419 57 b 429 103 419 97 422 103 b 439 88 439 103 439 88 b 471 31 439 60 471 43 z m 188 24 b 176 42 182 24 176 33 b 193 58 176 51 183 58 b 188 24 215 58 200 24 z "},"â":{"ha":567,"x_min":0,"x_max":0,"o":"m 158 926 b 204 886 158 908 186 886 b 288 968 244 886 260 938 b 360 889 310 938 322 889 b 408 928 382 889 408 904 b 286 1086 408 964 326 1086 b 158 926 244 1086 158 967 z m 219 -11 b 392 158 349 -11 375 158 b 399 122 396 158 399 146 b 474 -11 399 44 429 -11 b 540 99 513 -11 540 33 b 532 283 540 133 532 208 l 532 822 b 469 867 532 847 504 867 b 401 786 400 867 413 786 b 256 863 390 786 361 868 b 22 404 108 854 22 686 b 219 -11 22 144 96 -11 z m 433 774 b 424 799 428 774 424 785 b 453 849 424 828 443 849 b 458 842 456 849 458 847 b 446 801 458 833 451 819 b 433 774 443 789 440 774 z m 253 125 b 171 425 211 125 171 274 b 282 735 171 594 221 735 b 379 508 333 735 379 631 b 253 125 379 351 304 125 z m 153 46 b 97 124 138 46 111 86 b 94 189 85 160 86 189 b 115 135 106 189 110 150 b 164 60 124 106 161 69 b 153 46 165 54 160 46 z m 471 31 b 457 18 471 25 464 18 b 419 86 440 18 419 57 b 429 103 419 97 422 103 b 439 88 439 103 439 88 b 471 31 439 60 471 43 z m 188 24 b 176 42 182 24 176 33 b 193 58 176 51 183 58 b 188 24 215 58 200 24 z "},"ã":{"ha":567,"x_min":0,"x_max":0,"o":"m 344 883 b 457 1014 406 883 457 954 b 424 1054 457 1029 444 1054 b 350 976 382 1054 389 976 b 217 1051 311 976 274 1051 b 110 935 167 1051 110 986 b 146 897 110 918 128 897 b 183 924 168 897 174 903 b 222 958 189 935 208 958 b 344 883 253 958 283 883 z m 219 -11 b 392 158 349 -11 375 158 b 399 122 396 158 399 146 b 474 -11 399 44 429 -11 b 540 99 513 -11 540 33 b 532 283 540 133 532 208 l 532 822 b 469 867 532 847 504 867 b 401 786 400 867 413 786 b 256 863 390 786 361 868 b 22 404 108 854 22 686 b 219 -11 22 144 96 -11 z m 433 774 b 424 799 428 774 424 785 b 453 849 424 828 443 849 b 458 842 456 849 458 847 b 446 801 458 833 451 819 b 433 774 443 789 440 774 z m 253 125 b 171 425 211 125 171 274 b 282 735 171 594 221 735 b 379 508 333 735 379 631 b 253 125 379 351 304 125 z m 153 46 b 97 124 138 46 111 86 b 94 189 85 160 86 189 b 115 135 106 189 110 150 b 164 60 124 106 161 69 b 153 46 165 54 160 46 z m 471 31 b 457 18 471 25 464 18 b 419 86 440 18 419 57 b 429 103 419 97 422 103 b 439 88 439 103 439 88 b 471 31 439 60 471 43 z m 188 24 b 176 42 182 24 176 33 b 193 58 176 51 183 58 b 188 24 215 58 200 24 z "},"ä":{"ha":567,"x_min":0,"x_max":0,"o":"m 208 894 b 272 957 239 894 272 917 b 208 1021 272 997 239 1021 b 143 957 178 1021 143 997 b 208 894 143 917 178 894 z m 361 894 b 425 957 392 894 425 917 b 361 1021 425 997 392 1021 b 296 957 331 1021 296 997 b 361 894 296 917 331 894 z m 219 -11 b 392 158 349 -11 375 158 b 399 122 396 158 399 146 b 474 -11 399 44 429 -11 b 540 99 513 -11 540 33 b 532 283 540 133 532 208 l 532 822 b 469 867 532 847 504 867 b 401 786 400 867 413 786 b 256 863 390 786 361 868 b 22 404 108 854 22 686 b 219 -11 22 144 96 -11 z m 433 774 b 424 799 428 774 424 785 b 453 849 424 828 443 849 b 458 842 456 849 458 847 b 446 801 458 833 451 819 b 433 774 443 789 440 774 z m 253 125 b 171 425 211 125 171 274 b 282 735 171 594 221 735 b 379 508 333 735 379 631 b 253 125 379 351 304 125 z m 153 46 b 97 124 138 46 111 86 b 94 189 85 160 86 189 b 115 135 106 189 110 150 b 164 60 124 106 161 69 b 153 46 165 54 160 46 z m 471 31 b 457 18 471 25 464 18 b 419 86 440 18 419 57 b 429 103 419 97 422 103 b 439 88 439 103 439 88 b 471 31 439 60 471 43 z m 188 24 b 176 42 182 24 176 33 b 193 58 176 51 183 58 b 188 24 215 58 200 24 z "},"å":{"ha":567,"x_min":0,"x_max":0,"o":"m 282 867 b 375 960 332 867 375 911 b 279 1054 375 1014 329 1054 b 192 951 233 1054 192 1014 b 282 867 192 896 235 867 z m 279 929 b 254 954 268 929 254 940 b 282 988 254 976 263 988 b 308 964 297 988 308 971 b 279 929 308 950 296 929 z m 219 -11 b 392 158 349 -11 375 158 b 399 122 396 158 399 146 b 474 -11 399 44 429 -11 b 540 99 513 -11 540 33 b 532 283 540 133 532 208 l 532 822 b 469 867 532 847 504 867 b 401 786 400 867 413 786 b 256 863 390 786 361 868 b 22 404 108 854 22 686 b 219 -11 22 144 96 -11 z m 433 774 b 424 799 428 774 424 785 b 453 849 424 828 443 849 b 458 842 456 849 458 847 b 446 801 458 833 451 819 b 433 774 443 789 440 774 z m 253 125 b 171 425 211 125 171 274 b 282 735 171 594 221 735 b 379 508 333 735 379 631 b 253 125 379 351 304 125 z m 153 46 b 97 124 138 46 111 86 b 94 189 85 160 86 189 b 115 135 106 189 110 150 b 164 60 124 106 161 69 b 153 46 165 54 160 46 z m 471 31 b 457 18 471 25 464 18 b 419 86 440 18 419 57 b 429 103 419 97 422 103 b 439 88 439 103 439 88 b 471 31 439 60 471 43 z m 188 24 b 176 42 182 24 176 33 b 193 58 176 51 183 58 b 188 24 215 58 200 24 z "},"æ":{"ha":949,"x_min":0,"x_max":0,"o":"m 219 -11 b 457 179 396 -11 440 176 b 696 -14 503 58 588 -14 b 922 193 819 -14 922 81 b 853 289 922 251 894 289 b 789 215 815 289 789 260 b 704 122 789 163 751 122 b 593 296 639 122 593 178 b 617 315 593 311 599 315 b 925 625 785 315 917 464 b 717 865 932 763 843 865 b 510 744 633 865 563 821 b 338 864 501 779 479 871 b 22 369 168 856 22 686 b 219 -11 22 144 96 -11 z m 515 663 b 508 668 514 661 510 661 b 644 819 506 710 582 815 b 663 808 654 821 663 815 b 644 796 664 803 654 797 b 515 663 589 790 528 663 z m 253 125 b 171 394 211 125 171 274 b 342 735 171 594 281 735 b 414 488 393 735 414 610 b 253 125 414 331 304 125 z m 589 438 b 717 733 569 467 622 733 b 792 631 760 733 792 690 b 608 432 792 536 704 432 b 589 438 599 432 592 433 z m 497 649 b 504 642 501 650 503 646 b 489 607 507 629 499 607 b 483 618 486 606 485 611 b 497 649 482 632 489 647 z m 153 46 b 97 124 138 46 111 86 b 94 189 85 160 86 189 b 115 135 106 189 110 150 b 164 60 124 106 161 69 b 153 46 165 54 160 46 z m 622 60 b 613 44 624 54 619 47 b 558 99 597 40 567 71 b 563 118 556 110 556 115 b 576 106 572 121 576 106 b 622 60 583 79 619 72 z m 188 24 b 176 42 182 24 176 33 b 193 58 176 51 183 58 b 188 24 215 58 200 24 z "},"ç":{"ha":536,"x_min":0,"x_max":0,"o":"m 247 -235 b 389 -129 329 -235 389 -190 b 313 -35 389 -103 386 -35 b 317 -12 307 -35 311 -25 b 518 201 435 -1 518 94 b 447 289 518 249 492 289 b 385 207 403 289 385 250 b 310 122 385 165 350 122 b 181 403 225 122 181 228 b 314 733 181 597 238 733 b 388 622 361 733 388 683 b 460 474 388 558 360 474 b 517 553 497 474 514 501 b 310 865 528 753 447 865 b 15 406 138 865 15 668 b 217 -1 15 197 92 43 b 206 -35 210 -12 206 -25 b 292 -118 206 -99 292 -92 b 253 -144 292 -140 268 -144 b 171 -124 229 -144 193 -124 b 149 -153 157 -124 149 -131 b 247 -235 149 -214 210 -235 z m 110 667 b 103 672 108 665 104 665 b 239 824 100 714 176 819 b 257 813 249 825 257 819 b 239 800 258 807 249 801 b 110 667 183 794 122 667 z m 92 653 b 99 646 96 654 97 650 b 83 611 101 633 93 611 b 78 622 81 610 79 615 b 92 653 76 636 83 651 z "},"đ":{"ha":569,"x_min":0,"x_max":0,"o":"m 92 0 l 213 0 b 553 417 447 0 553 156 b 311 865 553 674 450 865 b 167 767 213 865 182 767 b 163 794 161 767 163 785 b 99 856 163 833 139 856 b 24 738 46 856 24 819 l 24 542 b -35 488 -11 542 -35 524 b 24 447 -35 456 -1 447 l 24 143 b 92 0 24 35 40 0 z m 74 731 b 58 708 74 718 64 708 b 43 744 49 708 43 724 b 93 825 43 790 68 825 b 107 818 103 825 107 824 b 67 754 107 810 67 789 b 74 731 67 739 74 731 z m 260 126 l 221 126 b 182 176 186 126 182 132 l 182 449 b 244 490 218 453 244 463 b 182 538 244 536 221 538 l 182 610 b 278 731 182 683 233 731 b 393 413 350 731 393 593 b 260 126 393 236 342 126 z m 60 101 b 47 206 49 101 47 126 b 57 264 47 260 53 264 b 68 206 63 264 68 258 b 60 101 68 189 68 101 z m 60 82 b 69 67 69 82 69 79 b 61 49 69 57 65 49 b 49 67 56 49 49 51 b 60 82 49 75 53 82 z "},"è":{"ha":544,"x_min":0,"x_max":0,"o":"m 326 886 b 324 989 349 908 353 949 b 240 1072 282 1047 256 1072 b 200 1019 217 1072 199 1039 b 306 875 207 986 272 875 b 326 886 313 875 319 879 z m 292 -14 b 518 193 415 -14 518 81 b 449 289 518 251 490 289 b 385 215 411 289 385 260 b 300 122 385 163 347 122 b 189 296 235 122 189 178 b 213 315 189 311 194 315 b 521 625 381 315 513 464 b 313 865 528 763 439 865 b 15 406 140 865 15 672 b 292 -14 15 154 126 -14 z m 111 663 b 104 668 110 661 106 661 b 240 819 101 710 178 815 b 258 808 250 821 258 815 b 240 796 260 803 250 797 b 111 663 185 790 124 663 z m 185 438 b 313 733 165 467 218 733 b 388 631 356 733 388 690 b 204 432 388 536 300 432 b 185 438 194 432 188 433 z m 93 649 b 100 642 97 650 99 646 b 85 607 103 629 94 607 b 79 618 82 606 81 611 b 93 649 78 632 85 647 z "},"é":{"ha":544,"x_min":0,"x_max":0,"o":"m 211 889 b 236 879 219 883 226 879 b 346 1019 276 879 339 982 b 306 1069 347 1039 319 1069 b 222 986 290 1069 264 1044 b 211 889 193 946 190 904 z m 292 -14 b 518 193 415 -14 518 81 b 449 289 518 251 490 289 b 385 215 411 289 385 260 b 300 122 385 163 347 122 b 189 296 235 122 189 178 b 213 315 189 311 194 315 b 521 625 381 315 513 464 b 313 865 528 763 439 865 b 15 406 140 865 15 672 b 292 -14 15 154 126 -14 z m 111 663 b 104 668 110 661 106 661 b 240 819 101 710 178 815 b 258 808 250 821 258 815 b 240 796 260 803 250 797 b 111 663 185 790 124 663 z m 185 438 b 313 733 165 467 218 733 b 388 631 356 733 388 690 b 204 432 388 536 300 432 b 185 438 194 432 188 433 z m 93 649 b 100 642 97 650 99 646 b 85 607 103 629 94 607 b 79 618 82 606 81 611 b 93 649 78 632 85 647 z "},"ê":{"ha":544,"x_min":0,"x_max":0,"o":"m 147 926 b 193 886 147 908 175 886 b 276 968 233 886 249 938 b 349 889 299 938 311 889 b 397 928 371 889 397 904 b 275 1086 397 964 315 1086 b 147 926 233 1086 147 967 z m 292 -14 b 518 193 415 -14 518 81 b 449 289 518 251 490 289 b 385 215 411 289 385 260 b 300 122 385 163 347 122 b 189 296 235 122 189 178 b 213 315 189 311 194 315 b 521 625 381 315 513 464 b 313 865 528 763 439 865 b 15 406 140 865 15 672 b 292 -14 15 154 126 -14 z m 111 663 b 104 668 110 661 106 661 b 240 819 101 710 178 815 b 258 808 250 821 258 815 b 240 796 260 803 250 797 b 111 663 185 790 124 663 z m 185 438 b 313 733 165 467 218 733 b 388 631 356 733 388 690 b 204 432 388 536 300 432 b 185 438 194 432 188 433 z m 93 649 b 100 642 97 650 99 646 b 85 607 103 629 94 607 b 79 618 82 606 81 611 b 93 649 78 632 85 647 z "},"ë":{"ha":544,"x_min":0,"x_max":0,"o":"m 197 894 b 261 957 228 894 261 917 b 197 1021 261 997 228 1021 b 132 957 167 1021 132 997 b 197 894 132 917 167 894 z m 350 894 b 414 957 381 894 414 917 b 350 1021 414 997 381 1021 b 285 957 319 1021 285 997 b 350 894 285 917 319 894 z m 292 -14 b 518 193 415 -14 518 81 b 449 289 518 251 490 289 b 385 215 411 289 385 260 b 300 122 385 163 347 122 b 189 296 235 122 189 178 b 213 315 189 311 194 315 b 521 625 381 315 513 464 b 313 865 528 763 439 865 b 15 406 140 865 15 672 b 292 -14 15 154 126 -14 z m 111 663 b 104 668 110 661 106 661 b 240 819 101 710 178 815 b 258 808 250 821 258 815 b 240 796 260 803 250 797 b 111 663 185 790 124 663 z m 185 438 b 313 733 165 467 218 733 b 388 631 356 733 388 690 b 204 432 388 536 300 432 b 185 438 194 432 188 433 z m 93 649 b 100 642 97 650 99 646 b 85 607 103 629 94 607 b 79 618 82 606 81 611 b 93 649 78 632 85 647 z "},"ł":{"ha":267,"x_min":0,"x_max":0,"o":"m 125 0 l 186 0 b 247 65 224 0 247 18 b 204 131 247 100 232 131 l 189 131 b 171 190 172 131 171 153 l 171 394 b 183 399 176 397 181 397 b 224 464 210 410 236 429 b 194 486 218 479 207 486 b 172 481 188 486 179 483 l 171 481 l 171 786 b 99 858 171 811 153 858 b 25 782 44 858 25 822 l 25 426 b 14 422 21 425 17 424 b -26 364 -11 413 -37 394 b 25 340 -19 340 3 333 l 25 157 b 125 0 25 65 31 0 z m 53 726 b 42 765 49 726 42 738 b 85 843 42 815 64 843 b 81 806 100 843 90 822 b 53 726 67 782 63 726 z m -6 353 b -15 363 -7 353 -12 354 b -6 401 -19 374 -19 396 b 3 394 0 404 1 399 b -6 353 6 390 3 357 z "},"ñ":{"ha":543,"x_min":0,"x_max":0,"o":"m 333 883 b 446 1014 394 883 446 954 b 413 1054 446 1029 433 1054 b 339 976 371 1054 378 976 b 206 1051 300 976 263 1051 b 99 935 156 1051 99 986 b 135 897 99 918 117 897 b 172 924 157 897 163 903 b 211 958 178 935 197 958 b 333 883 242 958 272 883 z m 93 0 b 181 63 118 0 181 7 l 181 371 b 293 711 181 558 214 711 b 364 482 343 711 364 674 l 364 47 b 435 0 364 26 385 0 b 513 43 485 0 513 15 l 513 494 b 343 861 513 750 461 861 b 179 718 208 861 193 718 b 174 774 175 718 174 736 l 174 793 b 97 856 174 842 132 856 b 31 753 43 856 31 833 l 31 90 b 93 0 31 24 47 0 z m 58 715 b 47 760 51 715 47 746 b 72 838 47 772 53 838 b 76 826 75 838 76 831 b 58 715 76 824 68 715 z m 415 40 b 403 21 415 28 408 21 b 375 82 389 21 375 44 b 386 117 375 100 378 117 b 397 83 394 117 397 113 b 415 40 397 56 415 63 z m 92 36 b 81 17 92 25 85 17 b 51 71 65 17 51 43 b 60 107 51 92 56 107 b 69 78 65 107 69 96 b 92 36 69 51 92 53 z "},"ò":{"ha":544,"x_min":0,"x_max":0,"o":"m 326 886 b 324 989 349 908 353 949 b 240 1072 282 1047 256 1072 b 200 1019 217 1072 199 1039 b 306 875 207 986 272 875 b 326 886 313 875 319 879 z m 274 -10 b 524 426 468 -10 524 203 b 274 865 524 650 469 865 b 21 414 78 865 21 618 b 274 -10 21 210 79 -10 z m 118 701 b 100 671 110 681 103 671 b 93 682 94 671 93 674 b 165 801 93 717 144 801 b 172 779 169 801 183 789 b 118 701 150 761 126 722 z m 274 78 b 168 426 186 78 168 310 b 274 779 168 501 183 779 b 383 428 363 779 383 508 b 274 78 383 311 365 78 z m 99 640 b 86 618 99 625 89 618 b 72 638 81 618 72 622 b 86 661 72 649 78 661 b 99 640 94 661 99 658 z "},"ó":{"ha":544,"x_min":0,"x_max":0,"o":"m 211 889 b 236 879 219 883 226 879 b 346 1019 276 879 339 982 b 306 1069 347 1039 319 1069 b 222 986 290 1069 264 1044 b 211 889 193 946 190 904 z m 274 -10 b 524 426 468 -10 524 203 b 274 865 524 650 469 865 b 21 414 78 865 21 618 b 274 -10 21 210 79 -10 z m 118 701 b 100 671 110 681 103 671 b 93 682 94 671 93 674 b 165 801 93 717 144 801 b 172 779 169 801 183 789 b 118 701 150 761 126 722 z m 274 78 b 168 426 186 78 168 310 b 274 779 168 501 183 779 b 383 428 363 779 383 508 b 274 78 383 311 365 78 z m 99 640 b 86 618 99 625 89 618 b 72 638 81 618 72 622 b 86 661 72 649 78 661 b 99 640 94 661 99 658 z "},"ô":{"ha":544,"x_min":0,"x_max":0,"o":"m 147 926 b 193 886 147 908 175 886 b 276 968 233 886 249 938 b 349 889 299 938 311 889 b 397 928 371 889 397 904 b 275 1086 397 964 315 1086 b 147 926 233 1086 147 967 z m 274 -10 b 524 426 468 -10 524 203 b 274 865 524 650 469 865 b 21 414 78 865 21 618 b 274 -10 21 210 79 -10 z m 118 701 b 100 671 110 681 103 671 b 93 682 94 671 93 674 b 165 801 93 717 144 801 b 172 779 169 801 183 789 b 118 701 150 761 126 722 z m 274 78 b 168 426 186 78 168 310 b 274 779 168 501 183 779 b 383 428 363 779 383 508 b 274 78 383 311 365 78 z m 99 640 b 86 618 99 625 89 618 b 72 638 81 618 72 622 b 86 661 72 649 78 661 b 99 640 94 661 99 658 z "},"õ":{"ha":544,"x_min":0,"x_max":0,"o":"m 333 883 b 446 1014 394 883 446 954 b 413 1054 446 1029 433 1054 b 339 976 371 1054 378 976 b 206 1051 300 976 263 1051 b 99 935 156 1051 99 986 b 135 897 99 918 117 897 b 172 924 157 897 163 903 b 211 958 178 935 197 958 b 333 883 242 958 272 883 z m 274 -10 b 524 426 468 -10 524 203 b 274 865 524 650 469 865 b 21 414 78 865 21 618 b 274 -10 21 210 79 -10 z m 118 701 b 100 671 110 681 103 671 b 93 682 94 671 93 674 b 165 801 93 717 144 801 b 172 779 169 801 183 789 b 118 701 150 761 126 722 z m 274 78 b 168 426 186 78 168 310 b 274 779 168 501 183 779 b 383 428 363 779 383 508 b 274 78 383 311 365 78 z m 99 640 b 86 618 99 625 89 618 b 72 638 81 618 72 622 b 86 661 72 649 78 661 b 99 640 94 661 99 658 z "},"ö":{"ha":544,"x_min":0,"x_max":0,"o":"m 197 894 b 261 957 228 894 261 917 b 197 1021 261 997 228 1021 b 132 957 167 1021 132 997 b 197 894 132 917 167 894 z m 350 894 b 414 957 381 894 414 917 b 350 1021 414 997 381 1021 b 285 957 319 1021 285 997 b 350 894 285 917 319 894 z m 274 -10 b 524 426 468 -10 524 203 b 274 865 524 650 469 865 b 21 414 78 865 21 618 b 274 -10 21 210 79 -10 z m 118 701 b 100 671 110 681 103 671 b 93 682 94 671 93 674 b 165 801 93 717 144 801 b 172 779 169 801 183 789 b 118 701 150 761 126 722 z m 274 78 b 168 426 186 78 168 310 b 274 779 168 501 183 779 b 383 428 363 779 383 508 b 274 78 383 311 365 78 z m 99 640 b 86 618 99 625 89 618 b 72 638 81 618 72 622 b 86 661 72 649 78 661 b 99 640 94 661 99 658 z "},"ø":{"ha":544,"x_min":0,"x_max":0,"o":"m 115 -107 b 183 10 126 -107 151 -60 b 274 -10 210 -3 239 -10 b 524 426 468 -10 524 203 b 474 725 524 536 510 643 b 526 879 500 790 526 861 b 458 925 526 904 483 925 b 397 883 432 925 410 904 b 376 840 393 876 386 861 b 274 865 347 856 314 865 b 21 414 78 865 21 618 b 81 113 21 306 36 194 b 19 -57 43 17 19 -50 b 115 -107 19 -90 99 -107 z m 118 701 b 100 671 110 681 103 671 b 93 682 94 671 93 674 b 165 801 93 717 144 801 b 172 779 169 801 183 789 b 118 701 150 761 126 722 z m 171 342 b 168 426 169 374 168 401 b 274 779 168 501 183 779 b 331 732 297 779 315 760 b 171 342 286 626 226 481 z m 99 640 b 86 618 99 625 89 618 b 72 638 81 618 72 622 b 86 661 72 649 78 661 b 99 640 94 661 99 658 z m 274 78 b 225 107 254 78 238 89 b 382 497 278 233 340 389 b 383 428 383 468 383 444 b 274 78 383 311 365 78 z m 81 -51 b 57 -43 78 -61 57 -56 b 97 68 57 -21 89 53 b 118 74 103 78 114 75 b 81 -51 136 69 96 -7 z "},"œ":{"ha":992,"x_min":0,"x_max":0,"o":"m 274 -10 b 496 190 394 -10 463 74 b 739 -14 540 63 628 -14 b 965 193 863 -14 965 81 b 896 289 965 251 938 289 b 832 215 858 289 832 260 b 747 122 832 163 794 122 b 636 296 682 122 636 178 b 660 315 636 311 642 315 b 968 625 828 315 960 464 b 760 865 975 763 886 865 b 501 643 644 865 551 779 b 274 865 471 771 403 865 b 21 414 78 865 21 618 b 274 -10 21 210 79 -10 z m 558 663 b 551 668 557 661 553 661 b 688 819 549 710 625 815 b 706 808 697 821 706 815 b 688 796 707 803 697 797 b 558 663 632 790 571 663 z m 118 701 b 100 671 110 681 103 671 b 93 682 94 671 93 674 b 165 801 93 717 144 801 b 172 779 169 801 183 789 b 118 701 150 761 126 722 z m 274 78 b 168 426 186 78 168 310 b 274 779 168 501 183 779 b 383 428 363 779 383 508 b 274 78 383 311 365 78 z m 632 438 b 760 733 613 467 665 733 b 835 631 803 733 835 690 b 651 432 835 536 747 432 b 632 438 642 432 635 433 z m 99 640 b 86 618 99 625 89 618 b 72 638 81 618 72 622 b 86 661 72 649 78 661 b 99 640 94 661 99 658 z m 540 649 b 547 642 544 650 546 646 b 532 607 550 629 542 607 b 526 618 529 606 528 611 b 540 649 525 632 532 647 z "},"š":{"ha":500,"x_min":0,"x_max":0,"o":"m 125 1046 b 253 886 125 1006 211 886 b 375 1044 293 886 375 1008 b 326 1083 375 1068 349 1083 b 254 1004 289 1083 276 1035 b 171 1086 226 1035 211 1086 b 125 1046 153 1086 125 1064 z m 243 -12 b 474 210 378 -12 474 79 b 314 468 474 281 435 344 b 188 671 215 569 188 614 b 246 738 188 717 206 738 b 324 579 286 738 324 688 b 379 528 324 547 357 528 b 464 638 426 528 464 582 b 251 867 464 742 376 867 b 31 663 115 867 31 789 b 215 374 31 588 82 507 b 318 196 265 324 318 275 b 229 106 318 136 288 106 b 136 288 172 106 136 219 b 92 357 136 336 124 356 b 4 261 42 360 4 318 b 243 -12 4 89 128 -12 z m 111 754 b 88 719 100 736 97 718 b 79 728 82 719 79 722 b 161 824 82 760 138 826 b 147 799 167 824 161 808 b 111 754 133 788 118 767 z m 89 692 b 79 682 88 686 83 682 b 69 690 72 683 69 686 b 81 701 69 694 75 701 b 89 692 85 701 89 697 z m 56 264 b 46 217 46 239 56 217 b 35 231 42 217 38 224 b 75 326 21 275 44 329 b 79 319 79 326 79 324 b 56 264 78 304 65 289 z "},"ù":{"ha":535,"x_min":0,"x_max":0,"o":"m 322 886 b 319 989 344 908 349 949 b 236 1072 278 1047 251 1072 b 196 1019 213 1072 194 1039 b 301 875 203 986 268 875 b 322 886 308 875 315 879 z m 433 0 b 514 104 474 0 514 15 l 514 753 b 432 857 514 832 474 857 b 367 769 389 857 367 828 l 367 326 b 235 135 367 249 301 135 b 167 242 194 135 167 179 l 167 786 b 85 857 167 826 125 857 b 18 790 47 857 18 833 l 18 228 b 213 0 18 86 93 0 b 353 90 282 0 328 57 b 375 117 365 106 369 117 b 381 82 379 117 381 106 b 433 0 381 36 394 0 z m 415 817 b 390 774 400 801 397 774 b 381 788 385 774 381 775 b 411 840 381 808 397 840 b 415 817 422 840 431 832 z m 74 829 b 40 775 74 819 51 775 b 33 789 38 775 33 781 b 68 839 33 810 58 839 b 74 829 69 839 74 838 z m 132 72 b 121 56 132 63 126 56 b 57 143 100 56 57 117 b 68 161 57 154 60 161 b 86 128 75 161 79 147 b 132 72 97 94 133 92 z m 417 72 b 426 17 418 47 435 17 b 400 76 414 17 400 53 b 410 106 400 92 403 106 b 417 72 417 106 415 90 z "},"ú":{"ha":535,"x_min":0,"x_max":0,"o":"m 207 889 b 232 879 215 883 222 879 b 342 1019 272 879 335 982 b 301 1069 343 1039 315 1069 b 218 986 286 1069 260 1044 b 207 889 189 946 186 904 z m 433 0 b 514 104 474 0 514 15 l 514 753 b 432 857 514 832 474 857 b 367 769 389 857 367 828 l 367 326 b 235 135 367 249 301 135 b 167 242 194 135 167 179 l 167 786 b 85 857 167 826 125 857 b 18 790 47 857 18 833 l 18 228 b 213 0 18 86 93 0 b 353 90 282 0 328 57 b 375 117 365 106 369 117 b 381 82 379 117 381 106 b 433 0 381 36 394 0 z m 415 817 b 390 774 400 801 397 774 b 381 788 385 774 381 775 b 411 840 381 808 397 840 b 415 817 422 840 431 832 z m 74 829 b 40 775 74 819 51 775 b 33 789 38 775 33 781 b 68 839 33 810 58 839 b 74 829 69 839 74 838 z m 132 72 b 121 56 132 63 126 56 b 57 143 100 56 57 117 b 68 161 57 154 60 161 b 86 128 75 161 79 147 b 132 72 97 94 133 92 z m 417 72 b 426 17 418 47 435 17 b 400 76 414 17 400 53 b 410 106 400 92 403 106 b 417 72 417 106 415 90 z "},"û":{"ha":535,"x_min":0,"x_max":0,"o":"m 143 926 b 189 886 143 908 171 886 b 272 968 229 886 244 938 b 344 889 294 938 307 889 b 393 928 367 889 393 904 b 271 1086 393 964 311 1086 b 143 926 229 1086 143 967 z m 433 0 b 514 104 474 0 514 15 l 514 753 b 432 857 514 832 474 857 b 367 769 389 857 367 828 l 367 326 b 235 135 367 249 301 135 b 167 242 194 135 167 179 l 167 786 b 85 857 167 826 125 857 b 18 790 47 857 18 833 l 18 228 b 213 0 18 86 93 0 b 353 90 282 0 328 57 b 375 117 365 106 369 117 b 381 82 379 117 381 106 b 433 0 381 36 394 0 z m 415 817 b 390 774 400 801 397 774 b 381 788 385 774 381 775 b 411 840 381 808 397 840 b 415 817 422 840 431 832 z m 74 829 b 40 775 74 819 51 775 b 33 789 38 775 33 781 b 68 839 33 810 58 839 b 74 829 69 839 74 838 z m 132 72 b 121 56 132 63 126 56 b 57 143 100 56 57 117 b 68 161 57 154 60 161 b 86 128 75 161 79 147 b 132 72 97 94 133 92 z m 417 72 b 426 17 418 47 435 17 b 400 76 414 17 400 53 b 410 106 400 92 403 106 b 417 72 417 106 415 90 z "},"ü":{"ha":535,"x_min":0,"x_max":0,"o":"m 192 894 b 256 957 222 894 256 917 b 192 1021 256 997 222 1021 b 126 957 161 1021 126 997 b 192 894 126 917 161 894 z m 344 894 b 408 957 375 894 408 917 b 344 1021 408 997 375 1021 b 279 957 314 1021 279 997 b 344 894 279 917 314 894 z m 433 0 b 514 104 474 0 514 15 l 514 753 b 432 857 514 832 474 857 b 367 769 389 857 367 828 l 367 326 b 235 135 367 249 301 135 b 167 242 194 135 167 179 l 167 786 b 85 857 167 826 125 857 b 18 790 47 857 18 833 l 18 228 b 213 0 18 86 93 0 b 353 90 282 0 328 57 b 375 117 365 106 369 117 b 381 82 379 117 381 106 b 433 0 381 36 394 0 z m 415 817 b 390 774 400 801 397 774 b 381 788 385 774 381 775 b 411 840 381 808 397 840 b 415 817 422 840 431 832 z m 74 829 b 40 775 74 819 51 775 b 33 789 38 775 33 781 b 68 839 33 810 58 839 b 74 829 69 839 74 838 z m 132 72 b 121 56 132 63 126 56 b 57 143 100 56 57 117 b 68 161 57 154 60 161 b 86 128 75 161 79 147 b 132 72 97 94 133 92 z m 417 72 b 426 17 418 47 435 17 b 400 76 414 17 400 53 b 410 106 400 92 403 106 b 417 72 417 106 415 90 z "},"ý":{"ha":532,"x_min":0,"x_max":0,"o":"m 206 889 b 231 879 214 883 221 879 b 340 1019 271 879 333 982 b 300 1069 342 1039 314 1069 b 217 986 285 1069 258 1044 b 206 889 188 946 185 904 z m 261 -8 b 511 244 415 -8 511 82 l 511 760 b 426 863 511 839 456 863 b 360 776 388 863 360 835 l 360 628 b 228 410 360 518 294 410 b 160 561 188 410 160 424 l 160 793 b 74 860 160 833 128 860 b 11 797 32 860 11 831 l 11 575 b 206 275 11 339 117 275 b 360 385 313 275 358 385 b 363 329 363 385 363 350 l 363 268 b 261 110 363 161 336 110 b 168 188 211 110 168 138 b 114 229 168 214 142 229 b 67 153 86 229 67 196 b 261 -8 67 57 153 -8 z m 65 832 b 35 775 56 824 46 775 b 28 793 32 775 28 778 b 60 849 28 803 40 849 b 65 832 67 849 72 838 z m 400 811 b 385 774 390 796 392 774 b 375 789 381 774 375 782 b 413 849 375 810 397 849 b 400 811 424 849 410 826 z m 96 376 b 110 353 101 371 110 361 b 100 339 110 343 103 339 b 53 425 88 339 53 403 b 60 451 53 440 53 451 b 71 417 63 451 64 436 b 96 376 76 403 85 388 z m 89 111 b 83 146 85 111 83 126 b 113 213 83 175 99 213 b 113 181 122 213 115 186 b 89 111 97 149 107 111 z "},"ÿ":{"ha":532,"x_min":0,"x_max":0,"o":"m 190 894 b 254 957 221 894 254 917 b 190 1021 254 997 221 1021 b 125 957 160 1021 125 997 b 190 894 125 917 160 894 z m 343 894 b 407 957 374 894 407 917 b 343 1021 407 997 374 1021 b 278 957 313 1021 278 997 b 343 894 278 917 313 894 z m 261 -8 b 511 244 415 -8 511 82 l 511 760 b 426 863 511 839 456 863 b 360 776 388 863 360 835 l 360 628 b 228 410 360 518 294 410 b 160 561 188 410 160 424 l 160 793 b 74 860 160 833 128 860 b 11 797 32 860 11 831 l 11 575 b 206 275 11 339 117 275 b 360 385 313 275 358 385 b 363 329 363 385 363 350 l 363 268 b 261 110 363 161 336 110 b 168 188 211 110 168 138 b 114 229 168 214 142 229 b 67 153 86 229 67 196 b 261 -8 67 57 153 -8 z m 65 832 b 35 775 56 824 46 775 b 28 793 32 775 28 778 b 60 849 28 803 40 849 b 65 832 67 849 72 838 z m 400 811 b 385 774 390 796 392 774 b 375 789 381 774 375 782 b 413 849 375 810 397 849 b 400 811 424 849 410 826 z m 96 376 b 110 353 101 371 110 361 b 100 339 110 343 103 339 b 53 425 88 339 53 403 b 60 451 53 440 53 451 b 71 417 63 451 64 436 b 96 376 76 403 85 388 z m 89 111 b 83 146 85 111 83 126 b 113 213 83 175 99 213 b 113 181 122 213 115 186 b 89 111 97 149 107 111 z "},"ž":{"ha":501,"x_min":0,"x_max":0,"o":"m 126 1046 b 254 886 126 1006 213 886 b 376 1044 294 886 376 1008 b 328 1083 376 1068 350 1083 b 256 1004 290 1083 278 1035 b 172 1086 228 1035 213 1086 b 126 1046 154 1086 126 1064 z m 108 0 l 446 0 b 483 49 461 0 483 22 b 429 119 483 90 465 119 l 224 121 b 185 139 197 121 185 125 b 219 219 185 153 197 178 l 296 364 l 399 364 b 439 426 428 364 439 390 b 393 469 439 453 426 469 l 351 469 l 461 678 b 482 761 475 706 482 733 b 425 856 482 804 469 856 l 83 858 b 17 790 49 858 17 844 b 58 740 17 763 35 740 l 306 738 b 321 729 317 738 319 735 b 317 713 321 725 319 718 l 193 469 l 107 469 b 64 418 74 469 64 450 b 107 364 64 386 79 364 l 140 364 l 28 142 b 13 76 14 114 13 94 b 108 0 13 18 67 0 z m 58 797 b 46 767 57 793 53 768 b 38 778 42 767 38 774 b 58 836 35 800 39 833 b 71 826 63 836 71 829 b 58 797 72 821 63 804 z m 96 425 b 90 386 96 408 99 386 b 76 417 81 386 76 404 b 97 453 76 436 88 453 b 96 425 106 453 96 435 z m 49 68 b 36 99 40 68 35 83 b 78 168 38 111 60 167 b 83 163 81 168 83 164 b 49 68 82 143 63 67 z m 69 38 b 57 26 69 32 63 26 b 50 35 54 26 50 31 b 63 47 50 42 54 47 b 69 38 68 47 69 43 z "},"ı":{"ha":217,"x_min":0,"x_max":0,"o":"m 104 -6 b 182 44 149 -6 182 15 l 182 660 b 104 746 182 696 158 746 b 35 653 50 746 35 688 l 35 44 b 104 -6 35 17 60 -6 z m 60 611 b 47 647 51 611 47 631 b 74 711 47 664 54 711 b 71 686 79 711 72 693 b 60 611 64 663 71 611 z "},"ì":{"ha":217,"x_min":0,"x_max":0,"o":"m 163 886 b 160 989 185 908 189 949 b 76 1072 118 1047 92 1072 b 36 1019 53 1072 35 1039 b 142 875 43 986 108 875 b 163 886 149 875 156 879 z m 104 -6 b 182 44 149 -6 182 15 l 182 660 b 104 746 182 696 158 746 b 35 653 50 746 35 688 l 35 44 b 104 -6 35 17 60 -6 z m 60 611 b 47 647 51 611 47 631 b 74 711 47 664 54 711 b 71 686 79 711 72 693 b 60 611 64 663 71 611 z "},"í":{"ha":217,"x_min":0,"x_max":0,"o":"m 47 889 b 72 879 56 883 63 879 b 182 1019 113 879 175 982 b 142 1069 183 1039 156 1069 b 58 986 126 1069 100 1044 b 47 889 29 946 26 904 z m 104 -6 b 182 44 149 -6 182 15 l 182 660 b 104 746 182 696 158 746 b 35 653 50 746 35 688 l 35 44 b 104 -6 35 17 60 -6 z m 60 611 b 47 647 51 611 47 631 b 74 711 47 664 54 711 b 71 686 79 711 72 693 b 60 611 64 663 71 611 z "},"î":{"ha":217,"x_min":0,"x_max":0,"o":"m -17 926 b 29 886 -17 908 11 886 b 113 968 69 886 85 938 b 185 889 135 938 147 889 b 233 928 207 889 233 904 b 111 1086 233 964 151 1086 b -17 926 69 1086 -17 967 z m 104 -6 b 182 44 149 -6 182 15 l 182 660 b 104 746 182 696 158 746 b 35 653 50 746 35 688 l 35 44 b 104 -6 35 17 60 -6 z m 60 611 b 47 647 51 611 47 631 b 74 711 47 664 54 711 b 71 686 79 711 72 693 b 60 611 64 663 71 611 z "},"ï":{"ha":217,"x_min":0,"x_max":0,"o":"m 32 894 b 96 957 63 894 96 917 b 32 1021 96 997 63 1021 b -33 957 1 1021 -33 997 b 32 894 -33 917 1 894 z m 185 894 b 249 957 215 894 249 917 b 185 1021 249 997 215 1021 b 119 957 154 1021 119 997 b 185 894 119 917 154 894 z m 104 -6 b 182 44 149 -6 182 15 l 182 660 b 104 746 182 696 158 746 b 35 653 50 746 35 688 l 35 44 b 104 -6 35 17 60 -6 z m 60 611 b 47 647 51 611 47 631 b 74 711 47 664 54 711 b 71 686 79 711 72 693 b 60 611 64 663 71 611 z "},"ﬁ":{"ha":531,"x_min":0,"x_max":0,"o":"m 419 688 b 507 768 468 688 507 719 b 264 876 507 868 332 876 b 69 625 133 876 69 790 l 69 558 l 47 558 b 13 503 28 558 13 543 b 47 433 13 463 28 433 l 69 433 l 69 168 b 128 0 69 78 74 0 l 131 0 b 221 151 174 0 221 26 l 221 433 b 290 433 251 433 260 433 b 331 500 321 433 331 474 b 292 558 331 524 324 558 l 219 558 l 219 644 b 278 754 219 704 225 754 b 419 688 347 754 375 688 z m 107 654 b 99 682 99 654 99 674 b 185 832 99 740 144 832 b 189 821 188 832 193 824 b 118 694 154 788 125 746 b 107 654 117 689 118 654 z m 425 -6 b 503 44 469 -6 503 15 l 503 590 b 425 676 503 626 479 676 b 356 583 371 676 356 618 l 356 44 b 425 -6 356 17 381 -6 z m 381 542 b 368 578 372 542 368 561 b 394 642 368 594 375 642 b 392 617 400 642 393 624 b 381 542 385 593 392 542 z m 125 40 b 114 22 125 35 121 24 b 85 108 96 19 85 94 b 90 133 85 117 82 133 b 99 103 99 133 99 108 b 125 40 100 81 125 60 z "},"ﬂ":{"ha":615,"x_min":0,"x_max":0,"o":"m 128 0 l 131 0 b 221 151 174 0 221 26 l 221 433 b 304 433 251 433 274 433 b 344 500 335 433 344 474 b 306 558 344 524 338 558 l 219 558 l 219 618 b 264 753 219 739 240 753 b 374 638 319 753 361 681 l 374 157 b 474 0 374 65 379 0 l 535 0 b 596 65 572 0 596 18 b 553 131 596 100 581 131 l 538 131 b 519 190 521 131 519 153 l 519 786 b 447 858 519 811 501 858 b 378 814 408 858 386 840 b 257 876 351 849 314 876 b 69 625 133 876 69 790 l 69 558 l 47 558 b 13 503 28 558 13 543 b 47 433 13 463 28 433 l 69 433 l 69 168 b 128 0 69 78 74 0 z m 410 783 b 393 799 406 783 393 785 b 433 843 393 818 413 843 b 436 803 449 843 446 819 b 410 783 425 785 419 783 z m 107 654 b 99 682 99 654 99 674 b 185 832 99 740 144 832 b 189 821 188 832 193 824 b 118 694 154 788 125 746 b 107 654 117 689 118 654 z m 125 40 b 114 22 125 35 121 24 b 85 108 96 19 85 94 b 90 133 85 117 82 133 b 99 103 99 133 99 108 b 125 40 100 81 125 60 z "}}}
